<svg width="337" height="459" viewBox="0 0 337 459" fill="none" xmlns="http://www.w3.org/2000/svg">
<path d="M205.91 189.442C204.628 174.469 205.246 167.158 203.66 162.201C199.981 159.261 186.335 151.363 174.894 145.302C172.833 144.205 171.292 142.332 170.611 140.097C169.929 137.861 170.163 135.446 171.26 133.383C173.51 129.091 176.413 132.955 180.71 135.231C194.323 142.486 213.898 146.553 217.666 151.341C221.919 156.737 220.738 192.438 220.738 192.438L205.91 189.442Z" fill="#080C20"/>
<path fill-rule="evenodd" clip-rule="evenodd" d="M220.479 193.542C220.553 193.553 220.629 193.553 220.704 193.542C220.972 193.555 221.235 193.471 221.446 193.306C221.706 193.101 221.862 192.792 221.874 192.461C221.877 192.256 221.884 191.964 221.892 191.593C222.034 185.242 222.69 155.878 218.566 150.62C216.305 147.758 209.701 145.404 201.331 142.441C194.75 140.109 187.37 137.473 181.25 134.217C180.258 133.69 179.296 133.107 178.37 132.471L178.361 132.465C176.385 131.127 174.677 129.97 172.903 130.42C171.696 130.798 170.717 131.688 170.225 132.854C167.665 137.702 169.501 143.71 174.331 146.294C184.951 151.938 198.575 159.779 202.659 162.9C203.49 165.666 203.648 169.33 203.884 174.778L203.885 174.807C203.898 175.088 203.911 175.374 203.925 175.665C204.096 179.389 204.306 183.943 204.796 189.554C204.837 190.056 205.204 190.469 205.696 190.568L220.479 193.542ZM219.613 191.053L206.968 188.495C206.527 183.259 206.331 178.965 206.169 175.43C206.158 175.178 206.146 174.929 206.135 174.684C205.888 168.825 205.708 164.961 204.695 161.852C204.631 161.64 204.501 161.455 204.324 161.322C200.454 158.235 186.571 150.237 175.389 144.288C171.653 142.288 170.235 137.64 172.216 133.89C172.621 133.124 173.038 132.685 173.443 132.583C174.253 132.381 175.648 133.316 177.11 134.318C178.089 135.001 179.103 135.633 180.148 136.211C186.346 139.51 193.756 142.147 200.319 144.483L200.533 144.559C207.924 147.184 214.899 149.662 216.755 152.017C219.613 155.622 220.018 176.835 219.613 191.053Z" fill="#093F68"/>
<path d="M205.91 189.442V207.163C205.91 207.163 232.786 212.322 230.66 208.289C228.534 204.256 220.018 201.98 220.018 201.98L220.726 192.382L205.91 189.442Z" fill="#080C20"/>
<path fill-rule="evenodd" clip-rule="evenodd" d="M205.741 208.267C216.193 210.272 222.481 210.914 226.25 210.914C229.85 210.914 231.144 210.373 231.594 209.754C232.013 209.176 232.044 208.403 231.673 207.794C229.738 204.189 223.561 201.935 221.221 201.203L221.863 192.506C221.908 191.937 221.521 191.424 220.963 191.312L206.18 188.338C205.851 188.269 205.508 188.352 205.246 188.563C204.982 188.778 204.829 189.101 204.83 189.442V207.14C204.82 207.688 205.205 208.163 205.741 208.267ZM229.535 208.481C227.116 209.269 216.553 207.985 207.125 206.228V190.816L219.59 193.328L218.96 201.935C218.942 202.459 219.287 202.926 219.793 203.062C221.93 203.648 227.679 205.709 229.535 208.481Z" fill="#093F68"/>
<path d="M191.679 83.1718C191.679 83.1718 205.393 100.713 208.7 100.07C212.008 99.4282 221.559 93.0744 226.565 90.9677C234.586 87.5879 247.231 89.2102 243.789 92.0942C240.346 94.9783 241.314 92.3195 241.314 92.3195C222.673 104.61 209.814 112.598 208.194 112.463C200.139 112.046 185.041 96.9836 185.041 96.9836L191.679 83.1718Z" fill="#080C20"/>
<path fill-rule="evenodd" clip-rule="evenodd" d="M208.137 113.578H208.25C209.127 113.578 212.244 112.789 240.571 94.1897L240.695 94.2911C241.696 95.0008 242.945 94.2798 244.52 92.9842C244.981 92.714 245.316 92.2712 245.451 91.7536C245.586 91.2359 245.51 90.6857 245.24 90.2241C243.507 87.3964 232.629 87.2725 226.115 89.9988C223.267 91.3196 220.488 92.7861 217.79 94.3925C214.224 96.4203 210.162 98.7072 208.509 99.0227C206.641 99.0227 198.777 90.4607 192.567 82.5184C192.328 82.2107 191.948 82.0487 191.561 82.09C191.173 82.1313 190.835 82.37 190.666 82.7211L184.029 96.5104C183.815 96.9435 183.901 97.4647 184.242 97.806C184.274 97.8356 184.342 97.9012 184.444 97.9993C186.357 99.8441 200.169 113.161 208.137 113.578ZM208.261 111.325C201.567 110.931 189.204 99.3832 186.402 96.6794L191.881 85.2559C203.761 100.228 207.744 101.388 208.869 101.174C210.876 100.801 214.593 98.704 218.573 96.4592C218.675 96.4013 218.778 96.3432 218.881 96.2851C221.817 94.6178 224.855 92.8941 226.959 92.0041C233.292 89.3567 241.494 90.1565 243.069 91.1479C242.765 91.3958 242.517 91.5873 242.315 91.7337C242.233 91.595 242.131 91.4696 242.011 91.362C241.616 91.0727 241.079 91.0727 240.684 91.362C213.155 109.534 208.846 111.235 208.261 111.325Z" fill="#093F68"/>
<rect x="139.4" y="190.14" width="49.6575" height="7.81844" fill="#080C20"/>
<path fill-rule="evenodd" clip-rule="evenodd" d="M139.4 199.108H189.058C189.679 199.108 190.183 198.603 190.183 197.981V190.095C190.183 189.473 189.679 188.969 189.058 188.969H139.4C138.779 188.969 138.275 189.473 138.275 190.095V197.981C138.275 198.603 138.779 199.108 139.4 199.108ZM187.933 196.855H140.525V191.222H187.933V196.855Z" fill="#093F68"/>
<path d="M136.981 209.945H134.461C133.743 209.945 133.064 209.619 132.614 209.058C132.163 208.498 131.991 207.764 132.144 207.061L144.519 150.654H151.887L139.344 208.109C139.085 209.201 138.102 209.965 136.981 209.945Z" fill="#080C20"/>
<path fill-rule="evenodd" clip-rule="evenodd" d="M134.461 211.072H136.981C138.639 211.109 140.096 209.975 140.469 208.357L153.012 150.901C153.088 150.565 153.005 150.212 152.787 149.944C152.576 149.682 152.258 149.529 151.921 149.527H144.552C144.013 149.515 143.541 149.889 143.427 150.417L131.052 206.825C130.819 207.858 131.072 208.942 131.739 209.765C132.401 210.592 133.403 211.073 134.461 211.072ZM133.246 207.32L145.374 151.791H150.436L138.196 207.85C138.074 208.423 137.567 208.832 136.981 208.83H134.461C134.084 208.832 133.727 208.662 133.49 208.368C133.254 208.075 133.164 207.689 133.246 207.32Z" fill="#093F68"/>
<path d="M192.073 209.945H194.581C195.299 209.945 195.979 209.619 196.429 209.058C196.879 208.498 197.052 207.764 196.899 207.061L184.625 150.665H177.2L189.744 208.12C190.004 209.195 190.968 209.95 192.073 209.945Z" fill="#080C20"/>
<path fill-rule="evenodd" clip-rule="evenodd" d="M192.073 211.072H194.581L194.694 211.038C195.746 211.029 196.738 210.545 197.393 209.72C198.048 208.896 198.296 207.82 198.069 206.791L185.75 150.383C185.637 149.855 185.165 149.481 184.625 149.493H177.245C176.909 149.496 176.591 149.648 176.379 149.91C176.161 150.178 176.078 150.531 176.154 150.868L188.698 208.323C189.052 209.911 190.448 211.048 192.073 211.072ZM190.846 207.85L178.606 151.792H183.669L195.796 207.32C195.879 207.689 195.789 208.075 195.552 208.368C195.316 208.662 194.958 208.832 194.581 208.83H192.073C191.484 208.833 190.973 208.425 190.846 207.85Z" fill="#093F68"/>
<rect x="131.514" y="146.587" width="55.845" height="8.12261" rx="2.21" fill="#080C20"/>
<path fill-rule="evenodd" clip-rule="evenodd" d="M134 155.847H184.884C185.841 155.847 186.76 155.466 187.437 154.788C188.115 154.11 188.495 153.19 188.495 152.231V149.088C188.495 147.089 186.88 145.466 184.884 145.46H134C132.004 145.466 130.389 147.089 130.389 149.088V152.231C130.389 154.228 132.006 155.847 134 155.847ZM132.639 149.088C132.639 148.333 133.246 147.719 134 147.713H184.884C185.637 147.719 186.245 148.333 186.245 149.088V152.231C186.245 152.984 185.636 153.594 184.884 153.594H134C133.248 153.594 132.639 152.984 132.639 152.231V149.088Z" fill="#093F68"/>
<path d="M201.376 189.442C200.083 174.469 200.713 167.158 199.126 162.201C195.448 159.261 181.801 151.363 170.36 145.302C166.115 142.996 164.52 137.694 166.787 133.424C169.053 129.154 174.334 127.511 178.618 129.744C192.241 136.988 209.364 146.553 213.133 151.341C217.374 156.737 216.204 192.438 216.204 192.438L201.376 189.442Z" fill="#080C20"/>
<path fill-rule="evenodd" clip-rule="evenodd" d="M215.9 193.542C215.975 193.554 216.05 193.554 216.125 193.542L216.114 193.61C216.735 193.61 217.239 193.106 217.239 192.483C217.242 192.317 217.248 192.093 217.254 191.816C217.395 185.912 218.112 155.958 213.942 150.642C210.882 146.767 199.475 139.602 179.067 128.742C174.226 126.178 168.226 128.016 165.646 132.854C163.086 137.702 164.922 143.71 169.752 146.294C180.361 151.938 193.996 159.779 198.08 162.9C198.911 165.666 199.069 169.33 199.305 174.778L199.306 174.807C199.475 178.683 199.689 183.505 200.217 189.554C200.257 190.052 200.618 190.465 201.106 190.568L215.9 193.542ZM215.034 191.053L202.377 188.495H202.422C202.046 183.914 201.842 180.054 201.669 176.792C201.631 176.06 201.593 175.357 201.556 174.684L201.555 174.645C201.297 168.808 201.127 164.954 200.116 161.852C200.052 161.64 199.922 161.455 199.745 161.322C195.875 158.236 181.992 150.237 170.81 144.289C168.388 143.001 166.837 140.517 166.74 137.773C166.643 135.029 168.015 132.441 170.34 130.985C172.665 129.529 175.588 129.425 178.01 130.713C197.866 141.269 209.319 148.412 212.176 152.017C215.034 155.622 215.439 176.835 215.034 191.053Z" fill="#093F68"/>
<path d="M211.625 98.403C206.563 96.4428 189.89 79.8709 188.236 79.071L187.449 78.6992C181.928 76.2442 176.14 74.4408 170.203 73.3255C163.216 72.1989 155.926 72.5256 151.876 77.291C142.438 88.4103 141.999 120.833 141.999 120.833L185.075 128.719C187.948 120.372 190.204 111.825 191.825 103.146C196.876 107.371 203.649 112.249 208.183 112.485L211.625 98.403Z" fill="#080C20"/>
<path fill-rule="evenodd" clip-rule="evenodd" d="M184.839 129.812H185.041C185.529 129.818 185.965 129.509 186.121 129.046C188.814 121.242 190.987 113.267 192.624 105.174C199.284 110.548 204.515 113.364 208.16 113.555C208.69 113.571 209.158 113.214 209.285 112.699L212.66 98.6509C212.794 98.1013 212.501 97.5373 211.974 97.3328C208.949 96.1644 201.059 89.0019 195.456 83.9156C195.224 83.7052 194.996 83.4984 194.773 83.2957C190.779 79.6456 189.316 78.35 188.686 78.0458C188.686 78.0458 188.394 77.8881 187.854 77.6515C182.246 75.1499 176.363 73.3197 170.326 72.1989C161.191 70.7006 154.678 72.1651 150.965 76.5475C141.391 87.8358 140.84 119.459 140.84 120.799C140.831 121.35 141.221 121.827 141.763 121.926L184.839 129.812ZM184.288 127.401L143.113 119.898C143.281 114.502 144.519 87.6555 152.709 78.0233C155.881 74.2831 161.698 73.0776 170 74.4408C175.847 75.5328 181.545 77.31 186.976 79.7357L187.719 80.0737C188.155 80.3262 190.13 82.1193 192.259 84.0527C192.6 84.362 192.945 84.6748 193.288 84.9855C198.879 90.0889 206.383 96.9272 210.298 99.0339L207.35 111.212C203.964 110.581 198.778 107.438 192.568 102.256C192.257 101.988 191.826 101.911 191.443 102.053C191.065 102.193 190.79 102.523 190.723 102.921C189.163 111.224 187.012 119.405 184.288 127.401Z" fill="#093F68"/>
<path d="M192.061 101.862H191.836C191.544 101.802 191.287 101.628 191.122 101.379C190.958 101.13 190.899 100.825 190.959 100.532L193.209 89.796C193.333 89.1739 193.937 88.7703 194.559 88.8948C195.18 89.0192 195.583 89.6245 195.459 90.2467L193.209 100.983C193.089 101.516 192.606 101.886 192.061 101.862Z" fill="#093F68"/>
<path d="M169.471 94.1784C169.37 94.1893 169.268 94.1893 169.167 94.1784C168.879 94.0994 168.635 93.909 168.487 93.6491C168.339 93.3891 168.301 93.0811 168.38 92.7927C170.045 86.743 169.055 73.6409 169.044 73.4607C168.997 72.8385 169.463 72.2963 170.084 72.2496C170.706 72.203 171.247 72.6695 171.294 73.2917C171.294 73.8437 172.329 86.9683 170.551 93.3898C170.403 93.8616 169.965 94.1814 169.471 94.1784Z" fill="#093F68"/>
<path d="M185.041 100.329C184.903 100.326 184.766 100.299 184.636 100.251C184.357 100.145 184.132 99.9319 184.009 99.6593C183.887 99.3868 183.878 99.0767 183.984 98.7973C186.234 92.4072 187.025 85.5937 186.301 78.857C186.214 78.241 186.642 77.6711 187.258 77.5839C187.555 77.5423 187.856 77.6212 188.095 77.8032C188.333 77.9851 188.49 78.2549 188.529 78.5528C189.333 85.6622 188.497 92.8616 186.088 99.5972C185.924 100.035 185.508 100.326 185.041 100.329Z" fill="#093F68"/>
<path d="M161.866 1.95693C156.084 0.75149 149.952 2.76806 145.273 6.24918C141.639 8.95296 138.522 13.0086 138.916 17.391C139.218 19.4638 139.836 21.4776 140.75 23.3619C141.681 25.2515 142.097 27.3543 141.954 29.4566C141.714 31.6365 140.087 33.4073 137.938 33.8278C140.737 35.7304 144.193 36.4021 147.5 35.6866C150.767 34.941 153.569 32.851 155.218 29.9298C155.581 28.9266 156.255 28.0661 157.141 27.4739C157.604 27.2851 158.094 27.1747 158.593 27.1472C162.119 26.8666 165.495 25.5978 168.335 23.4858C176.75 16.6024 171.879 4.07489 161.866 1.95693Z" fill="#080C20"/>
<path fill-rule="evenodd" clip-rule="evenodd" d="M137.375 34.7853C139.592 36.2936 142.21 37.1019 144.89 37.1061C145.88 37.1269 146.868 37.0362 147.838 36.8357C151.42 36.0288 154.492 33.7352 156.286 30.5269L156.5 30.1213C156.703 29.4763 157.095 28.9073 157.625 28.4878C157.987 28.3566 158.366 28.2806 158.75 28.2624C162.514 27.9806 166.116 26.6152 169.123 24.3307C172.928 21.3114 174.603 16.3325 173.398 11.6229C172.007 6.17977 167.641 2.00515 162.148 0.864118C156.545 -0.262458 149.998 1.38234 144.654 5.37042C139.985 8.84027 137.51 13.2564 137.836 17.4924C138.078 19.4462 138.633 21.3482 139.479 23.1253L139.783 23.8575C140.62 25.5678 141.008 27.4642 140.908 29.3665C140.717 31.026 139.498 32.3827 137.87 32.7462C137.407 32.8023 137.027 33.1383 136.914 33.5911C136.805 34.0465 136.988 34.5219 137.375 34.7853ZM147.298 34.5825C145.04 35.0792 142.686 34.8748 140.548 33.9967C141.921 32.9322 142.831 31.3788 143.09 29.6594C143.265 27.3591 142.826 25.0536 141.819 22.9788L141.515 22.2353C140.767 20.6818 140.266 19.0207 140.03 17.3121C139.648 12.4228 144.046 8.59243 145.948 7.17294C150.796 3.5679 156.658 2.04702 161.641 3.08347C166.318 4.03059 170.034 7.58537 171.193 12.22C172.207 16.0896 170.823 20.1927 167.671 22.6521C164.977 24.637 161.772 25.8097 158.435 26.0318C157.842 26.0762 157.261 26.217 156.714 26.4487C155.701 27.0323 154.91 27.9356 154.464 29.0172L154.273 29.389C152.783 32.0277 150.25 33.9138 147.298 34.5825Z" fill="#093F68"/>
<path d="M176.368 3.80448C171.906 2.88658 167.263 3.73015 163.408 6.15902C159.589 8.61298 156.637 12.2073 154.97 16.4334C153.893 18.9147 153.437 21.6217 153.643 24.3194C153.873 27.0194 155.174 29.5144 157.254 31.2479C157.874 31.8103 158.668 32.1407 159.504 32.1829C160.066 32.1379 160.616 31.989 161.124 31.7436C168.875 28.4361 175.39 22.7679 179.743 15.5434C182.296 11.2737 182.049 5.07751 176.368 3.80448Z" fill="#080C20"/>
<path fill-rule="evenodd" clip-rule="evenodd" d="M156.556 32.2055C157.367 32.9016 158.391 33.2992 159.459 33.332L159.492 33.3771C160.199 33.3348 160.891 33.155 161.529 32.8476C169.494 29.4439 176.185 23.6139 180.654 16.1855C182.465 13.4192 182.881 9.96444 181.779 6.84624C180.852 4.70167 178.913 3.16575 176.615 2.75677C171.869 1.76578 166.924 2.65839 162.822 5.2465C158.796 7.82152 155.682 11.6019 153.924 16.0504C152.78 18.6997 152.302 21.5888 152.529 24.4659C152.778 27.4828 154.23 30.2723 156.556 32.2055ZM164.004 7.11661C166.662 5.46016 169.726 4.57128 172.857 4.54802C173.957 4.53798 175.055 4.64752 176.131 4.87473C177.716 5.13797 179.062 6.18449 179.709 7.65737C180.526 10.1036 180.178 12.7901 178.764 14.9463C174.548 21.9844 168.215 27.5055 160.674 30.7184C160.301 30.9097 159.897 31.0318 159.481 31.0789C158.906 31.0262 158.364 30.7846 157.94 30.3917C156.094 28.8326 154.95 26.5958 154.767 24.1842C154.573 21.6738 155.002 19.1542 156.016 16.8502C157.591 12.8455 160.386 9.43958 164.004 7.11661Z" fill="#093F68"/>
<path d="M184.94 4.91982C190.126 5.0888 194.862 6.94765 197.765 11.3864C201.14 9.78662 204.931 12.3102 207.327 15.1153C211.873 20.5051 214.434 27.2931 214.584 34.346C214.741 43.5501 210.657 52.4951 204.594 59.4123C201.364 63.2272 197.37 66.3206 192.871 68.4925C188.32 70.6648 183.19 71.305 178.246 70.3175C164.476 67.2645 156.084 50.3096 154.509 37.4553C152.349 19.3738 166.794 4.334 184.94 4.91982Z" fill="#080C20"/>
<path fill-rule="evenodd" clip-rule="evenodd" d="M178.066 71.4103C179.588 71.7507 181.142 71.9207 182.701 71.9173C186.373 71.8953 189.997 71.0887 193.333 69.5515C197.993 67.3129 202.126 64.1107 205.46 60.1559C212.233 52.4275 215.889 43.2572 215.731 34.3347C215.599 27.0167 212.94 19.9705 208.205 14.3943C205.708 11.454 201.871 8.88539 198.204 10.012C195.301 6.12528 190.756 3.98479 184.996 3.79327C175.927 3.4449 167.159 7.08775 161 13.7635C155.074 20.1978 152.309 28.9354 153.451 37.6131C155.184 51.7291 164.398 68.3799 178.066 71.4103ZM162.643 15.2843C168.125 9.33798 175.857 5.98026 183.939 6.03516L184.906 6.04642C188.641 6.17035 193.738 7.29692 196.831 12.006C197.141 12.4715 197.744 12.6393 198.249 12.4003C201.028 11.071 204.414 13.4255 206.473 15.8476C210.836 21.0463 213.301 27.579 213.459 34.3685C213.605 42.7277 210.151 51.3573 203.75 58.6688C200.624 62.3656 196.756 65.3632 192.399 67.4673C188.092 69.5303 183.233 70.1428 178.55 69.2135C165.894 66.4083 157.321 50.6926 155.69 37.3202C154.622 29.3052 157.17 21.2301 162.643 15.2843Z" fill="#093F68"/>
<path d="M176.735 72.5673L183.037 73.8146C183.348 73.8761 183.55 74.1783 183.489 74.4896L182.863 77.6615C182.456 79.7246 180.455 81.0665 178.395 80.6588C176.335 80.251 174.995 78.248 175.402 76.1849L176.028 73.013C176.09 72.7017 176.391 72.4992 176.702 72.5607L176.735 72.5673Z" fill="#080C20"/>
<path fill-rule="evenodd" clip-rule="evenodd" d="M178.224 81.7523C178.542 81.8163 178.866 81.8465 179.191 81.8424L179.236 81.7973C181.582 81.7884 183.596 80.1248 184.051 77.8205L184.681 74.6549C184.763 74.213 184.67 73.7566 184.422 73.3818C184.167 72.9917 183.758 72.7294 183.297 72.6608L176.964 71.3991C176.522 71.3185 176.067 71.4113 175.692 71.6582C175.305 71.9156 175.044 72.3245 174.972 72.7847L174.342 75.9617C173.819 78.6336 175.556 81.225 178.224 81.7523ZM176.547 76.3898L177.065 73.7649L182.307 74.79L181.79 77.4262C181.659 78.122 181.254 78.7354 180.665 79.1274C180.073 79.523 179.35 79.6687 178.651 79.5329C177.958 79.3974 177.347 78.9923 176.952 78.4064C176.557 77.8139 176.412 77.0892 176.547 76.3898Z" fill="#093F68"/>
<ellipse cx="201.688" cy="59.7026" rx="6.37608" ry="5.6928" transform="rotate(-78.82 201.688 59.7026)" fill="#080C20"/>
<path fill-rule="evenodd" clip-rule="evenodd" d="M200.274 67.0505C200.678 67.1302 201.088 67.1717 201.5 67.1744C202.917 67.1533 204.29 66.6753 205.415 65.8112C206.945 64.6332 207.99 62.9333 208.351 61.0346C209.15 56.9789 206.799 53.0809 203.109 52.3487C201.272 51.9954 199.372 52.4556 197.9 53.6104C194.768 56.0696 193.907 60.4547 195.875 63.9186C196.814 65.5555 198.421 66.6996 200.274 67.0505ZM201.932 54.4783C201.942 54.4781 201.952 54.478 201.961 54.4779H201.916C201.922 54.478 201.927 54.4782 201.932 54.4783ZM199.329 55.3904C200.077 54.8146 200.989 54.495 201.932 54.4783C202.208 54.4861 202.481 54.5237 202.749 54.5906C205.213 55.075 206.776 57.7788 206.214 60.6177C205.953 61.9599 205.213 63.1612 204.133 63.9975C203.175 64.7733 201.923 65.0834 200.715 64.844C199.507 64.6047 198.468 63.8406 197.878 62.7582C196.49 60.2785 197.105 57.1568 199.329 55.3904Z" fill="#093F68"/>
<path d="M178.123 76.2095C165.871 73.7761 157.873 56.4607 160.269 44.3725L162.969 46.0624L164.555 37.4891C164.555 37.4891 195.481 35.4162 194.93 27.8682L207.305 36.5203L202.996 58.3758C200.521 70.4527 190.385 78.6317 178.123 76.2095Z" fill="#080C20"/>
<path fill-rule="evenodd" clip-rule="evenodd" d="M177.942 77.3136C179.424 77.6091 180.931 77.7601 182.442 77.7642C192.984 77.7642 201.702 70.2725 204.076 58.511L208.385 36.6667C208.465 36.2332 208.284 35.793 207.924 35.5402L195.549 26.8881C195.192 26.6375 194.723 26.6156 194.345 26.8317C193.946 27.0574 193.723 27.5031 193.782 27.9583C193.803 28.5019 193.595 29.0293 193.209 29.4116C189.44 33.794 171.26 35.9119 164.51 36.3626C163.994 36.3957 163.567 36.7768 163.475 37.2864L162.192 44.2261L160.899 43.4149C160.584 43.2174 160.193 43.1879 159.852 43.3361C159.513 43.4857 159.269 43.7934 159.2 44.1585C156.736 56.6409 165.061 74.7563 177.942 77.3136ZM201.804 58.1956C199.43 70.1936 189.597 77.3474 178.347 75.0942L178.381 75.1168C169.021 73.2917 159.459 59.5813 161.146 46.2539L162.406 47.0425C162.723 47.2363 163.114 47.2616 163.452 47.1101C163.792 46.9605 164.036 46.6528 164.105 46.2877L165.534 38.5707C170.45 38.1989 190.216 36.3626 194.919 30.8987C195.209 30.5553 195.454 30.1768 195.65 29.7721L206 37.0272L201.804 58.1956Z" fill="#093F68"/>
<ellipse cx="177.47" cy="50.4957" rx="2.06153" ry="2.05886" transform="rotate(-78.82 177.47 50.4957)" fill="#093F68"/>
<ellipse cx="196.933" cy="54.3427" rx="2.05875" ry="2.06163" fill="#093F68"/>
<path d="M188.562 58.8378C187.349 58.7831 186.152 58.532 185.019 58.0942C184.643 57.9493 184.373 57.6147 184.31 57.2163C184.248 56.818 184.402 56.4164 184.715 56.163C185.028 55.9095 185.453 55.8426 185.829 55.9875C186.603 56.2829 187.412 56.4761 188.236 56.5621C188.161 55.0313 187.889 53.5166 187.426 52.0558C187.312 51.6694 187.412 51.2512 187.689 50.9586C187.965 50.6661 188.377 50.5437 188.769 50.6375C189.16 50.7314 189.472 51.0272 189.586 51.4136C190.284 53.7907 190.925 56.8888 190.047 58.1731C189.773 58.5789 189.322 58.8298 188.832 58.849L188.562 58.8378Z" fill="#093F68"/>
<path d="M182.24 46.8059C182.079 46.8225 181.917 46.8225 181.756 46.8059L172.149 44.733C170.956 44.4515 170.208 43.2663 170.465 42.0667C170.722 40.8671 171.891 40.0942 173.094 40.3281L182.713 42.401C183.955 42.5316 184.857 43.6463 184.726 44.8907C184.596 46.1351 183.483 47.0379 182.24 46.9073V46.8059Z" fill="#093F68"/>
<path d="M200.544 49.1605H200.308L190.531 48.1466C189.289 48.0221 188.382 46.9125 188.506 45.6681C188.631 44.4237 189.739 43.5158 190.981 43.6403L200.769 44.6316C201.363 44.6941 201.907 44.9904 202.283 45.4553C202.659 45.9201 202.834 46.5155 202.771 47.1101C202.667 48.2661 201.703 49.1536 200.544 49.1605Z" fill="#093F68"/>
<path d="M164.375 46.7834C164.375 46.7834 159.774 42.0292 155.96 46.2313C152.146 50.4335 153.316 59.0856 162.609 58.4659" fill="#080C20"/>
<path d="M161.698 59.6263C157.873 59.6263 154.948 58.0378 153.564 55.1876C152.109 51.9273 152.713 48.114 155.105 45.4653C156.175 44.1806 157.744 43.4176 159.414 43.3698C162.485 43.3022 165.039 45.8934 165.163 46.006C165.479 46.2861 165.612 46.72 165.507 47.1297C165.403 47.5394 165.078 47.8558 164.666 47.9491C164.254 48.0423 163.824 47.8967 163.554 47.572C162.451 46.4666 161 45.7779 159.448 45.623C158.395 45.6777 157.418 46.1875 156.77 47.0199C154.997 48.987 154.535 51.8104 155.589 54.2413C156.714 56.4944 159.121 57.621 162.508 57.3732C163.129 57.3327 163.665 57.8043 163.706 58.4265C163.746 59.0487 163.275 59.5859 162.654 59.6263H161.698Z" fill="#093F68"/>
<path d="M182.668 69.0107C182.34 69.0102 182.013 68.9877 181.689 68.9431C178.179 68.4249 175.378 65.2141 173.364 59.401C173.231 59.0207 173.311 58.5983 173.574 58.2931C173.836 57.9879 174.242 57.8462 174.637 57.9214C175.032 57.9965 175.357 58.2771 175.49 58.6575C177.211 63.6144 179.394 66.3294 182.015 66.7125C186.718 67.3997 191.69 60.5726 191.735 60.505C191.909 60.2607 192.173 60.096 192.469 60.0474C192.764 59.9987 193.067 60.0702 193.31 60.2459C193.811 60.6081 193.927 61.3073 193.569 61.8119C193.344 62.1273 188.338 69.0107 182.668 69.0107Z" fill="#093F68"/>
<path d="M185.041 128.685L189.845 112.451L187.032 91.7788L168.301 85.2447L143.427 102.752L141.965 120.844C141.965 120.844 135.091 132.741 138.59 141.247C142.089 149.752 199.97 166.031 199.97 166.031L212.615 144.412L185.041 128.685Z" fill="#080C20"/>
<path fill-rule="evenodd" clip-rule="evenodd" d="M199.711 167.147C199.812 167.163 199.914 167.163 200.015 167.147C200.438 167.194 200.852 166.998 201.084 166.64L213.717 145.021C213.867 144.762 213.908 144.454 213.83 144.165C213.752 143.874 213.562 143.627 213.301 143.477L186.459 128.19L190.959 112.823C190.992 112.667 190.992 112.506 190.959 112.35L188.146 91.6774C188.09 91.2576 187.803 90.9051 187.404 90.7649L168.672 84.2194C168.331 84.1029 167.955 84.1574 167.66 84.3659L142.786 101.873C142.513 102.066 142.339 102.372 142.314 102.707L140.862 120.552C139.839 122.32 134.112 133.361 137.589 141.731C141.211 150.485 193.737 165.468 199.711 167.147ZM143.09 120.912L144.507 103.349L168.481 86.4501L186.009 92.6237L188.697 112.361L183.961 128.347C183.814 128.847 184.028 129.383 184.479 129.643L211.107 144.795L199.486 164.679C158.041 152.963 140.997 143.984 139.67 140.796C136.385 132.91 142.876 121.498 142.944 121.385C143.027 121.24 143.077 121.079 143.09 120.912Z" fill="#093F68"/>
<path d="M232.426 107.945L260.461 125.655V133.721L228.5 111.336L232.426 107.945Z" fill="#093F68"/>
<path fill-rule="evenodd" clip-rule="evenodd" d="M259.82 134.69C260.008 134.822 260.232 134.892 260.461 134.893C260.641 134.894 260.819 134.851 260.979 134.769C261.353 134.575 261.587 134.188 261.586 133.766V125.711C261.587 125.322 261.387 124.96 261.058 124.754L233.034 107.055C232.617 106.786 232.073 106.823 231.695 107.145L227.769 110.525C227.504 110.752 227.36 111.089 227.378 111.437C227.395 111.785 227.573 112.106 227.859 112.305L259.82 134.69ZM259.336 131.513L230.334 111.235L232.528 109.331L259.336 126.23V131.513Z" fill="#093F68"/>
<path d="M271.171 201.169H256.783V92.3308L271.171 87.6443V201.169Z" fill="#093F68"/>
<path fill-rule="evenodd" clip-rule="evenodd" d="M256.782 202.296H271.171C271.793 202.296 272.296 201.791 272.296 201.169V87.6443C272.315 87.2738 272.15 86.9179 271.855 86.6928C271.561 86.4677 271.175 86.4022 270.822 86.5177L256.434 91.2042C255.951 91.3613 255.633 91.8229 255.657 92.3308V201.169C255.657 201.791 256.161 202.296 256.782 202.296ZM270.046 200.043H257.907V93.142L270.046 89.1877V200.043Z" fill="#093F68"/>
<rect x="241.46" y="200.02" width="45.0337" height="9.24919" rx="3.23" fill="#093F68"/>
<path fill-rule="evenodd" clip-rule="evenodd" d="M245.094 210.373H282.849C284.118 210.373 285.334 209.867 286.23 208.966C287.125 208.066 287.625 206.845 287.619 205.574V203.614C287.613 200.98 285.479 198.849 282.849 198.849H245.094C242.468 198.855 240.341 200.985 240.335 203.614V205.597C240.335 208.23 242.464 210.367 245.094 210.373ZM242.585 203.637C242.585 202.249 243.708 201.124 245.094 201.124L282.849 201.102C283.516 201.099 284.157 201.362 284.63 201.834C285.103 202.305 285.369 202.946 285.369 203.614V205.597C285.369 206.266 285.103 206.908 284.631 207.381C284.158 207.854 283.517 208.12 282.849 208.12H245.094C243.706 208.114 242.585 206.986 242.585 205.597V203.637Z" fill="#093F68"/>
<ellipse cx="263.971" cy="100.239" rx="3.79125" ry="3.79656" fill="#080C20"/>
<path fill-rule="evenodd" clip-rule="evenodd" d="M259.044 100.239C259.044 102.965 261.25 105.174 263.971 105.174C266.693 105.174 268.899 102.965 268.899 100.239C268.899 97.5142 266.693 95.305 263.971 95.305C261.25 95.305 259.044 97.5142 259.044 100.239ZM261.497 99.2272C261.91 98.2239 262.887 97.5694 263.971 97.5694C265.446 97.5694 266.643 98.763 266.649 100.239C266.653 101.325 266.004 102.306 265.004 102.725C264.004 103.143 262.85 102.917 262.082 102.151C261.314 101.385 261.083 100.231 261.497 99.2272Z" fill="#093F68"/>
<ellipse cx="263.971" cy="198.849" rx="3.79125" ry="3.79656" fill="#080C20"/>
<path fill-rule="evenodd" clip-rule="evenodd" d="M259.066 198.841C259.062 201.559 261.258 203.765 263.971 203.772C265.277 203.775 266.53 203.257 267.455 202.334C268.379 201.41 268.899 200.156 268.899 198.849C268.899 196.131 266.7 193.927 263.986 193.925C261.273 193.923 259.07 196.124 259.066 198.841ZM261.316 198.856C261.312 197.383 262.5 196.185 263.971 196.179C265.446 196.179 266.643 197.372 266.649 198.849C266.649 200.322 265.457 201.516 263.986 201.518C262.515 201.521 261.32 200.329 261.316 198.856Z" fill="#093F68"/>
<path d="M195.641 118.97L308.856 60.403L312.749 67.9499L199.534 126.516L195.641 118.97Z" fill="#080C20"/>
<path fill-rule="evenodd" clip-rule="evenodd" d="M198.541 127.018C198.735 127.393 199.121 127.627 199.542 127.626C199.73 127.642 199.918 127.615 200.094 127.548L313.302 68.9657C313.565 68.8289 313.763 68.5942 313.854 68.3123C313.948 68.0257 313.924 67.7132 313.786 67.4448L309.882 59.8967C309.598 59.3486 308.925 59.1325 308.375 59.4123L195.132 117.949C194.866 118.084 194.663 118.319 194.57 118.603C194.479 118.891 194.507 119.203 194.649 119.47L198.541 127.018ZM200.026 124.979L197.157 119.436L308.375 61.8908L311.232 67.4335L200.026 124.979Z" fill="#093F68"/>
<path d="M201.376 189.442V207.163C201.376 207.163 228.252 212.322 226.126 208.289C224 204.256 215.484 201.98 215.484 201.98L216.192 192.382L201.376 189.442Z" fill="#080C20"/>
<path fill-rule="evenodd" clip-rule="evenodd" d="M201.162 208.267C211.614 210.272 217.902 210.914 221.671 210.914C225.316 210.914 226.61 210.373 227.015 209.754C227.428 209.174 227.459 208.405 227.094 207.794C225.159 204.189 218.982 201.935 216.642 201.203L217.284 192.506C217.329 191.937 216.942 191.424 216.384 191.312L201.601 188.338C201.272 188.269 200.929 188.352 200.667 188.563C200.403 188.778 200.25 189.101 200.251 189.442V207.14C200.241 207.688 200.626 208.163 201.162 208.267ZM224.956 208.481C222.537 209.269 211.974 207.985 202.546 206.228V190.816L215.011 193.328L214.381 201.935C214.362 202.456 214.702 202.922 215.202 203.062C217.351 203.648 223.1 205.709 224.956 208.481Z" fill="#093F68"/>
<path d="M210.916 111.043L208.7 105.692L295.1 61.5303L297.823 66.0816L210.916 111.043Z" fill="#080C20"/>
<path fill-rule="evenodd" clip-rule="evenodd" d="M210.523 112.102C210.649 112.148 210.782 112.171 210.916 112.17C211.099 112.16 211.277 112.106 211.434 112.012L298.34 67.0505C298.616 66.9057 298.82 66.6528 298.903 66.352C298.986 66.056 298.946 65.7385 298.79 65.4733L296.068 60.967C295.765 60.4589 295.121 60.2719 294.594 60.5389L208.138 104.689C207.621 104.96 207.396 105.581 207.62 106.12L209.87 111.483C209.992 111.771 210.228 111.996 210.523 112.102ZM211.49 109.489L210.14 106.222L294.673 63.0173L296.236 65.631L211.49 109.489Z" fill="#093F68"/>
<path d="M217.79 63.4567L214.584 65.676L230.694 88.9849L233.945 86.7317L217.79 63.4567Z" fill="#080C20"/>
<path fill-rule="evenodd" clip-rule="evenodd" d="M229.828 89.627C230.037 89.9299 230.382 90.1109 230.75 90.1115C230.982 90.1044 231.206 90.0257 231.391 89.8862L234.643 87.633C234.881 87.4538 235.045 87.1932 235.104 86.9007C235.158 86.6063 235.094 86.3023 234.924 86.0558L218.769 62.7807C218.414 62.2713 217.715 62.1453 217.205 62.4991L213.999 64.7523C213.49 65.1074 213.364 65.8078 213.718 66.3182L229.828 89.627ZM230.964 87.419L216.125 65.9577L217.486 65.0452L232.348 86.4501L230.964 87.419Z" fill="#093F68"/>
<path d="M185.041 97.3553L212.289 82.7098C212.289 82.7098 214.753 77.9219 216.361 76.6376C218.218 75.1393 219.556 73.5282 220.141 74.2493C220.638 74.825 221.019 75.4903 221.266 76.2095C221.39 76.6038 221.323 77.2685 221.739 77.4825C222.673 77.9782 225.474 75.7814 226.239 75.3082C226.543 75.1167 226.88 74.8463 226.858 74.4858C226.835 74.1253 226.048 73.731 225.969 73.2015C226.735 72.7533 227.656 72.6549 228.5 72.9312C229.105 73.1782 229.582 73.6627 229.82 74.2716C230.058 74.8806 230.036 75.5606 229.76 76.1532C229.265 77.2797 227.983 78.1134 227.645 79.1949C227.54 79.6186 227.491 80.0541 227.499 80.4905C227.508 82.0537 227.226 83.6049 226.666 85.0644C225.08 88.7821 220.051 89.6946 216.541 90.9C216.541 90.9 187.066 114.051 183.275 114.051" fill="#080C20"/>
<path d="M183.309 115.144C182.687 115.144 182.184 114.64 182.184 114.017C182.184 113.395 182.687 112.891 183.309 112.891C185.559 112.767 201.658 101.152 215.934 89.9763C216.03 89.8965 216.141 89.8354 216.26 89.7961C216.845 89.5933 217.475 89.4018 218.128 89.199C221.143 88.2639 224.551 87.2162 225.676 84.5913C226.19 83.2667 226.442 81.8549 226.419 80.4342C226.413 79.8905 226.481 79.3486 226.621 78.8232C226.913 78.0682 227.357 77.3817 227.926 76.8066C228.256 76.4703 228.54 76.0915 228.77 75.6801C228.928 75.3212 228.928 74.9124 228.77 74.5535C228.661 74.2772 228.44 74.0602 228.163 73.9564C228.064 73.9232 227.962 73.9005 227.859 73.8888C227.929 74.0658 227.974 74.2515 227.994 74.4408C228.003 75.2216 227.566 75.939 226.869 76.2884L226.396 76.6151C224.349 78.0571 222.538 79.195 221.255 78.5078C220.667 78.1383 220.301 77.5011 220.276 76.8066C220.282 76.7279 220.282 76.6488 220.276 76.5701C220.136 76.1642 219.931 75.7838 219.669 75.4435C219.354 75.6801 218.893 76.0856 218.544 76.4123C218.195 76.739 217.655 77.1897 217.16 77.5389C216.125 78.3613 214.303 81.4819 213.391 83.2506C213.285 83.4526 213.12 83.6176 212.919 83.7238L185.671 98.3693C185.125 98.6804 184.429 98.4887 184.119 97.9412C183.808 97.3937 184 96.6976 184.546 96.3865L211.546 81.9326C212.176 80.806 214.213 77.0545 215.754 75.8152C216.226 75.4435 216.654 75.0604 217.048 74.6887C218.173 73.6522 219.061 72.9087 220.018 72.9875C220.457 73.0122 220.865 73.2207 221.143 73.5621C221.734 74.2487 222.185 75.0448 222.47 75.9054C222.518 76.0559 222.552 76.2105 222.571 76.3673C223.495 75.9203 224.373 75.3846 225.193 74.7675L225.575 74.5084C225.254 74.2105 225.04 73.8143 224.968 73.3818C224.904 72.9316 225.117 72.4872 225.508 72.2553C226.556 71.5988 227.842 71.442 229.018 71.8272C229.891 72.1369 230.591 72.8049 230.941 73.6635C231.34 74.5911 231.34 75.6424 230.941 76.5701C230.626 77.1934 230.22 77.7667 229.738 78.2712C229.386 78.6254 229.097 79.0368 228.883 79.4879C228.81 79.7826 228.776 80.0856 228.781 80.3891C228.792 82.1218 228.479 83.8412 227.859 85.4587C226.329 89.0412 222.234 90.3143 218.859 91.3395L217.239 91.8577C209.96 97.4906 187.156 115.144 183.309 115.144Z" fill="#093F68"/>
<path d="M149.75 93.0518C173.51 127.322 189.879 112.451 189.879 112.451C189.586 110.638 188.866 106.819 188.506 105.016C187.932 102.019 187.291 99.0227 186.841 96.0034L185.075 96.961C185.075 96.961 173.431 88.2864 164.645 80.3666" fill="#080C20"/>
<path d="M180.125 116.789C179.373 116.791 178.622 116.75 177.875 116.665C168.358 115.538 158.548 107.844 148.738 93.694C148.508 93.362 148.474 92.9327 148.646 92.568C148.819 92.2033 149.173 91.9585 149.574 91.9259C149.976 91.8932 150.365 92.0777 150.594 92.4097C159.853 105.771 169.359 113.387 178.066 114.412C181.748 114.944 185.495 114.081 188.574 111.99C188.248 110.097 187.663 106.965 187.314 105.23L186.943 103.337C186.583 101.512 186.2 99.6423 185.896 97.7046L185.514 97.9074C185.129 98.1137 184.66 98.0786 184.31 97.8173C184.198 97.7271 172.52 89.03 163.801 81.1552C163.339 80.7411 163.299 80.0306 163.711 79.5668C163.912 79.3427 164.194 79.2083 164.494 79.1935C164.794 79.1787 165.087 79.2847 165.309 79.4879C172.858 86.2473 182.634 93.7391 185.086 95.5867L186.211 94.967C186.535 94.7944 186.922 94.7905 187.249 94.9564C187.576 95.1224 187.802 95.4374 187.854 95.8007C188.203 98.144 188.675 100.532 189.136 102.842L189.519 104.734C189.901 106.717 190.644 110.457 190.891 112.215C190.953 112.59 190.822 112.971 190.543 113.229C187.59 115.593 183.905 116.852 180.125 116.789Z" fill="#093F68"/>
<path fill-rule="evenodd" clip-rule="evenodd" d="M234.699 93.018C234.885 93.1433 235.104 93.21 235.329 93.2095C235.563 93.208 235.791 93.1332 235.981 92.9955C236.364 92.7245 236.539 92.2442 236.42 91.79L235.025 86.4501C234.931 86.0966 234.672 85.8107 234.33 85.683C233.988 85.5554 233.605 85.6019 233.304 85.8079L230.052 88.0611C229.747 88.2735 229.566 88.6235 229.569 88.9961C229.574 89.369 229.764 89.7149 230.075 89.9199L234.699 93.018ZM233.495 89.5031L232.696 88.9623L233.259 88.5793L233.495 89.5031Z" fill="#093F68"/>
<path d="M302.019 195.604C302.019 195.604 294.695 180.643 295.719 170.538C299.856 172.82 302.976 176.588 304.449 181.082C308.78 193.126 307.824 195.615 307.824 195.615L302.019 195.604Z" fill="#080C20"/>
<path fill-rule="evenodd" clip-rule="evenodd" d="M302.019 196.742H307.779C308.237 196.744 308.651 196.468 308.825 196.043C309.016 195.559 309.77 192.562 305.506 180.711C302.536 172.487 296.439 169.636 296.18 169.524C295.85 169.377 295.469 169.398 295.156 169.58C294.842 169.759 294.633 170.077 294.594 170.436C293.559 180.745 300.702 195.491 301.017 196.111C301.205 196.494 301.593 196.738 302.019 196.742ZM306.766 194.489H302.739L302.75 194.477C301.49 191.762 296.709 180.846 296.742 172.453C299.824 174.708 302.144 177.853 303.391 181.466C306.294 189.521 306.766 193.126 306.766 194.489Z" fill="#093F68"/>
<path d="M305.506 194.883C305.506 194.883 300.005 173.557 307.914 159.272C307.914 159.272 312.47 164.499 313.539 177.117C314.125 183.138 312.99 189.202 310.265 194.601L305.506 194.883Z" fill="#080C20"/>
<path fill-rule="evenodd" clip-rule="evenodd" d="M304.381 195.165C304.513 195.675 304.98 196.026 305.506 196.01H305.551L310.31 195.683C310.679 195.656 311.011 195.45 311.199 195.131C314.057 189.552 315.252 183.267 314.641 177.027C313.539 164.173 308.926 158.765 308.724 158.54C308.483 158.262 308.122 158.119 307.757 158.157C307.392 158.195 307.068 158.41 306.89 158.731C298.857 173.23 304.156 194.275 304.381 195.165ZM306.384 193.689C305.517 189.656 302.502 173.467 308.049 161.491C309.399 163.778 311.75 168.803 312.436 177.218C312.929 182.799 311.939 188.412 309.567 193.486L306.384 193.689Z" fill="#093F68"/>
<path d="M307.88 194.207C307.88 194.207 309.59 179.978 321.076 170.684C321.076 170.684 324.451 181.285 314.968 195.469L307.88 194.207Z" fill="#080C20"/>
<path fill-rule="evenodd" clip-rule="evenodd" d="M314.776 196.595C314.84 196.606 314.904 196.606 314.967 196.595C315.338 196.601 315.687 196.424 315.901 196.122C325.587 181.634 322.291 170.819 322.145 170.369C322.034 170.014 321.754 169.737 321.399 169.629C321.043 169.52 320.657 169.595 320.367 169.828C308.656 179.302 306.834 193.497 306.766 194.106C306.698 194.698 307.102 195.242 307.689 195.345L314.776 196.595ZM314.439 194.23L309.174 193.295C309.792 190.095 312.267 180.17 320.356 172.825C320.806 176.204 320.907 184.248 314.439 194.23Z" fill="#093F68"/>
<path d="M315.755 210.204H301.287L299.15 192.574H317.892L315.755 210.204Z" fill="#080C20"/>
<path fill-rule="evenodd" clip-rule="evenodd" d="M301.288 211.331H315.755C316.312 211.332 316.785 210.925 316.869 210.373L318.995 192.709C319.034 192.391 318.936 192.071 318.725 191.83C318.512 191.587 318.204 191.447 317.881 191.447H299.139C298.816 191.447 298.508 191.587 298.295 191.83C298.084 192.071 297.986 192.391 298.025 192.709L300.163 210.34C300.231 210.909 300.715 211.335 301.288 211.331ZM314.72 209.078H302.255L300.388 193.7H316.588L314.72 209.078Z" fill="#093F68"/>
<path d="M325.621 211.331H122.379C121.757 211.331 121.254 210.827 121.254 210.204C121.254 209.582 121.757 209.078 122.379 209.078H325.621C326.243 209.078 326.746 209.582 326.746 210.204C326.746 210.827 326.243 211.331 325.621 211.331Z" fill="#093F68"/>
<path d="M1.52399 110.609H32.319V114.027C32.319 119.832 27.5718 124.538 21.7158 124.538H12.1273C6.27123 124.538 1.52399 119.832 1.52399 114.027V110.609Z" fill="#093F68"/>
<path fill-rule="evenodd" clip-rule="evenodd" d="M12.1273 125.564H21.7158C28.143 125.559 33.3535 120.398 33.3649 114.027V110.609C33.3649 110.042 32.9013 109.582 32.3294 109.582H1.524C0.952124 109.582 0.488525 110.042 0.488525 110.609V114.027C0.499924 120.394 5.7041 125.553 12.1273 125.564ZM2.55948 114.027V111.635H31.2939V114.027C31.2882 119.267 27.0016 123.511 21.7158 123.511H12.1273C6.84549 123.506 2.56518 119.263 2.55948 114.027Z" fill="#093F68"/>
<path d="M49.6943 51.7503C49.7046 37.78 40.5871 25.4118 27.1572 21.1777C13.7273 16.9437 -0.922214 21.819 -9.05436 33.2287C-17.1865 44.6384 -16.9285 59.9549 -8.41659 71.0891C-2.15708 79.2474 1.23932 89.2111 1.25476 99.461H33.4684C33.3711 89.3229 36.6829 79.4414 42.8809 71.3766C47.2953 65.7702 49.6935 58.8623 49.6943 51.7503Z" fill="#080C20"/>
<path fill-rule="evenodd" clip-rule="evenodd" d="M1.25476 100.488H33.4684C33.743 100.488 34.0064 100.379 34.2006 100.187C34.3948 99.9944 34.5039 99.7333 34.5039 99.461C34.4314 89.5788 37.665 79.9515 43.6989 72.0848C48.2774 66.2924 50.7542 59.1399 50.7298 51.7811C50.7281 37.3736 41.3181 24.6249 27.4663 20.2636C13.6145 15.9022 -1.49171 20.9318 -9.87942 32.6978C-18.2671 44.4637 -18.0063 60.2586 -9.23461 71.7461C-3.13729 79.7249 0.180489 89.4513 0.219288 99.461C0.219288 100.028 0.682884 100.488 1.25476 100.488ZM32.4433 98.4346H2.27988C2.01576 88.3067 -1.45455 78.5177 -7.63997 70.4527C-14.5752 61.3731 -15.9337 49.2563 -11.1788 38.8887C-6.424 28.5211 3.67948 21.57 15.1405 20.7814C23.8094 20.1288 32.3574 23.1073 38.7079 28.9932C45.0462 34.8659 48.6485 43.078 48.6589 51.6784C48.6832 58.5803 46.3594 65.2887 42.0629 70.7196C35.9375 78.6943 32.5646 88.412 32.4433 98.4346Z" fill="#093F68"/>
<rect x="-2.64899" y="108.402" width="39.1513" height="8.86879" rx="3.62" fill="#080C20"/>
<path fill-rule="evenodd" clip-rule="evenodd" d="M1.09945 118.297H32.7229C35.365 118.297 37.5068 116.174 37.5068 113.555V112.118C37.5068 109.498 35.365 107.375 32.7229 107.375H1.09945C-1.54262 107.375 -3.68445 109.498 -3.68445 112.118V113.555C-3.68445 116.174 -1.54262 118.297 1.09945 118.297ZM-1.64456 112.118C-1.64456 110.632 -0.429933 109.428 1.06839 109.428H32.7229C34.2212 109.428 35.4358 110.632 35.4358 112.118V113.555C35.4302 115.038 34.2188 116.238 32.7229 116.244H1.06839C-0.429933 116.244 -1.64456 115.04 -1.64456 113.555V112.118Z" fill="#093F68"/>
<rect x="-2.64899" y="99.5329" width="39.1513" height="8.86879" rx="3.62" fill="#080C20"/>
<path fill-rule="evenodd" clip-rule="evenodd" d="M1.09945 109.428H32.7229C35.365 109.428 37.5068 107.305 37.5068 104.686V103.249C37.5068 100.63 35.365 98.5064 32.7229 98.5064H1.09945C-1.54262 98.5064 -3.68445 100.63 -3.68445 103.249V104.686C-3.68445 107.305 -1.54262 109.428 1.09945 109.428ZM-1.64456 103.249C-1.64456 101.763 -0.429933 100.559 1.06839 100.559H32.7229C34.2188 100.565 35.4302 101.766 35.4358 103.249V104.686C35.4358 105.399 35.15 106.083 34.6412 106.587C34.1325 107.092 33.4424 107.375 32.7229 107.375H1.06839C0.348868 107.375 -0.341181 107.092 -0.849957 106.587C-1.35873 106.083 -1.64456 105.399 -1.64456 104.686V103.249Z" fill="#093F68"/>
<rect x="-2.64899" y="90.6641" width="39.1513" height="8.86879" rx="3.62" fill="#080C20"/>
<path fill-rule="evenodd" clip-rule="evenodd" d="M1.09945 100.559H32.7229C35.365 100.559 37.5068 98.4362 37.5068 95.817V94.38C37.5068 91.7609 35.365 89.6376 32.7229 89.6376H1.09945C-1.54262 89.6376 -3.68445 91.7609 -3.68445 94.38V95.817C-3.68445 98.4362 -1.54262 100.559 1.09945 100.559ZM-1.64456 94.38C-1.64456 92.8947 -0.429933 91.6906 1.06839 91.6906H32.7229C34.2188 91.6962 35.4302 92.897 35.4358 94.38V95.817C35.4358 97.3023 34.2212 98.5064 32.7229 98.5064H1.06839C-0.429933 98.5064 -1.64456 97.3023 -1.64456 95.817V94.38Z" fill="#093F68"/>
<path d="M19.6862 33.3968L24.9982 44.0312L36.8648 45.7762C37.8433 45.9135 38.6576 46.5911 38.9635 47.5227C39.2694 48.4543 39.0136 49.4772 38.3041 50.1592L29.72 58.4635L31.791 70.1859C31.9605 71.1502 31.5618 72.126 30.7633 72.7018C29.9647 73.2775 28.9054 73.3527 28.0322 72.8958L17.4186 67.363L6.79457 72.8958C5.92138 73.3527 4.86201 73.2775 4.06346 72.7018C3.26492 72.126 2.8663 71.1502 3.03579 70.1859L5.10675 58.4635L-3.4877 50.1592C-4.19716 49.4772 -4.45298 48.4543 -4.14708 47.5227C-3.84117 46.5911 -3.0269 45.9135 -2.04839 45.7762L9.72497 44.0312L15.037 33.366C15.4776 32.4893 16.3832 31.9377 17.3713 31.9443C18.3593 31.9508 19.2575 32.5144 19.6862 33.3968Z" fill="#093F68"/>
<path fill-rule="evenodd" clip-rule="evenodd" d="M3.39818 73.5322C4.01987 73.9755 4.76542 74.2159 5.53126 74.2199C6.13406 74.2248 6.72852 74.0801 7.2605 73.7991L17.4082 68.5127L27.5455 73.7991C28.7624 74.427 30.2326 74.3199 31.3439 73.5225C32.4551 72.7251 33.0169 71.374 32.7953 70.0319L30.859 58.8433L39.06 50.9188C40.067 49.9665 40.435 48.5267 40.0068 47.214C39.5786 45.9013 38.43 44.9475 37.0511 44.76L25.6609 43.1279L20.5974 32.9452C20.003 31.6971 18.7383 30.8985 17.346 30.8922C15.9508 30.8971 14.6822 31.6955 14.0843 32.9452L9.04152 43.1073L-2.29694 44.7394C-3.67575 44.927 -4.82441 45.8807 -5.25258 47.1935C-5.68075 48.5062 -5.31278 49.946 -4.30577 50.8983L3.8952 58.8227L1.95886 70.0114C1.72228 71.361 2.28052 72.7266 3.39818 73.5322ZM15.9689 33.8587C16.2243 33.3248 16.7707 32.9877 17.3667 32.9965V32.976C17.9567 32.9694 18.4974 33.3014 18.7543 33.8279L24.0663 44.5033C24.2183 44.8027 24.5082 45.0096 24.8429 45.0576L36.637 46.8129C37.2212 46.8879 37.7114 47.2862 37.9002 47.8394C38.0892 48.3993 37.9314 49.0169 37.4964 49.4202L28.9123 57.7244C28.6657 57.9608 28.5533 58.3029 28.612 58.638L30.683 70.3604C30.786 70.9399 30.5444 71.5267 30.0617 71.8693C29.5861 72.2224 28.946 72.2665 28.4256 71.9822L17.8016 66.4495C17.5002 66.2925 17.1401 66.2925 16.8387 66.4495L6.21467 71.9822C5.69133 72.2568 5.05602 72.2125 4.57657 71.8681C4.09713 71.5236 3.85697 70.9389 3.95733 70.3604L6.02828 58.638C6.08702 58.3029 5.97456 57.9608 5.728 57.7244L-2.8561 49.4202C-3.28033 49.0114 -3.43343 48.3992 -3.25096 47.8413C-3.0685 47.2834 -2.58215 46.8767 -1.99665 46.7924L9.88025 45.0782C10.2149 45.0302 10.5048 44.8232 10.6569 44.5239L15.9689 33.8587Z" fill="#093F68"/>
<path d="M12.4793 48.1371C12.3215 48.1377 12.1657 48.1026 12.0237 48.0344C11.7762 47.915 11.5868 47.7028 11.4974 47.4447C11.4081 47.1866 11.426 46.9039 11.5474 46.6589L15.9999 37.6978C16.2743 37.2339 16.8632 37.0585 17.35 37.2958C17.8368 37.533 18.0564 38.1024 17.8534 38.6011L13.4112 47.5622C13.237 47.9147 12.8753 48.1378 12.4793 48.1371Z" fill="#080C20"/>
<path d="M64.8226 87.5128C64.6601 87.5148 64.4999 87.4759 64.3566 87.3999L53.3081 81.7851C53.0615 81.662 52.8747 81.4465 52.7891 81.1863C52.7036 80.9261 52.7264 80.6428 52.8525 80.3993C52.9784 80.1567 53.1967 79.9737 53.459 79.8909C53.7213 79.8081 54.0061 79.8322 54.2504 79.9579L65.2989 85.5728C65.5455 85.6958 65.7323 85.9114 65.8179 86.1716C65.9034 86.4318 65.8806 86.7151 65.7545 86.9585C65.5745 87.303 65.2139 87.5175 64.8226 87.5128Z" fill="#093F68"/>
<path d="M56.0625 41.6702C55.6925 41.7271 55.3201 41.5839 55.0855 41.2948C54.8509 41.0056 54.7897 40.6143 54.925 40.2683C55.0603 39.9223 55.3715 39.6741 55.7415 39.6173L68.25 35.5113C68.6015 35.3958 68.9884 35.4749 69.265 35.7189C69.5417 35.9628 69.666 36.3346 69.5912 36.694C69.5164 37.0535 69.2538 37.3461 68.9024 37.4616L56.3938 41.5676C56.2888 41.6171 56.1773 41.6517 56.0625 41.6702Z" fill="#093F68"/>
<path d="M17.3668 15.0741C16.7949 15.0741 16.3313 14.6145 16.3313 14.0476V1.83251C16.3313 1.2656 16.7949 0.80603 17.3668 0.80603C17.9387 0.80603 18.4023 1.2656 18.4023 1.83251V14.0476C18.4023 14.6145 17.9387 15.0741 17.3668 15.0741Z" fill="#093F68"/>
<path d="M-28.7637 127.987H-4.55424C2.93225 127.987 5.06533 137.225 14.7574 138.108C24.4494 138.991 38.5008 136.332 41.4209 140.017C44.3409 143.702 43.8853 147.983 40.9653 150.508C40.9653 150.508 55.0063 138.611 58.0506 135.911C63.228 131.374 71.3358 135.398 65.4957 146.967C59.6556 158.535 37.952 174.096 28.1047 176.262C18.2573 178.428 -31.8908 175.236 -31.8908 175.236L-28.7637 127.987Z" fill="#080C20"/>
<path fill-rule="evenodd" clip-rule="evenodd" d="M-31.9633 176.283C-30.4411 176.385 -3.78799 178.048 14.0843 178.048C20.4214 178.048 25.6817 177.843 28.3325 177.237C38.8011 174.928 60.6704 158.812 66.4276 147.398C70.8077 138.703 67.2871 135.09 66.1066 134.197C63.6629 132.349 60.0698 132.729 57.3672 135.121C55.3998 136.856 48.7728 142.501 44.3823 146.227C44.6136 143.747 43.8427 141.278 42.2389 139.36C40.0541 136.599 33.6859 136.825 26.3133 137.092C22.4994 137.324 18.6748 137.324 14.8609 137.092C10.1702 136.65 7.35373 134.115 4.67185 131.682C1.98997 129.25 -0.546951 126.96 -4.55424 126.96H-28.7223C-29.267 126.959 -29.7196 127.376 -29.7577 127.915L-32.9366 175.195C-32.9549 175.469 -32.8617 175.739 -32.6778 175.944C-32.4943 176.146 -32.2373 176.268 -31.9633 176.283ZM27.8665 175.267C19.0443 177.207 -23.5449 174.743 -30.7932 174.302L-27.7593 129.065H-4.5646C-1.37602 129.065 0.763657 130.991 3.23789 133.219L3.2636 133.243L3.26514 133.244C6.0916 135.799 9.28069 138.683 14.6538 139.186C18.5607 139.428 22.4789 139.428 26.3858 139.186C32.6193 138.96 39.0704 138.734 40.5925 140.664C43.0673 143.795 42.9327 147.439 40.2715 149.748C39.9788 149.985 39.8392 150.36 39.907 150.729C39.9749 151.097 40.2395 151.399 40.5976 151.518C40.9557 151.636 41.3506 151.552 41.628 151.298C41.7626 151.185 55.7208 139.36 58.734 136.691C60.6911 134.967 63.0313 134.515 64.833 135.87C66.6347 137.225 67.4838 140.726 64.5638 146.525C58.6305 158.278 37.0408 173.214 27.8665 175.267Z" fill="#093F68"/>
<path d="M21.6847 155.917C14.8091 155.917 7.97497 155.456 7.55043 155.425C6.98219 155.386 6.55194 154.9 6.58744 154.337C6.606 154.064 6.73334 153.81 6.94128 153.631C7.14922 153.452 7.42061 153.362 7.69539 153.382C7.85072 153.382 23.5485 154.409 31.2835 153.382C38.4283 152.356 40.0022 150.025 40.023 150.005C40.3143 149.524 40.9417 149.364 41.4312 149.646C41.9159 149.923 42.0901 150.533 41.8247 151.021C41.6383 151.35 39.7537 154.285 31.5631 155.414C28.2843 155.788 24.9849 155.956 21.6847 155.917Z" fill="#093F68"/>
<path d="M48.4735 452.237V417.119C48.4735 401.441 35.7578 388.73 20.0681 388.724H-7.06814C-22.7578 388.73 -35.4736 401.441 -35.4736 417.119V452.237H48.4735Z" fill="#080C20"/>
<path fill-rule="evenodd" clip-rule="evenodd" d="M-35.4736 453.36H48.4735C49.0939 453.36 49.5967 452.857 49.5967 452.237V417.119C49.5844 400.827 36.373 387.62 20.0681 387.602H-7.06812C-23.373 387.62 -36.5844 400.827 -36.5967 417.119V452.237C-36.5967 452.857 -36.0939 453.36 -35.4736 453.36ZM47.3504 451.115H-34.3504V417.119C-34.338 402.066 -22.1324 389.865 -7.06812 389.846H20.0681C35.1324 389.865 47.338 402.066 47.3504 417.119V451.115Z" fill="#093F68"/>
<path d="M8.37575 453.36C7.75543 453.36 7.25256 452.857 7.25256 452.237V390.509C7.25256 389.889 7.75543 389.386 8.37575 389.386C8.99607 389.386 9.49894 389.889 9.49894 390.509V452.237C9.49894 452.857 8.99607 453.36 8.37575 453.36Z" fill="#093F68"/>
<path d="M38.1964 447.512C37.671 447.529 37.2043 447.179 37.0732 446.671L25.3583 401.328C25.2203 400.929 25.3181 400.486 25.6114 400.182C25.9048 399.878 26.344 399.765 26.7481 399.888C27.1522 400.011 27.4529 400.351 27.5261 400.767L39.2859 446.154C39.435 446.752 39.074 447.358 38.4772 447.512C38.3843 447.528 38.2893 447.528 38.1964 447.512Z" fill="#093F68"/>
<path d="M39.4768 453.651C40.9161 455.166 42.8225 456.154 44.8906 456.457C49.3834 456.996 53.6515 453.236 54.9993 448.87C56.3471 444.504 55.6058 439.768 54.4602 435.335C53.0674 429.948 52.1015 424.572 47.4065 421.306C42.9924 418.242 37.2979 415.29 33.3442 420.823C29.3906 426.356 33.2094 437.916 34.7931 444.011C35.3906 446.791 36.462 449.449 37.9605 451.867C38.4111 452.506 38.9186 453.104 39.4768 453.651Z" fill="#080C20"/>
<path fill-rule="evenodd" clip-rule="evenodd" d="M44.767 457.568C45.1134 457.613 45.4623 457.636 45.8116 457.636C50.7536 457.636 54.7971 453.449 56.0888 449.218C57.6276 444.437 56.6953 439.375 55.5721 435.054L55.2015 433.607L55.2013 433.606C53.9658 428.69 52.6853 423.595 48.0692 420.385C45.1826 418.376 37.5 413.034 32.4457 420.172C28.6942 425.526 31.3786 435.593 33.187 442.26C33.3779 442.989 33.5576 443.674 33.7261 444.291C34.3599 447.206 35.5003 449.986 37.0957 452.507C37.5622 453.205 38.0964 453.855 38.6906 454.448C40.3046 456.145 42.4467 457.245 44.767 457.568ZM34.3102 421.474C35.2774 419.863 37.0119 418.869 38.8919 418.848C40.9904 418.851 43.5707 419.974 46.8899 422.226C50.821 424.964 51.9442 429.42 53.1236 434.156L53.4942 435.615C54.5388 439.622 55.4149 444.302 54.0558 448.534C52.8428 452.26 49.1587 455.829 45.0703 455.346C43.2566 455.067 41.5884 454.19 40.3305 452.855C39.8286 452.365 39.3805 451.823 38.9939 451.238C37.5654 448.926 36.5436 446.387 35.9725 443.73C35.8851 443.381 35.7873 443.014 35.6849 442.63C35.603 442.323 35.5182 442.005 35.4334 441.676C33.7935 435.795 31.1315 425.963 34.3102 421.474ZM38.8919 418.848C38.8922 418.848 38.8925 418.848 38.8928 418.848H38.8815C38.885 418.848 38.8885 418.848 38.8919 418.848Z" fill="#093F68"/>
<path d="M66.9837 342.226C66.9837 377.22 39.9036 392.372 6.49999 392.372C-26.9036 392.372 -53.9725 377.22 -53.9725 342.226C-53.9725 307.231 -26.9036 271.282 6.49999 271.282C39.9036 271.282 66.9837 307.242 66.9837 342.226Z" fill="#093F68"/>
<path fill-rule="evenodd" clip-rule="evenodd" d="M-55.0956 342.226C-55.0956 374.336 -32.0703 393.494 6.50001 393.494C45.0703 393.494 68.1069 374.324 68.1069 342.226C68.1069 308.207 41.7569 270.16 6.50001 270.16C-28.7569 270.16 -55.0956 308.207 -55.0956 342.226ZM-52.8493 342.226C-52.8493 302.27 -21.5123 272.405 6.50001 272.405C34.5797 272.405 65.8605 302.27 65.8605 342.226C65.8605 372.922 43.6663 391.249 6.50001 391.249C-30.6663 391.249 -52.8493 372.922 -52.8493 342.226Z" fill="#093F68"/>
<path d="M55.0442 320.699C54.9965 323.183 54.7863 325.661 54.4152 328.118C52.7836 338.815 49.9697 349.298 46.025 359.375C44.2055 363.999 42.0602 368.679 38.3873 372.035C35.4062 374.486 32.0449 376.434 28.4359 377.804C17.5634 382.551 5.51162 386.906 -5.91121 383.73C-17.334 380.553 -25.567 370.43 -31.0819 359.902C-37.3657 347.882 -41.1843 334.73 -42.3137 321.215C-42.9877 313.157 -41.8645 303.258 -37.821 296.109C-36.0232 292.796 -33.5148 289.922 -30.4753 287.691C-28.7456 286.468 -20.5576 284.515 -19.9511 283.449C-13.5714 272.225 2.86089 269.543 13.5312 272.225C37.9493 278.488 55.4373 295.918 55.0442 320.699Z" fill="#080C20"/>
<path fill-rule="evenodd" clip-rule="evenodd" d="M-6.2145 384.807C-3.45455 385.558 -0.606155 385.936 2.25434 385.929C11.1388 385.929 20.2254 382.607 28.8851 378.791C32.7826 377.085 36.242 375.458 39.1398 372.821C42.9699 369.319 45.2163 364.459 47.0696 359.734C51.0371 349.581 53.8624 339.018 55.4935 328.241C55.8794 325.733 56.097 323.202 56.1449 320.665C56.5268 296.872 40.2743 277.871 13.7333 271.136C7.49413 269.661 0.982159 269.792 -5.1924 271.518C-10.2131 272.91 -17.0196 276.007 -20.917 282.741C-22.4447 283.47 -24.0301 284.07 -25.6569 284.537C-27.5764 285.068 -29.4273 285.821 -31.1717 286.782C-34.3326 289.106 -36.9407 292.099 -38.8094 295.547C-42.4935 302.113 -44.212 311.743 -43.4145 321.294C-42.2467 334.957 -38.3836 348.254 -32.0478 360.419C-25.1739 373.584 -16.2333 382.024 -6.2145 384.807ZM-19.0188 284.01C-14.5261 276.142 -4.28261 272.393 5.21956 272.393C7.92043 272.37 10.6139 272.679 13.2391 273.314C38.6793 279.835 54.2804 298.005 53.921 320.632C53.8788 323.067 53.6725 325.497 53.3033 327.904C51.685 338.518 48.8898 348.919 44.9692 358.915C43.2395 363.393 41.1167 367.972 37.6235 371.159C34.9841 373.617 31.6931 375.155 27.9866 376.771C16.9344 381.597 5.20833 385.649 -5.60798 382.652C-17.4913 379.353 -25.4772 368.174 -30.0823 359.386C-36.2871 347.493 -40.0703 334.489 -41.213 321.126C-41.9656 311.99 -40.3482 302.843 -36.8888 296.647C-35.1721 293.483 -32.7746 290.738 -29.8688 288.611C-28.2879 287.839 -26.6416 287.208 -24.9493 286.726C-20.9507 285.401 -19.513 284.863 -19.0188 284.01Z" fill="#093F68"/>
<ellipse cx="46.5529" cy="354.167" rx="13.8714" ry="11.9417" fill="#080C20"/>
<path fill-rule="evenodd" clip-rule="evenodd" d="M31.5583 354.167C31.5583 361.373 38.2862 367.231 46.5529 367.231C54.7971 367.231 61.5362 361.283 61.5362 354.122C61.5362 346.962 54.8083 341.103 46.5529 341.103C38.2975 341.103 31.5583 346.962 31.5583 354.167ZM33.8047 354.167C33.8047 348.208 39.5218 343.348 46.5529 343.348C53.5728 343.348 59.2899 348.107 59.2899 354.122C59.2899 360.138 53.5841 364.987 46.5529 364.987C39.5218 364.987 33.8047 360.127 33.8047 354.167Z" fill="#093F68"/>
<path d="M44.4525 328.567C49.5069 334.885 48.159 342.293 48.159 350.172C48.159 373.249 29.4372 391.956 6.34273 391.956C-16.7518 391.956 -35.4736 373.249 -35.4736 350.172C-35.4736 329.016 -21.1305 315.211 -1.71053 308.645C-2.88766 313.757 -5.85567 318.279 -10.0783 321.395C3.33333 323.326 16.9861 320.236 28.2561 312.719C26.7174 313.763 42.3072 326.187 43.3743 327.31C43.7674 327.747 44.1268 328.151 44.4525 328.567Z" fill="#080C20"/>
<path fill-rule="evenodd" clip-rule="evenodd" d="M-36.5967 350.172C-36.572 373.856 -17.3705 393.053 6.33152 393.09C30.0204 393.065 49.2266 373.899 49.2822 350.228C49.2822 349.533 49.3021 348.845 49.3219 348.16C49.3415 347.484 49.3609 346.812 49.3609 346.143C49.563 339.622 49.754 333.449 45.3399 327.927C45.0029 327.478 44.4975 326.894 44.2167 326.614C43.9513 326.349 43.2045 325.713 41.7109 324.441L41.4424 324.212C38.3536 321.586 30.4913 314.885 29.3681 312.989C29.4509 312.684 29.3932 312.359 29.2109 312.102C29.0461 311.853 28.7887 311.679 28.4956 311.62C28.2026 311.562 27.8981 311.622 27.6496 311.788C17.3446 318.649 4.98996 321.756 -7.33768 320.587C-3.98195 317.437 -1.63665 313.363 -0.598553 308.881C-0.493698 308.471 -0.628304 308.037 -0.946739 307.758C-1.24968 307.48 -1.68059 307.39 -2.06993 307.523C-24.017 314.998 -36.5967 330.531 -36.5967 350.172ZM-34.3504 350.172C-34.3504 339.487 -30.3293 320.362 -3.37283 310.418C-4.76047 314.459 -7.34605 317.982 -10.7859 320.519C-11.1485 320.789 -11.3141 321.249 -11.2062 321.688C-11.0984 322.126 -10.738 322.458 -10.2917 322.528C2.89581 324.423 16.3278 321.571 27.6047 314.481C28.8514 316.187 32.0975 319.251 39.9598 325.907C40.1364 326.056 40.3117 326.204 40.4829 326.348C41.5096 327.214 42.3923 327.959 42.5656 328.151C42.9232 328.506 43.2607 328.881 43.5764 329.274C47.4851 334.156 47.3167 339.655 47.1145 346.019C47.0359 347.388 47.0359 348.769 47.0359 350.172C47.0359 372.629 28.8169 390.834 6.34275 390.834C-16.1314 390.834 -34.3504 372.629 -34.3504 350.172Z" fill="#093F68"/>
<ellipse cx="23.4377" cy="360.419" rx="3.76268" ry="3.75984" fill="#093F68"/>
<path d="M6.30907 367.86C5.05285 367.851 3.799 367.749 2.55762 367.557C2.26414 367.505 2.00337 367.338 1.83273 367.094C1.66209 366.85 1.59558 366.548 1.64784 366.255C1.69985 365.962 1.86638 365.701 2.11075 365.531C2.35512 365.36 2.6573 365.294 2.95074 365.346C4.87424 365.652 6.83412 365.652 8.75762 365.346C9.06088 364.313 7.63443 360.104 5.51161 356.12C5.2309 355.574 5.44104 354.904 5.98335 354.616C6.53235 354.328 7.21108 354.539 7.49965 355.088C8.55545 357.097 11.8913 363.853 10.7681 366.311C10.5216 366.877 10.0218 367.293 9.4203 367.433C8.40427 367.701 7.35958 367.844 6.30907 367.86Z" fill="#093F68"/>
<path d="M-2.2047 341.283H-2.48549L-20.7373 339.038C-21.9779 338.886 -22.8605 337.758 -22.7085 336.518C-22.5565 335.279 -21.4276 334.397 -20.1869 334.549L-1.9239 336.793C-0.683262 336.871 0.259617 337.939 0.182077 339.178C0.104538 340.418 -0.964058 341.36 -2.2047 341.283Z" fill="#093F68"/>
<path d="M15.2047 341.283C13.9641 341.36 12.8955 340.418 12.8179 339.178C12.7404 337.939 13.6833 336.871 14.9239 336.793L33.187 334.549C34.4276 334.397 35.5565 335.279 35.7085 336.518C35.8605 337.758 34.978 338.886 33.7373 339.038L15.4855 341.283H15.2047Z" fill="#093F68"/>
<path d="M66.9837 342.226C67.0412 347.845 66.2343 353.439 64.5913 358.814C57.2906 328.163 34.0518 296.737 6.49999 296.737C-21.0518 296.737 -44.2906 328.163 -51.5913 358.814C-53.2343 353.439 -54.0412 347.845 -53.9837 342.226C-53.9837 307.242 -26.8924 271.294 6.49999 271.294C39.8924 271.294 66.9837 307.242 66.9837 342.226Z" fill="#080C20"/>
<path fill-rule="evenodd" clip-rule="evenodd" d="M63.5355 359.083C63.6562 359.572 64.0878 359.921 64.5913 359.936C65.0926 359.949 65.5418 359.628 65.6921 359.15C67.3712 353.667 68.197 347.959 68.1406 342.226C68.1406 308.219 41.7906 270.171 6.53372 270.171C-28.7232 270.171 -55.0732 308.219 -55.0732 342.226C-55.1296 347.959 -54.3037 353.667 -52.6246 359.15C-52.4705 359.626 -52.0207 359.942 -51.521 359.926C-51.0214 359.911 -50.5922 359.567 -50.4681 359.083C-46.7808 343.598 -39.5144 329.191 -29.2511 317.018C-21.6471 308.286 -9.28077 297.859 6.53372 297.859C22.3482 297.859 34.7257 308.286 42.3297 317.018C52.5851 329.195 59.8473 343.6 63.5355 359.083ZM-52.8605 342.226C-52.8605 302.27 -21.5123 272.416 6.50003 272.416C34.5797 272.416 65.8605 302.27 65.8605 342.226C65.8789 346.322 65.4571 350.408 64.6026 354.414C60.5842 340.138 53.5569 326.886 43.9921 315.547C32.6479 302.517 19.675 295.615 6.50003 295.615C-6.67497 295.615 -19.6366 302.495 -30.9808 315.547C-40.5534 326.883 -47.5851 340.136 -51.6025 354.414C-52.4571 350.408 -52.8788 346.322 -52.8605 342.226Z" fill="#093F68"/>
<path d="M21.6069 282.293C21.6069 282.293 40.0833 240.766 54.9206 250.564C69.758 260.362 92.188 293.864 78.0246 297.231C63.8612 300.598 51.2141 272.539 51.2141 272.539L29.4692 288.331" fill="#080C20"/>
<path d="M75.621 298.578C63.4906 298.578 53.3145 279.408 50.7761 274.223L30.087 289.24C29.762 289.476 29.3353 289.522 28.9678 289.359C28.6002 289.196 28.3476 288.849 28.3051 288.45C28.2626 288.05 28.4366 287.658 28.7616 287.422L50.5066 271.608C50.7811 271.406 51.1322 271.34 51.4613 271.428C51.7868 271.518 52.0549 271.748 52.1913 272.057C52.3149 272.326 64.625 299.195 77.7214 296.086C79.6014 295.786 81.0571 294.281 81.2931 292.394C82.9892 282.753 66.4109 259.397 54.3366 251.428C52.4264 250.107 50.0082 249.754 47.7997 250.474C35.5345 254.066 22.7975 282.382 22.6739 282.674C22.4196 283.241 21.7533 283.495 21.1857 283.241C20.6181 282.987 20.3642 282.321 20.6185 281.754C21.1576 280.553 33.9058 252.203 47.1707 248.319C50.0122 247.418 53.1107 247.873 55.5721 249.554C67.287 257.264 85.5163 281.529 83.5395 292.786C83.1554 295.539 81.0513 297.736 78.3167 298.241C77.4347 298.459 76.5298 298.573 75.621 298.578Z" fill="#093F68"/>
<path d="M-13.5938 454.942C-19.6352 456.155 -25.9112 454.919 -31.0406 451.507C-36.1699 448.095 -39.7323 442.786 -40.9435 436.749C-41.6973 432.244 -41.7693 427.651 -41.1569 423.124C-40.8865 420.791 -40.4853 418.476 -39.9551 416.188C-37.6301 406.087 -32.7891 396.839 -25.5446 395.391C-16.4917 393.573 -6.15834 404.527 -0.115585 415.514C0.80241 417.171 1.63101 418.876 2.36666 420.621C3.34937 422.87 4.10199 425.213 4.61304 427.613C7.13403 440.183 -1.01587 452.416 -13.5938 454.942Z" fill="#080C20"/>
<path fill-rule="evenodd" clip-rule="evenodd" d="M-42.0779 436.973C-39.7825 448.33 -29.8048 456.503 -18.2102 456.525C-16.5919 456.524 -14.9778 456.363 -13.3917 456.042C-0.20116 453.398 8.34718 440.57 5.70251 427.389C5.17543 424.916 4.39248 422.505 3.36628 420.195C2.61886 418.411 1.77523 416.668 0.839104 414.976C-5.58553 403.27 -16.3008 392.394 -25.8029 394.291C-35.4623 396.233 -39.7305 410.071 -41.0783 415.93C-41.624 418.257 -42.0328 420.614 -42.3026 422.989C-42.9346 427.635 -42.8588 432.35 -42.0779 436.973ZM-25.3537 396.491C-24.7691 396.375 -24.1749 396.315 -23.579 396.311H-23.5453C-15.5931 396.311 -6.51778 406.21 -1.18264 416.098C-0.283512 417.723 0.530033 419.394 1.25468 421.104C2.22681 423.268 2.97937 425.524 3.50106 427.838C4.65154 433.586 3.46949 439.555 0.215015 444.432C-3.03946 449.309 -8.09968 452.694 -13.8522 453.842C-19.6019 454.999 -25.5757 453.823 -30.4573 450.575C-35.3389 447.326 -38.7275 442.272 -39.8765 436.525C-40.6103 432.138 -40.6784 427.666 -40.0787 423.258C-39.8119 420.964 -39.4182 418.686 -38.8993 416.435C-36.271 405.121 -31.2167 397.613 -25.3537 396.491Z" fill="#093F68"/>
<path d="M-1.3623 419.218C-2.68135 422.838 -3.54533 426.608 -3.9344 430.441C-4.32378 433.958 -4.5559 437.49 -4.63078 441.036C-4.55028 442.601 -4.78322 444.165 -5.31592 445.638C-5.9028 447.132 -7.37218 448.092 -8.97752 448.029C-11.1116 447.726 -12.0551 445.2 -12.4594 443.079C-12.9493 440.483 -13.2757 437.859 -13.4366 435.223C-13.4436 434.304 -13.6069 433.393 -13.9195 432.529C-14.2467 431.651 -15.0428 431.034 -15.975 430.935C-17.4576 430.935 -18.3561 432.551 -19.6478 433.27C-21.6695 434.392 -24.3203 432.911 -25.3761 430.868C-26.4319 428.825 -26.4206 426.379 -26.5891 424.134C-26.5888 423.322 -26.7935 422.523 -27.1844 421.811C-27.608 421.095 -28.4637 420.758 -29.2623 420.991C-29.8347 421.33 -30.2654 421.864 -30.4753 422.495C-31.1605 423.988 -31.958 425.604 -33.4518 426.266C-34.4453 426.64 -35.5338 426.68 -36.5518 426.379C-38.4148 425.885 -40.0376 424.738 -41.1232 423.146C-40.8528 420.814 -40.4516 418.498 -39.9214 416.21C-37.5964 406.109 -32.7554 396.861 -25.5108 395.413C-17.7159 393.842 -10.5275 401.025 -6.11339 406.502C-4.62498 408.359 -3.24491 410.3 -1.98005 412.316C-0.519909 414.639 0.266323 415.38 -0.856865 417.927C-1.05904 418.32 -1.22752 418.747 -1.3623 419.218Z" fill="#080C20"/>
<path fill-rule="evenodd" clip-rule="evenodd" d="M-9.16846 449.151C-8.98893 449.162 -8.80887 449.162 -8.62933 449.151C-6.73122 449.035 -5.0615 447.858 -4.31629 446.109C-3.72647 444.556 -3.45898 442.899 -3.53006 441.238V441.07C-3.46267 437.602 -3.23803 434.078 -2.84491 430.576C-2.45947 426.832 -1.61447 423.149 -0.328972 419.611C-0.171726 419.196 -0.00324631 418.769 0.165234 418.354C1.37583 415.52 0.561649 414.251 -0.658516 412.35L-0.665928 412.338L-1.04781 411.732C-2.33846 409.676 -3.74861 407.697 -5.271 405.806C-12.4594 396.906 -19.3558 393.034 -25.758 394.325C-35.4174 396.266 -39.6855 410.105 -41.0333 415.963C-41.579 418.291 -41.9878 420.648 -42.2576 423.023C-42.2882 423.292 -42.2204 423.563 -42.0667 423.786C-40.8296 425.602 -38.9797 426.913 -36.8551 427.479C-35.5893 427.839 -34.2403 427.776 -33.0138 427.299C-31.0706 426.435 -30.1047 424.358 -29.4869 422.989C-29.3297 422.664 -29.0377 422.114 -28.8692 422.046C-28.7007 421.979 -28.3413 422.136 -28.1503 422.428C-27.8737 422.986 -27.7313 423.601 -27.7348 424.224L-27.6674 425.256C-27.687 427.381 -27.2544 429.485 -26.3982 431.429C-25.5955 432.938 -24.2386 434.076 -22.613 434.605C-21.4558 434.993 -20.1893 434.879 -19.1199 434.291C-18.5658 433.956 -18.0531 433.557 -17.5924 433.101C-16.9185 432.473 -16.4692 432.103 -16.0311 432.103C-15.5402 432.199 -15.138 432.55 -14.9753 433.023C-14.7297 433.707 -14.6007 434.428 -14.5935 435.155V435.335C-14.4244 438.009 -14.0905 440.67 -13.5938 443.304C-12.7514 447.737 -10.7185 448.926 -9.16846 449.151ZM-15.9638 429.824H-16.0536C-17.2652 429.941 -18.3806 430.535 -19.1536 431.474C-19.4954 431.809 -19.872 432.106 -20.2768 432.361C-20.8199 432.638 -21.4524 432.682 -22.029 432.484C-23.0707 432.129 -23.9381 431.39 -24.4551 430.419C-25.1594 428.751 -25.5075 426.954 -25.4772 425.144L-25.5445 424.089C-25.554 423.088 -25.8208 422.106 -26.3195 421.238C-27.0363 420.062 -28.4761 419.544 -29.779 419.992C-30.6136 420.434 -31.2541 421.17 -31.5761 422.058C-32.2275 423.483 -32.8565 424.796 -33.9797 425.267C-34.7487 425.525 -35.5807 425.525 -36.3496 425.267C-37.8139 424.88 -39.109 424.02 -40.0337 422.821C-39.773 420.674 -39.398 418.542 -38.9105 416.435C-36.2822 405.121 -31.2279 397.613 -25.3648 396.491C-19.85 395.38 -13.6949 398.982 -7.0681 407.187C-5.60545 409.012 -4.24794 410.92 -3.00216 412.899L-2.60904 413.517C-1.45216 415.324 -1.21629 415.694 -1.95759 417.456C-2.1373 417.894 -2.31702 418.343 -2.48549 418.792C-3.82184 422.493 -4.69335 426.346 -5.08006 430.262C-5.4844 433.831 -5.72028 437.434 -5.78767 440.958V441.126C-5.72284 442.48 -5.92118 443.833 -6.37172 445.11C-6.76242 446.147 -7.74588 446.841 -8.85397 446.861C-10.4264 446.637 -11.1228 444.224 -11.3924 442.821C-11.8694 440.277 -12.1883 437.705 -12.3471 435.122V434.931C-12.3598 433.952 -12.5462 432.983 -12.8974 432.069C-13.3964 430.789 -14.5921 429.914 -15.9638 429.824Z" fill="#093F68"/>
<path d="M21.5283 415.088C21.1462 415.715 21.1123 416.495 21.4384 417.153C22.0129 417.881 22.8621 418.339 23.7859 418.421C25.8797 418.971 28.068 419.059 30.1993 418.679C31.691 418.461 32.9647 417.489 33.5688 416.109C34.4786 413.315 31.1428 411.036 28.6942 410.868C26.2457 410.7 22.6402 413.023 21.5283 415.088Z" fill="#080C20"/>
<path fill-rule="evenodd" clip-rule="evenodd" d="M23.5612 419.521C24.9917 419.849 26.4519 420.029 27.9192 420.06C28.7714 420.076 29.6228 419.997 30.4576 419.824C32.337 419.506 33.9131 418.229 34.6134 416.457C35.0283 415.195 34.8155 413.811 34.0406 412.731C32.7879 411.023 30.8609 409.935 28.7503 409.746C25.8188 409.544 21.7978 412.226 20.5398 414.549C19.9778 415.518 19.9481 416.707 20.4612 417.703C21.1836 418.728 22.3137 419.39 23.5612 419.521ZM22.4156 416.558C22.2938 416.231 22.3311 415.866 22.5166 415.57C23.4826 413.786 26.7623 411.822 28.5931 411.945C30.0143 412.082 31.3134 412.806 32.1761 413.943C32.5616 414.449 32.6749 415.111 32.4793 415.716C32.075 416.962 30.4351 417.434 29.9522 417.546C27.9751 417.882 25.949 417.79 24.0105 417.276C23.3478 417.142 22.629 416.951 22.4156 416.558Z" fill="#093F68"/>
<path d="M14.2717 424.671L20.7188 420.6L24.4389 426.482L17.9918 430.553L14.2717 424.671Z" fill="#080C20"/>
<path fill-rule="evenodd" clip-rule="evenodd" d="M17.7319 431.687H17.979C18.1887 431.704 18.3989 431.661 18.5855 431.564L25.0326 427.467C25.2843 427.308 25.4624 427.055 25.5277 426.765C25.593 426.474 25.5402 426.17 25.3808 425.918L21.663 420.037C21.5024 419.785 21.2477 419.607 20.9554 419.544C20.6663 419.479 20.3636 419.532 20.113 419.689L13.6659 423.764C13.4142 423.923 13.236 424.175 13.1707 424.466C13.1054 424.756 13.1583 425.061 13.3177 425.312L17.0355 431.182C17.1913 431.436 17.4418 431.618 17.7319 431.687ZM18.3271 429.016L15.8112 425.032L20.3601 422.159L22.8761 426.143L18.3271 429.016Z" fill="#093F68"/>
<path d="M24.471 426.491L53.5279 409.117C54.5464 408.523 55.2796 407.541 55.5592 406.396C55.8387 405.251 55.6407 404.041 55.0105 403.045C54.3803 402.047 53.3717 401.347 52.2156 401.106C51.0596 400.865 49.8551 401.103 48.8779 401.766L20.7083 420.576L24.471 426.491Z" fill="#080C20"/>
<path fill-rule="evenodd" clip-rule="evenodd" d="M23.5275 427.097C23.7337 427.418 24.0891 427.613 24.471 427.613C24.6731 427.617 24.8719 427.562 25.0438 427.456L54.1344 410.116C55.8285 409.094 56.838 407.237 56.7743 405.261C56.7106 403.285 55.5837 401.497 53.8274 400.586C52.071 399.675 49.9592 399.783 48.3051 400.868L20.1355 419.678C19.626 420.017 19.4811 420.7 19.8098 421.216L23.5275 427.097ZM24.7743 424.964L22.2246 420.935L49.4956 402.697C50.2189 402.203 51.1126 402.024 51.9708 402.201C52.829 402.379 53.5778 402.899 54.0445 403.64C54.5055 404.381 54.6462 405.276 54.4345 406.122C54.2228 406.969 53.6769 407.693 52.9214 408.129L24.7743 424.964Z" fill="#093F68"/>
<path d="M10.4049 427.768C9.98848 427.11 10.185 426.238 10.8438 425.822L12.7511 424.618C13.4092 424.202 14.2796 424.399 14.6956 425.056L17.8084 429.979C18.2248 430.637 18.0283 431.509 17.3695 431.925L15.4622 433.129C14.8041 433.544 13.9338 433.348 13.5177 432.69L10.4049 427.768Z" fill="#080C20"/>
<path fill-rule="evenodd" clip-rule="evenodd" d="M12.5203 433.169C13.0104 433.938 13.8542 434.41 14.7667 434.426C15.2942 434.434 15.8129 434.29 16.2605 434.011L17.8667 433C19.1286 432.198 19.5051 430.528 18.709 429.263L15.7775 424.628C15.3943 424.02 14.7834 423.592 14.0815 423.438C13.3808 423.281 12.6464 423.406 12.0373 423.786L10.4311 424.807C9.17057 425.605 8.79379 427.272 9.58875 428.534L12.5203 433.169ZM13.1942 425.683C13.2685 425.637 13.3542 425.614 13.4413 425.615L13.5424 425.627C13.6634 425.651 13.769 425.724 13.8344 425.829L16.7659 430.464C16.897 430.678 16.832 430.958 16.6199 431.092L15.0138 432.114C14.7959 432.246 14.5125 432.181 14.3735 431.968L11.442 427.333C11.3839 427.226 11.3641 427.104 11.3859 426.985C11.4181 426.87 11.4897 426.771 11.588 426.704L13.1942 425.683Z" fill="#093F68"/>
<path d="M10.4424 426.098L15.0587 433.404C15.0587 433.404 14.3623 436.042 9.29674 438.186C8.06121 438.694 6.78822 439.107 5.48913 439.42C-3.05833 441.609 -7.09058 435.234 -7.09058 435.234C-2.59782 437.793 -0.452533 433.606 1.74892 429.095L2.01848 428.534C4.32102 423.865 10.4424 426.098 10.4424 426.098Z" fill="#080C20"/>
<path fill-rule="evenodd" clip-rule="evenodd" d="M-8.10143 435.874C-5.75822 439.117 -1.99573 441.034 2.00727 441.025C3.25416 441.016 4.49521 440.854 5.70255 440.543C7.05508 440.2 8.38033 439.757 9.66741 439.218C15.0812 436.929 15.991 434.022 16.0808 433.696C16.1611 433.395 16.1123 433.074 15.946 432.81L11.3185 425.503C11.1875 425.292 10.9899 425.13 10.7569 425.043C8.30835 424.156 3.11922 423.64 0.951468 428.073L0.670671 428.635L0.665972 428.644C-0.624537 431.279 -2.08339 434.258 -3.9344 434.83C-4.85806 435.031 -5.82397 434.836 -6.59636 434.291C-7.04526 434.036 -7.61075 434.119 -7.96665 434.493C-8.32481 434.867 -8.38049 435.437 -8.10143 435.874ZM5.25328 438.365C2.25573 439.275 -0.991469 438.806 -3.60868 437.086L-3.27172 437.007C-0.482565 436.157 1.20066 432.716 2.68034 429.692L2.69241 429.667L2.97321 429.095C4.5906 425.885 8.51052 426.738 9.71234 427.074L13.7895 433.517C13.3515 434.235 12.116 435.795 8.85871 437.176C7.68846 437.662 6.48325 438.06 5.25328 438.365Z" fill="#093F68"/>
<path d="M-5.85507 429.959C-5.64 430.778 -5.33881 431.572 -4.95652 432.327C-4.27267 433.021 -3.22951 433.218 -2.33949 432.821C-1.52189 432.502 -0.796319 431.985 -0.227893 431.317C0.356165 430.666 0.895296 429.948 1.43443 429.297C1.51758 429.19 1.62554 429.105 1.74892 429.05C2.18696 428.904 2.46776 429.622 2.53515 429.925C2.62833 430.455 2.66598 430.993 2.64747 431.53C2.64747 432.103 2.64747 432.652 2.64747 433.247C2.58542 433.547 2.58542 433.857 2.64747 434.156C2.69214 434.284 2.78486 434.388 2.9058 434.448C3.00943 434.471 3.11667 434.471 3.2203 434.448C3.74819 434.325 4.23117 434.067 4.7703 433.988C5.30913 433.876 5.85514 434.144 6.09566 434.639C6.23044 435.077 5.97211 435.526 5.97211 435.986C5.97657 436.47 6.26126 436.908 6.70218 437.108C7.01843 437.215 7.3466 437.283 7.67935 437.31C8.31358 437.42 8.90036 437.717 9.36414 438.163C8.10739 438.683 6.81174 439.103 5.48914 439.42C0.602701 440.678 -4.56927 438.977 -7.75326 435.066C-8.51211 434.154 -8.87953 432.98 -8.77536 431.8" fill="#080C20"/>
<path d="M2.27683 440.98C-1.96687 441.011 -5.99044 439.096 -8.64056 435.784C-9.58947 434.641 -10.0387 433.165 -9.8873 431.687C-9.80666 431.067 -9.23842 430.63 -8.6181 430.711C-7.99778 430.791 -7.56028 431.359 -7.64092 431.979C-7.70372 432.86 -7.41731 433.731 -6.84346 434.403C-3.94757 437.98 0.776619 439.53 5.23082 438.365L6.12937 438.118C5.30091 437.718 4.78277 436.871 4.804 435.952C4.81443 435.695 4.85207 435.439 4.91632 435.189V435.099H4.84893C4.63225 435.151 4.41854 435.215 4.20871 435.29C3.94574 435.393 3.67541 435.475 3.40002 435.537C3.09177 435.625 2.76479 435.625 2.45654 435.537C2.04563 435.377 1.71735 435.057 1.54676 434.65C1.3942 434.246 1.35157 433.808 1.42321 433.382V432.922C1.42321 432.473 1.42321 432.024 1.42321 431.564V430.991C1.11995 431.373 0.816685 431.743 0.49096 432.114C-0.196676 432.925 -1.07728 433.55 -2.06991 433.932C-3.44132 434.52 -5.03625 434.136 -5.98984 432.989C-6.34634 432.404 -6.61147 431.768 -6.77607 431.104C-6.85469 430.868 -6.92208 430.621 -7.00071 430.397C-7.16886 430.016 -7.11219 429.573 -6.85349 429.247C-6.59479 428.92 -6.17657 428.764 -5.767 428.84C-5.35744 428.917 -5.02384 429.213 -4.90034 429.611C-4.79926 429.892 -4.7094 430.183 -4.63078 430.464C-4.52061 430.916 -4.34665 431.351 -4.11411 431.755C-4.01302 431.923 -3.38404 432.002 -2.81121 431.811C-2.16963 431.548 -1.60258 431.132 -1.16013 430.599C-0.868097 430.273 -0.5873 429.925 -0.317735 429.589C-0.0481691 429.252 0.210163 428.915 0.49096 428.601C0.703135 428.34 0.982824 428.142 1.29966 428.028C1.69931 427.894 2.13749 427.939 2.50147 428.152C3.03703 428.527 3.40718 429.094 3.5348 429.734C3.64365 430.345 3.68882 430.966 3.66958 431.586C3.66958 432.069 3.66958 432.552 3.66958 433.023V433.135C3.9481 433.042 4.23352 432.971 4.52321 432.922C5.6122 432.698 6.70103 433.304 7.08408 434.347C7.21044 434.803 7.21044 435.284 7.08408 435.739C7.05843 435.839 7.03967 435.94 7.02792 436.042C7.02946 436.089 7.05494 436.131 7.09531 436.154C7.21517 436.194 7.3399 436.216 7.46596 436.222H7.80292C8.64488 436.37 9.42543 436.76 10.0493 437.344C10.3207 437.605 10.4432 437.984 10.3754 438.355C10.3076 438.725 10.0586 439.036 9.71234 439.185C8.42525 439.723 7.10001 440.166 5.74748 440.509C4.61441 440.808 3.44872 440.966 2.27683 440.98Z" fill="#093F68"/>
<path d="M44.6884 411.362C42.5158 409.666 39.7471 408.925 37.017 409.308C34.3073 409.698 31.7619 410.841 29.6714 412.607C28.1373 413.695 27.0295 415.283 26.5377 417.097C26.3594 418.252 26.4361 419.432 26.7623 420.554C27.8714 425.032 30.9292 428.78 35.0964 430.767C40.7123 433.281 49.0464 431.44 51.2254 425.043C52.7529 420.643 47.9456 413.999 44.6884 411.362Z" fill="#080C20"/>
<path fill-rule="evenodd" clip-rule="evenodd" d="M34.692 431.755C36.5091 432.547 38.4714 432.952 40.454 432.944C42.4389 432.952 44.4042 432.551 46.2271 431.766C49.0786 430.598 51.2968 428.271 52.3261 425.369C54.0558 420.273 48.6982 413.169 45.4409 410.497C43.0303 408.604 39.9537 407.77 36.9159 408.185C33.9958 408.602 31.2518 409.831 28.9974 411.732C27.2497 412.964 25.9992 414.779 25.4706 416.85C25.2501 418.164 25.3308 419.511 25.7065 420.789C26.8831 425.617 30.1881 429.65 34.692 431.755ZM37.1967 410.419C37.5958 410.374 37.997 410.352 38.3985 410.352C40.4465 410.308 42.4477 410.966 44.0706 412.215C47.384 414.942 51.45 421.126 50.2482 424.639C49.4238 426.942 47.6542 428.784 45.3848 429.701C42.274 431.025 38.7575 431.025 35.6467 429.701C31.7924 427.856 28.9659 424.385 27.9416 420.239C27.6523 419.283 27.5794 418.275 27.7282 417.288C28.167 415.738 29.1319 414.388 30.4576 413.472C32.3772 411.849 34.7105 410.792 37.1967 410.419Z" fill="#093F68"/>
<path fill-rule="evenodd" clip-rule="evenodd" d="M-24.6378 360.703C-22.5916 365.631 -17.7759 368.841 -12.437 368.836C-5.15517 368.824 0.743073 362.925 0.749254 355.649C0.749252 350.314 -2.46742 345.505 -7.40036 343.464C-12.3333 341.423 -18.0106 342.554 -21.7842 346.328C-25.5578 350.102 -26.6841 355.776 -24.6378 360.703ZM-22.5625 351.453C-20.8639 347.365 -16.8673 344.701 -12.437 344.706C-6.39581 344.718 -1.5033 349.612 -1.49712 355.649C-1.49712 360.076 -4.16649 364.067 -8.26001 365.76C-12.3535 367.453 -17.0647 366.514 -20.1958 363.382C-23.3269 360.251 -24.261 355.542 -22.5625 351.453Z" fill="#093F68"/>
<path fill-rule="evenodd" clip-rule="evenodd" d="M11.1388 355.649C11.1388 362.932 17.0475 368.836 24.3363 368.836C31.6224 368.83 37.5275 362.929 37.5337 355.649C37.5337 348.365 31.625 342.461 24.3363 342.461C17.0475 342.461 11.1388 348.365 11.1388 355.649ZM13.3852 355.649C13.3852 349.605 18.2881 344.706 24.3363 344.706C30.3818 344.712 35.2812 349.608 35.2873 355.649C35.2873 361.692 30.3844 366.592 24.3363 366.592C18.2881 366.592 13.3852 361.692 13.3852 355.649Z" fill="#093F68"/>
<path d="M12.3631 355.245C12.1251 355.246 11.8931 355.171 11.7004 355.031C8.3987 352.451 3.84556 352.174 0.255098 354.336C-0.254413 354.627 -0.902791 354.478 -1.23258 353.992C-1.56237 353.507 -1.46226 352.849 -1.00287 352.484C3.38245 349.837 8.9391 350.126 13.0258 353.213C13.4208 353.499 13.5861 354.007 13.435 354.47C13.2838 354.933 12.8508 355.246 12.3631 355.245Z" fill="#093F68"/>
<path d="M36.1073 354.122C35.7959 354.121 35.499 353.991 35.2873 353.763C34.867 353.31 34.8921 352.603 35.3435 352.181L47.5525 340.823C48.0112 340.451 48.6794 340.498 49.0818 340.929C49.4843 341.361 49.4835 342.03 49.0801 342.461L36.8261 353.808C36.6321 353.996 36.3769 354.107 36.1073 354.122Z" fill="#093F68"/>
<path d="M-3.6087 373.707L16.6087 371.462C16.6087 371.462 16.1819 384.515 7.54456 384.773C-1.09276 385.032 -3.6087 373.707 -3.6087 373.707Z" fill="#080C20"/>
<path fill-rule="evenodd" clip-rule="evenodd" d="M-4.70942 373.943C-4.5971 374.448 -1.93514 385.941 7.24131 385.941L7.62319 385.896C17.1591 385.604 17.7319 372.069 17.7319 371.496C17.7437 371.17 17.6125 370.854 17.3725 370.632C17.1331 370.411 16.8093 370.304 16.4851 370.34L-3.73224 372.585C-4.05167 372.617 -4.34192 372.785 -4.52971 373.045C-4.71462 373.305 -4.77997 373.632 -4.70942 373.943ZM7.5221 383.696C1.46812 383.943 -1.26123 377.467 -2.17101 374.717L15.3844 372.753C15.0138 375.84 13.5761 383.449 7.5221 383.696Z" fill="#093F68"/>
<path d="M240.995 302.124C240.403 302.124 239.923 301.645 239.923 301.053V294.198C239.544 269.757 219.597 250.142 195.12 250.142C170.644 250.142 150.697 269.757 150.318 294.198V301.053C150.318 301.645 149.838 302.124 149.246 302.124C148.653 302.124 148.173 301.645 148.173 301.053V294.198C148.561 268.58 169.466 248.016 195.12 248.016C220.775 248.016 241.68 268.58 242.068 294.198V301.053C242.068 301.337 241.955 301.61 241.753 301.811C241.552 302.012 241.28 302.124 240.995 302.124Z" fill="#093F68"/>
<path d="M237.799 444.041C237.799 448.121 245.06 448.1 254.015 448.1C262.97 448.1 270.22 448.1 270.22 444.041C270.22 439.981 262.959 434.401 254.015 434.401C245.07 434.401 237.799 439.96 237.799 444.041Z" fill="#080C20"/>
<path fill-rule="evenodd" clip-rule="evenodd" d="M253.843 449.171H254.347C258.141 449.292 261.938 449.117 265.705 448.646C267.088 448.411 271.292 447.672 271.292 444.041C271.292 439.232 263.324 433.33 254.015 433.33C244.706 433.33 236.727 439.221 236.727 444.041C236.727 447.672 240.931 448.411 242.314 448.646C246.138 449.116 249.992 449.291 253.843 449.171ZM254.337 447.029H253.843C250.115 447.14 246.383 446.975 242.679 446.536C238.872 445.872 238.872 444.587 238.872 444.041C238.872 440.667 245.66 435.472 254.015 435.472C262.369 435.472 269.147 440.656 269.147 444.041C269.147 444.587 269.147 445.872 265.34 446.536C261.69 446.981 258.012 447.146 254.337 447.029Z" fill="#093F68"/>
<path d="M236.909 430.342C236.909 430.342 242.346 432.152 243.548 434.358C244.749 436.565 245.768 445.819 248.781 445.015C251.795 444.212 249.189 434.969 251.602 435.161C254.015 435.354 270.627 443.409 270.22 439.189C269.812 434.969 262.273 428.328 255.827 425.115C249.382 421.902 238.4 420.488 238.4 420.488L236.909 430.342Z" fill="#080C20"/>
<path fill-rule="evenodd" clip-rule="evenodd" d="M247.172 445.797C247.546 446.018 247.972 446.136 248.406 446.14C248.637 446.141 248.868 446.113 249.092 446.054C251.527 445.422 251.527 442.188 251.527 439.328C251.49 438.302 251.562 437.275 251.741 436.265C252.446 436.419 254.14 437.059 255.777 437.677C255.959 437.746 256.141 437.814 256.321 437.882C263.442 440.602 268.632 442.413 270.552 440.945C271.123 440.506 271.414 439.794 271.314 439.082C270.788 433.983 262.262 427.139 256.299 424.151C249.768 420.895 238.99 419.427 238.528 419.427C237.953 419.357 237.426 419.755 237.338 420.327L235.837 430.181C235.757 430.696 236.06 431.193 236.555 431.359C238.507 432.013 241.864 433.533 242.593 434.872C243.029 435.932 243.37 437.029 243.612 438.15C244.631 442.006 245.478 444.812 247.172 445.797ZM244.523 433.855C243.387 431.841 239.794 430.277 238.089 429.635L239.301 421.655C242.196 422.094 250.315 423.498 255.388 426.025C262.112 429.388 268.772 435.751 269.179 439.242C267.734 439.89 260.432 437.118 257.169 435.88L257.082 435.847C255.36 435.07 253.563 434.471 251.72 434.058C251.222 434.001 250.723 434.165 250.358 434.508C249.382 435.365 249.382 437.132 249.382 439.274C249.371 440.827 249.339 443.73 248.535 443.944C248.461 443.984 248.372 443.984 248.299 443.944C247.237 443.334 246.293 439.746 245.735 437.603C245.458 436.317 245.052 435.061 244.523 433.855Z" fill="#093F68"/>
<path d="M202.086 299.597C186.739 297.712 167.081 301.664 155.852 312.749C154.054 314.296 152.705 316.297 151.948 318.544C150.029 325.934 151.777 333.153 145.245 338.712C143.583 340.136 141.674 341.283 140.151 342.868C135.218 348.009 136.237 357.563 142.157 361.547C138.821 364.76 138.307 370.03 139.325 374.55C141.159 382.733 147.262 389.545 154.533 393.69C161.804 397.835 170.18 399.773 178.503 400.887C190.611 402.505 203.073 402.58 214.881 399.474C226.688 396.367 237.853 389.888 245.178 380.119C247.669 377.071 249.325 373.428 249.982 369.548C250.733 363.539 247.837 357.766 245.06 352.411C249.135 347.623 250.132 340.726 248.685 334.62C247.237 328.515 243.58 323.107 239.29 318.555C229.472 308.109 216.317 301.405 202.086 299.597Z" fill="#080C20"/>
<path fill-rule="evenodd" clip-rule="evenodd" d="M178.352 401.991C183.603 402.695 188.895 403.053 194.193 403.062C201.244 403.171 208.281 402.372 215.127 400.684C228.029 397.289 239 390.273 246.004 380.933C248.942 377.024 250.583 373.393 251.023 369.859C251.795 363.571 248.846 357.573 246.304 352.668C250.015 347.88 251.291 341.154 249.693 334.46C248.363 328.88 245.113 323.299 240.041 317.88C230.029 307.28 216.653 300.468 202.183 298.601C187.35 296.79 167.027 300.282 155.059 312.064C153.12 313.743 151.675 315.916 150.876 318.351C150.356 320.568 149.997 322.819 149.804 325.088C149.794 325.169 149.785 325.25 149.776 325.331C149.231 330.177 148.757 334.391 144.538 337.941C143.916 338.466 143.272 338.948 142.597 339.451C141.451 340.268 140.375 341.178 139.379 342.172C136.745 345.045 135.513 348.932 136.012 352.796C136.32 356.253 137.953 359.457 140.57 361.74C137.985 364.921 137.127 369.709 138.275 374.828C140.055 382.69 145.771 389.92 153.997 394.664C160.357 398.328 167.864 400.587 178.352 401.991ZM156.603 313.51C163.746 306.462 177.591 300.175 194.053 300.175C196.689 300.189 199.322 300.364 201.936 300.7C215.897 302.488 228.81 309.042 238.486 319.251C243.333 324.403 246.379 329.651 247.623 334.867C249.092 341.068 247.795 347.527 244.223 351.715C243.939 352.046 243.884 352.516 244.084 352.904C247.119 358.752 249.575 364.011 248.899 369.462C248.513 372.622 247.001 375.91 244.298 379.52C237.574 388.474 227.032 395.264 214.591 398.477C204.081 401.241 192.316 401.701 178.621 399.87C168.4 398.499 161.129 396.325 155.026 392.812C147.326 388.367 141.964 381.64 140.323 374.357C139.229 369.452 140.173 364.975 142.854 362.361C143.087 362.135 143.205 361.816 143.176 361.494C143.149 361.174 142.979 360.883 142.715 360.701C140.124 358.74 138.459 355.798 138.112 352.571C137.765 349.343 138.767 346.115 140.881 343.65C141.803 342.747 142.797 341.92 143.851 341.175C144.066 341.008 144.281 340.844 144.496 340.68C144.97 340.319 145.442 339.959 145.9 339.569C150.778 335.468 151.344 330.408 151.894 325.489C151.902 325.423 151.909 325.357 151.916 325.292C152.12 323.127 152.479 320.979 152.989 318.865C153.693 316.79 154.941 314.941 156.603 313.51Z" fill="#093F68"/>
<path d="M194.632 257.407H196.316C217.941 257.407 235.472 274.915 235.472 296.512V308.069H155.488V296.512C155.488 274.915 173.018 257.407 194.643 257.407H194.632Z" fill="#080C20"/>
<path fill-rule="evenodd" clip-rule="evenodd" d="M155.488 309.151H235.536C236.129 309.151 236.609 308.671 236.609 308.08V296.512C236.579 274.315 218.553 256.336 196.327 256.336H194.632C172.429 256.366 154.439 274.338 154.415 296.512V308.08C154.415 308.671 154.895 309.151 155.488 309.151ZM234.464 307.008H156.614V296.512C156.631 275.518 173.665 258.502 194.686 258.478H196.381C217.404 258.502 234.44 275.516 234.464 296.512V307.008Z" fill="#093F68"/>
<path d="M202.579 368.07C201.987 368.07 201.507 367.59 201.507 366.999V359.501H188.809V366.999C188.809 367.59 188.329 368.07 187.737 368.07C187.144 368.07 186.664 367.59 186.664 366.999V358.43C186.664 357.839 187.144 357.359 187.737 357.359H202.579C203.172 357.359 203.652 357.839 203.652 358.43V366.999C203.652 367.59 203.172 368.07 202.579 368.07Z" fill="#093F68"/>
<path d="M195.126 360.412C173.226 360.412 155.445 347.398 155.445 323.406V306.612C178.814 310.993 182.374 286.765 182.374 286.765C203.577 323.589 234.71 299.232 234.71 299.232V323.406C234.753 347.398 217.015 360.412 195.126 360.412Z" fill="#080C20"/>
<path fill-rule="evenodd" clip-rule="evenodd" d="M154.372 323.406C154.372 346.188 170.77 361.483 195.126 361.483C219.449 361.483 235.837 346.188 235.794 323.385V299.211C235.796 298.799 235.562 298.423 235.191 298.243C234.821 298.062 234.38 298.11 234.056 298.365L234.049 298.37C233.688 298.644 220.956 308.3 206.708 305.53C197.528 303.795 189.656 297.294 183.307 286.251C183.077 285.855 182.62 285.648 182.17 285.737C181.725 285.822 181.381 286.178 181.312 286.626L181.312 286.629C181.276 286.852 179.612 297.229 171.939 302.692C167.596 305.798 162.072 306.751 155.638 305.541C155.322 305.483 154.996 305.57 154.751 305.778C154.506 305.985 154.367 306.291 154.372 306.612V323.406ZM156.517 323.449V307.93L156.56 307.887C163.07 308.851 168.679 307.705 173.269 304.513C179.286 300.229 181.849 293.417 182.921 289.668C189.356 299.864 197.239 305.937 206.387 307.715C218.72 310.05 229.605 304.009 233.734 301.289V323.449C233.734 348.277 214.366 359.384 195.126 359.384C175.886 359.384 156.517 348.277 156.517 323.449Z" fill="#093F68"/>
<ellipse cx="175.489" cy="322.11" rx="3.80725" ry="3.80228" fill="#093F68"/>
<ellipse cx="214.752" cy="322.11" rx="3.80725" ry="3.80228" fill="#093F68"/>
<path d="M195.533 334.588C194.298 334.579 193.065 334.479 191.844 334.289C191.564 334.239 191.315 334.08 191.152 333.847C190.989 333.614 190.925 333.326 190.975 333.046C191.025 332.766 191.184 332.518 191.417 332.355C191.651 332.192 191.939 332.129 192.219 332.179C194.127 332.486 196.071 332.486 197.979 332.179C198.311 331.193 196.906 327.016 194.761 323.053C194.572 322.713 194.582 322.298 194.787 321.968C194.993 321.638 195.361 321.444 195.75 321.463C196.138 321.481 196.487 321.709 196.659 322.057C197.732 324.038 200.949 330.69 199.877 333.132C199.639 333.674 199.158 334.072 198.579 334.203C197.583 334.454 196.56 334.583 195.533 334.588Z" fill="#093F68"/>
<path d="M149.492 294.263H155.488V333.4H149.492C145.104 333.4 141.546 329.846 141.546 325.463V302.199C141.546 297.816 145.104 294.263 149.492 294.263Z" fill="#093F68"/>
<path fill-rule="evenodd" clip-rule="evenodd" d="M149.492 334.46H155.488C156.08 334.46 156.56 333.98 156.56 333.389V294.263C156.56 293.671 156.08 293.192 155.488 293.192H149.492C144.514 293.198 140.479 297.227 140.473 302.199V325.463C140.479 330.433 144.515 334.46 149.492 334.46ZM142.618 302.199C142.618 298.408 145.696 295.334 149.492 295.334H154.415V332.318H149.492C145.7 332.318 142.624 329.25 142.618 325.463V302.199Z" fill="#093F68"/>
<path d="M240.759 333.389H234.764V294.252H240.759C245.148 294.252 248.706 297.805 248.706 302.189V325.452C248.706 329.835 245.148 333.389 240.759 333.389Z" fill="#093F68"/>
<path fill-rule="evenodd" clip-rule="evenodd" d="M234.764 334.46H240.748C245.726 334.46 249.762 330.433 249.768 325.463V302.199C249.762 297.227 245.727 293.198 240.748 293.192H234.764C234.172 293.192 233.692 293.671 233.692 294.263V333.389C233.692 333.98 234.172 334.46 234.764 334.46ZM240.748 332.318H235.837V295.334H240.748C244.545 295.334 247.623 298.408 247.623 302.199V325.463C247.617 329.25 244.541 332.318 240.748 332.318Z" fill="#093F68"/>
<path d="M195.49 349.251C192.653 349.31 189.849 348.635 187.35 347.291C185.072 346.088 183.247 344.179 182.149 341.85C181.93 341.3 182.199 340.677 182.75 340.458C183.3 340.239 183.925 340.507 184.144 341.058C184.315 341.497 188.691 351.618 206.665 344.678C207.219 344.465 207.841 344.741 208.054 345.294C208.268 345.847 207.991 346.468 207.438 346.681C203.645 348.255 199.596 349.126 195.49 349.251Z" fill="#093F68"/>
<path d="M169.108 353.707C163.917 353.707 156.903 353.107 153.353 350.247C147.369 345.406 147.594 333.978 147.605 333.496C147.605 332.904 148.085 332.425 148.677 332.425C149.27 332.425 149.75 332.904 149.75 333.496C149.75 333.603 149.546 344.356 154.694 348.491C159.842 352.625 175.071 351.211 175.242 351.201C175.828 351.144 176.349 351.57 176.411 352.154C176.441 352.437 176.358 352.72 176.179 352.94C176 353.161 175.74 353.302 175.457 353.332C175.199 353.439 172.55 353.707 169.108 353.707Z" fill="#093F68"/>
<path fill-rule="evenodd" clip-rule="evenodd" d="M167.639 356.642H177.913C180.543 356.642 182.675 354.512 182.675 351.886C182.675 349.26 180.543 347.131 177.913 347.131H167.639C165.009 347.131 162.877 349.26 162.877 351.886C162.877 354.512 165.009 356.642 167.639 356.642ZM165.022 351.865C165.022 350.421 166.193 349.251 167.639 349.251H177.913C179.358 349.251 180.53 350.421 180.53 351.865C180.53 353.308 179.358 354.478 177.913 354.478H167.639C166.193 354.478 165.022 353.308 165.022 351.865Z" fill="#093F68"/>
<path d="M177.13 366.999H213.175C226.034 366.999 236.459 377.409 236.459 390.252V440.956H153.879V390.262C153.873 377.429 164.279 367.017 177.13 366.999Z" fill="#080C20"/>
<path fill-rule="evenodd" clip-rule="evenodd" d="M153.89 442.038H236.469C236.761 442.049 237.045 441.942 237.255 441.74C237.466 441.537 237.585 441.258 237.585 440.967V390.262C237.573 376.828 226.671 365.94 213.218 365.928H177.173C163.725 365.945 152.829 376.832 152.817 390.262V440.967C152.817 441.558 153.297 442.038 153.89 442.038ZM235.397 439.896H154.962L154.919 390.262C154.931 378.015 164.866 368.088 177.13 368.07H213.175C225.441 368.088 235.379 378.013 235.397 390.262V439.896Z" fill="#093F68"/>
<path d="M166.341 314.399C165.461 314.373 164.745 313.682 164.689 312.804C164.634 311.926 165.257 311.151 166.126 311.014L183.843 308.797C184.743 308.741 185.531 309.394 185.641 310.288C185.752 311.181 185.148 312.006 184.262 312.171L166.545 314.388L166.341 314.399Z" fill="#093F68"/>
<path d="M223.911 314.399H223.739L206.022 312.182C205.136 312.017 204.532 311.192 204.642 310.298C204.753 309.405 205.541 308.752 206.44 308.808L224.157 311.025C225.026 311.16 225.649 311.933 225.596 312.81C225.544 313.686 224.832 314.379 223.954 314.41L223.911 314.399Z" fill="#093F68"/>
<path d="M195.158 386.278C186.16 386.278 173.194 366.999 173.194 366.999H217.111C217.111 366.999 204.145 386.278 195.158 386.278Z" fill="#080C20"/>
<path fill-rule="evenodd" clip-rule="evenodd" d="M172.313 367.612C172.978 368.59 185.746 387.349 195.158 387.349C204.15 387.349 216.231 370.188 217.885 367.838C217.969 367.719 218.027 367.637 218.055 367.599C218.267 367.279 218.292 366.87 218.119 366.528C217.932 366.176 217.564 365.957 217.165 365.96H173.248C172.852 365.961 172.49 366.179 172.304 366.528C172.112 366.859 172.112 367.267 172.304 367.599C172.306 367.603 172.31 367.607 172.313 367.612ZM195.158 385.207C188.895 385.207 179.543 374.057 175.253 368.07H215.063C210.741 374.057 201.421 385.207 195.158 385.207Z" fill="#093F68"/>
<path fill-rule="evenodd" clip-rule="evenodd" d="M178.438 367.759C179.479 368.82 184.541 373.747 187.951 373.747C188.219 373.749 188.487 373.713 188.745 373.639C191.919 372.772 195.501 368.177 195.898 367.652C196.145 367.328 196.186 366.892 196.005 366.528C195.825 366.16 195.45 365.927 195.04 365.928H179.2C178.764 365.925 178.37 366.186 178.203 366.588C178.036 366.99 178.129 367.453 178.438 367.759ZM188.176 371.583C187.05 371.883 184.39 370.212 181.913 368.07H192.734C191.394 369.505 189.592 371.187 188.176 371.583Z" fill="#093F68"/>
<path fill-rule="evenodd" clip-rule="evenodd" d="M201.571 373.639C201.826 373.713 202.089 373.749 202.354 373.747C205.765 373.747 210.87 368.809 211.878 367.759C212.182 367.451 212.271 366.991 212.103 366.592C211.938 366.192 211.549 365.93 211.116 365.928H195.265C194.857 365.929 194.485 366.161 194.305 366.527C194.125 366.893 194.169 367.329 194.418 367.652C194.815 368.177 198.354 372.772 201.571 373.639ZM202.14 371.583C200.713 371.187 198.901 369.505 197.582 368.07H208.392C205.926 370.201 203.212 371.883 202.14 371.583Z" fill="#093F68"/>
<path d="M195.265 387.349C194.673 387.349 194.193 386.87 194.193 386.278V366.999C194.193 366.407 194.673 365.928 195.265 365.928C195.858 365.928 196.338 366.407 196.338 366.999V386.278C196.338 386.87 195.858 387.349 195.265 387.349Z" fill="#093F68"/>
<path d="M145.095 362.715C145.095 362.715 118.016 413.922 127.936 424.729C137.856 435.536 150.275 428.296 153.9 420.445C157.525 412.594 159.188 368.53 159.188 368.53L145.095 362.715Z" fill="#080C20"/>
<path fill-rule="evenodd" clip-rule="evenodd" d="M127.185 425.458C131.421 430.052 135.797 431.274 139.25 431.274C140.014 431.284 140.778 431.237 141.535 431.134C147.361 430.061 152.325 426.278 154.898 420.948C158.482 413.228 160.092 372.837 160.25 368.879C160.254 368.763 160.258 368.678 160.26 368.627C160.294 368.164 160.026 367.731 159.595 367.556L145.503 361.729C144.992 361.514 144.402 361.723 144.141 362.211C143.025 364.332 116.825 414.211 127.185 425.458ZM128.762 424.001C121.169 415.764 137.921 378.781 145.589 364.075L158.072 369.248C157.836 375.021 156.174 413.001 152.956 420.006C150.68 424.675 146.332 427.998 141.224 428.971C136.719 429.678 132.408 427.964 128.762 424.001Z" fill="#093F68"/>
<path d="M153.546 343.007C153.546 343.007 171.467 341.208 173.076 345.224C174.685 349.241 169.043 350.247 162.405 349.444C162.405 349.444 167.842 352.464 167.842 357.691C167.842 362.918 159.188 368.53 159.188 368.53L145.095 362.704C145.095 362.704 145.288 347.634 153.546 343.007Z" fill="#080C20"/>
<path fill-rule="evenodd" clip-rule="evenodd" d="M158.769 369.527C158.903 369.577 159.045 369.603 159.188 369.602C159.39 369.611 159.591 369.562 159.767 369.462C159.787 369.447 159.83 369.417 159.895 369.372C161.051 368.571 168.915 363.116 168.915 357.681C168.838 355.053 167.719 352.565 165.805 350.761C168.883 350.815 172.293 350.408 173.741 348.512C174.537 347.44 174.666 346.013 174.073 344.817C172.304 340.394 157.836 341.497 153.439 341.936C153.292 341.946 153.148 341.99 153.021 342.064C144.334 346.938 144.023 362.05 144.023 362.693C144.019 363.127 144.277 363.52 144.677 363.689L158.769 369.527ZM146.201 361.997L146.2 361.997V362.008C146.2 362.004 146.2 362.001 146.201 361.997ZM159.07 367.352L146.201 361.997C146.363 359.036 147.43 347.876 153.825 344.078C162.04 343.275 171.253 343.639 172.057 345.642C172.454 346.563 172.239 346.991 172.057 347.238C171.306 348.223 168.357 349.112 162.544 348.405C162.032 348.336 161.543 348.643 161.382 349.135C161.222 349.626 161.435 350.161 161.89 350.408C161.944 350.429 166.781 353.161 166.781 357.713C166.781 361.279 161.59 365.606 159.07 367.352Z" fill="#093F68"/>
<path d="M235.536 456.583H151.584C147.532 456.589 144.16 453.474 143.851 449.439L140.108 401.241C139.941 399.089 140.68 396.965 142.148 395.381C143.616 393.797 145.68 392.897 147.841 392.897H239.268C241.43 392.897 243.493 393.797 244.961 395.381C246.429 396.965 247.168 399.089 247.001 401.241L243.258 449.439C242.95 453.47 239.584 456.583 235.536 456.583Z" fill="#080C20"/>
<path fill-rule="evenodd" clip-rule="evenodd" d="M151.584 457.654H235.536C240.135 457.631 243.952 454.101 244.33 449.524L248.073 401.326C248.261 398.877 247.419 396.46 245.748 394.657C244.076 392.854 241.728 391.828 239.268 391.826H147.841C145.381 391.828 143.033 392.854 141.362 394.657C139.691 396.46 138.848 398.877 139.036 401.326L142.779 449.524C143.157 454.105 146.981 457.636 151.584 457.654ZM142.945 396.08C144.21 394.714 145.988 393.936 147.852 393.936H239.279C241.142 393.936 242.921 394.714 244.185 396.08C245.45 397.447 246.086 399.279 245.939 401.134L242.207 449.332C241.923 452.803 239.024 455.48 235.536 455.49H151.595C148.107 455.48 145.208 452.803 144.924 449.332L141.192 401.134C141.045 399.279 141.681 397.447 142.945 396.08Z" fill="#093F68"/>
<path fill-rule="evenodd" clip-rule="evenodd" d="M184.777 424.729C184.777 429.568 188.704 433.491 193.549 433.491C198.392 433.485 202.316 429.566 202.322 424.729C202.322 419.891 198.394 415.968 193.549 415.968C188.704 415.968 184.777 419.891 184.777 424.729ZM186.921 424.729C186.921 421.074 189.889 418.11 193.549 418.11C197.207 418.116 200.171 421.076 200.177 424.729C200.177 428.385 197.21 431.348 193.549 431.348C189.889 431.348 186.921 428.385 186.921 424.729Z" fill="#093F68"/>
<path fill-rule="evenodd" clip-rule="evenodd" d="M308.642 276.404H334.842C335.499 276.404 336.033 275.869 336.033 275.208V248.897C336.033 248.237 335.499 247.701 334.842 247.701H308.642C307.984 247.701 307.451 248.237 307.451 248.897V275.208C307.451 275.869 307.984 276.404 308.642 276.404ZM333.651 274.012H309.833V250.093H333.651V274.012Z" fill="#093F68"/>
<path fill-rule="evenodd" clip-rule="evenodd" d="M290.41 277.471C290.421 286.14 297.426 293.16 306.058 293.154C310.21 293.151 314.189 291.49 317.12 288.538C320.051 285.585 321.693 281.584 321.683 277.415C321.663 268.746 314.651 261.733 306.019 261.748C297.386 261.764 290.399 268.802 290.41 277.471ZM293.799 272.372C295.852 267.393 300.692 264.147 306.058 264.152C313.353 264.165 319.269 270.09 319.301 277.415C319.321 282.804 316.102 287.673 311.149 289.748C306.196 291.823 300.486 290.694 296.687 286.888C292.887 283.082 291.747 277.351 293.799 272.372Z" fill="#093F68"/>
</svg>
