<svg width="241" height="136" viewBox="0 0 241 136" fill="none" xmlns="http://www.w3.org/2000/svg">
<g clip-path="url(#clip0_0_4052)">
<path d="M32.31 18.225C31.475 18.225 30.7375 18.0525 30.0975 17.7075C29.4575 17.3625 28.955 16.88 28.59 16.26C28.23 15.635 28.05 14.9025 28.05 14.0625V7.2075L29.4 7.2V13.95C29.4 14.46 29.485 14.905 29.655 15.285C29.83 15.66 30.06 15.9725 30.345 16.2225C30.63 16.4725 30.9425 16.66 31.2825 16.785C31.6275 16.905 31.97 16.965 32.31 16.965C32.655 16.965 33 16.9025 33.345 16.7775C33.69 16.6525 34.0025 16.4675 34.2825 16.2225C34.5675 15.9725 34.795 15.6575 34.965 15.2775C35.135 14.8975 35.22 14.455 35.22 13.95V7.2H36.57V14.0625C36.57 14.8975 36.3875 15.6275 36.0225 16.2525C35.6625 16.8775 35.1625 17.3625 34.5225 17.7075C33.8825 18.0525 33.145 18.225 32.31 18.225ZM44.4376 18V13.9425C44.4376 13.5575 44.4026 13.1875 44.3326 12.8325C44.2676 12.4775 44.1501 12.16 43.9801 11.88C43.8151 11.595 43.5901 11.37 43.3051 11.205C43.0251 11.04 42.6701 10.9575 42.2401 10.9575C41.9051 10.9575 41.6001 11.015 41.3251 11.13C41.0551 11.24 40.8226 11.41 40.6276 11.64C40.4326 11.87 40.2801 12.16 40.1701 12.51C40.0651 12.855 40.0126 13.2625 40.0126 13.7325L39.1351 13.4625C39.1351 12.6775 39.2751 12.005 39.5551 11.445C39.8401 10.88 40.2376 10.4475 40.7476 10.1475C41.2626 9.8425 41.8676 9.69 42.5626 9.69C43.0876 9.69 43.5351 9.7725 43.9051 9.9375C44.2751 10.1025 44.5826 10.3225 44.8276 10.5975C45.0726 10.8675 45.2651 11.1725 45.4051 11.5125C45.5451 11.8475 45.6426 12.19 45.6976 12.54C45.7576 12.885 45.7876 13.2125 45.7876 13.5225V18H44.4376ZM38.6626 18V9.9H39.8626V12.0675H40.0126V18H38.6626ZM47.8875 18V6.975H49.2225V18H47.8875ZM51.6229 8.4675V7.0875H52.9579V8.4675H51.6229ZM51.6229 18V9.9H52.9579V18H51.6229ZM64.8907 18L64.8982 12.8175C64.8982 12.2125 64.7357 11.74 64.4107 11.4C64.0907 11.055 63.6732 10.8825 63.1582 10.8825C62.8582 10.8825 62.5732 10.9525 62.3032 11.0925C62.0332 11.2275 61.8132 11.4425 61.6432 11.7375C61.4732 12.0275 61.3882 12.4 61.3882 12.855L60.6832 12.57C60.6732 11.995 60.7907 11.4925 61.0357 11.0625C61.2857 10.6275 61.6257 10.29 62.0557 10.05C62.4857 9.81 62.9707 9.69 63.5107 9.69C64.3557 9.69 65.0207 9.9475 65.5057 10.4625C65.9907 10.9725 66.2332 11.66 66.2332 12.525L66.2257 18H64.8907ZM55.2007 18V9.9H56.3932V12.0675H56.5432V18H55.2007ZM60.0532 18L60.0607 12.87C60.0607 12.25 59.9007 11.765 59.5807 11.415C59.2607 11.06 58.8357 10.8825 58.3057 10.8825C57.7807 10.8825 57.3557 11.0625 57.0307 11.4225C56.7057 11.7825 56.5432 12.26 56.5432 12.855L55.8382 12.435C55.8382 11.91 55.9632 11.44 56.2132 11.025C56.4632 10.61 56.8032 10.285 57.2332 10.05C57.6632 9.81 58.1507 9.69 58.6957 9.69C59.2407 9.69 59.7157 9.805 60.1207 10.035C60.5257 10.265 60.8382 10.595 61.0582 11.025C61.2782 11.45 61.3882 11.9575 61.3882 12.5475L61.3807 18H60.0532ZM68.3367 8.4675V7.0875H69.6717V8.4675H68.3367ZM68.3367 18V9.9H69.6717V18H68.3367ZM76.4446 18C75.9646 18.095 75.4896 18.1325 75.0196 18.1125C74.5546 18.0975 74.1396 18.005 73.7746 17.835C73.4096 17.66 73.1321 17.39 72.9421 17.025C72.7821 16.705 72.6946 16.3825 72.6796 16.0575C72.6696 15.7275 72.6646 15.355 72.6646 14.94V7.65H73.9996V14.88C73.9996 15.21 74.0021 15.4925 74.0071 15.7275C74.0171 15.9625 74.0696 16.165 74.1646 16.335C74.3446 16.655 74.6296 16.8425 75.0196 16.8975C75.4146 16.9525 75.8896 16.9375 76.4446 16.8525V18ZM71.0221 11.0025V9.9H76.4446V11.0025H71.0221ZM81.2621 18.225C80.4671 18.225 79.7721 18.05 79.1771 17.7C78.5871 17.345 78.1271 16.8525 77.7971 16.2225C77.4671 15.5875 77.3021 14.8475 77.3021 14.0025C77.3021 13.1175 77.4646 12.3525 77.7896 11.7075C78.1146 11.0575 78.5671 10.5575 79.1471 10.2075C79.7321 9.8525 80.4171 9.675 81.2021 9.675C82.0171 9.675 82.7096 9.8625 83.2796 10.2375C83.8546 10.6125 84.2846 11.1475 84.5696 11.8425C84.8596 12.5375 84.9846 13.365 84.9446 14.325H83.5946V13.845C83.5796 12.85 83.3771 12.1075 82.9871 11.6175C82.5971 11.1225 82.0171 10.875 81.2471 10.875C80.4221 10.875 79.7946 11.14 79.3646 11.67C78.9346 12.2 78.7196 12.96 78.7196 13.95C78.7196 14.905 78.9346 15.645 79.3646 16.17C79.7946 16.695 80.4071 16.9575 81.2021 16.9575C81.7371 16.9575 82.2021 16.835 82.5971 16.59C82.9921 16.345 83.3021 15.9925 83.5271 15.5325L84.8096 15.975C84.4946 16.69 84.0196 17.245 83.3846 17.64C82.7546 18.03 82.0471 18.225 81.2621 18.225ZM78.2696 14.325V13.2525H84.2546V14.325H78.2696ZM89.7945 18.225C89.0395 18.225 88.392 18.0375 87.852 17.6625C87.312 17.2825 86.8945 16.77 86.5995 16.125C86.3095 15.48 86.1645 14.7525 86.1645 13.9425C86.1645 13.1325 86.3095 12.405 86.5995 11.76C86.8945 11.115 87.312 10.6075 87.852 10.2375C88.392 9.8625 89.037 9.675 89.787 9.675C90.552 9.675 91.1945 9.86 91.7145 10.23C92.2345 10.6 92.627 11.1075 92.892 11.7525C93.162 12.3975 93.297 13.1275 93.297 13.9425C93.297 14.7475 93.162 15.475 92.892 16.125C92.627 16.77 92.2345 17.2825 91.7145 17.6625C91.1945 18.0375 90.5545 18.225 89.7945 18.225ZM89.9595 17.0025C90.5045 17.0025 90.952 16.8725 91.302 16.6125C91.652 16.3475 91.9095 15.985 92.0745 15.525C92.2445 15.06 92.3295 14.5325 92.3295 13.9425C92.3295 13.3425 92.2445 12.815 92.0745 12.36C91.9095 11.9 91.6545 11.5425 91.3095 11.2875C90.9645 11.0275 90.527 10.8975 89.997 10.8975C89.447 10.8975 88.992 11.0325 88.632 11.3025C88.277 11.5725 88.012 11.9375 87.837 12.3975C87.667 12.8575 87.582 13.3725 87.582 13.9425C87.582 14.5175 87.6695 15.0375 87.8445 15.5025C88.0195 15.9625 88.282 16.3275 88.632 16.5975C88.987 16.8675 89.4295 17.0025 89.9595 17.0025ZM92.3295 18V12.0375H92.1795V7.2H93.522V18H92.3295ZM102.346 18.225C101.586 18.225 100.946 18.0375 100.426 17.6625C99.9062 17.2825 99.5112 16.77 99.2412 16.125C98.9762 15.475 98.8437 14.7475 98.8437 13.9425C98.8437 13.1275 98.9762 12.3975 99.2412 11.7525C99.5112 11.1075 99.9062 10.6 100.426 10.23C100.951 9.86 101.594 9.675 102.354 9.675C103.104 9.675 103.749 9.8625 104.289 10.2375C104.834 10.6075 105.251 11.115 105.541 11.76C105.831 12.405 105.976 13.1325 105.976 13.9425C105.976 14.7525 105.831 15.48 105.541 16.125C105.251 16.77 104.834 17.2825 104.289 17.6625C103.749 18.0375 103.101 18.225 102.346 18.225ZM98.6187 21.6V9.9H99.8112V15.8625H99.9612V21.6H98.6187ZM102.181 17.0025C102.716 17.0025 103.159 16.8675 103.509 16.5975C103.859 16.3275 104.121 15.9625 104.296 15.5025C104.471 15.0375 104.559 14.5175 104.559 13.9425C104.559 13.3725 104.471 12.8575 104.296 12.3975C104.126 11.9375 103.861 11.5725 103.501 11.3025C103.146 11.0325 102.694 10.8975 102.144 10.8975C101.619 10.8975 101.184 11.0275 100.839 11.2875C100.494 11.5425 100.236 11.9 100.066 12.36C99.8962 12.815 99.8112 13.3425 99.8112 13.9425C99.8112 14.5325 99.8937 15.06 100.059 15.525C100.229 15.985 100.489 16.3475 100.839 16.6125C101.189 16.8725 101.636 17.0025 102.181 17.0025ZM107.62 18V9.9H108.813V11.8575L108.618 11.6025C108.713 11.3525 108.835 11.1225 108.985 10.9125C109.14 10.7025 109.313 10.53 109.503 10.395C109.713 10.225 109.95 10.095 110.215 10.005C110.48 9.915 110.75 9.8625 111.025 9.8475C111.3 9.8275 111.558 9.845 111.798 9.9V11.1525C111.518 11.0775 111.21 11.0575 110.875 11.0925C110.54 11.1275 110.23 11.25 109.945 11.46C109.685 11.645 109.483 11.87 109.338 12.135C109.198 12.4 109.1 12.6875 109.045 12.9975C108.99 13.3025 108.963 13.615 108.963 13.935V18H107.62ZM116.52 18.225C115.715 18.225 115.02 18.0425 114.435 17.6775C113.855 17.3125 113.407 16.8075 113.092 16.1625C112.777 15.5175 112.62 14.7775 112.62 13.9425C112.62 13.0925 112.78 12.3475 113.1 11.7075C113.42 11.0675 113.872 10.57 114.457 10.215C115.042 9.855 115.73 9.675 116.52 9.675C117.33 9.675 118.027 9.8575 118.612 10.2225C119.197 10.5825 119.645 11.085 119.955 11.73C120.27 12.37 120.427 13.1075 120.427 13.9425C120.427 14.7875 120.27 15.5325 119.955 16.1775C119.64 16.8175 119.19 17.32 118.605 17.685C118.02 18.045 117.325 18.225 116.52 18.225ZM116.52 16.9575C117.36 16.9575 117.985 16.6775 118.395 16.1175C118.805 15.5575 119.01 14.8325 119.01 13.9425C119.01 13.0275 118.802 12.3 118.387 11.76C117.972 11.215 117.35 10.9425 116.52 10.9425C115.955 10.9425 115.49 11.07 115.125 11.325C114.76 11.58 114.487 11.9325 114.307 12.3825C114.127 12.8325 114.037 13.3525 114.037 13.9425C114.037 14.8525 114.247 15.5825 114.667 16.1325C115.087 16.6825 115.705 16.9575 116.52 16.9575ZM125.258 18.225C124.503 18.225 123.856 18.0375 123.316 17.6625C122.776 17.2825 122.358 16.77 122.063 16.125C121.773 15.48 121.628 14.7525 121.628 13.9425C121.628 13.1325 121.773 12.405 122.063 11.76C122.358 11.115 122.776 10.6075 123.316 10.2375C123.856 9.8625 124.501 9.675 125.251 9.675C126.016 9.675 126.658 9.86 127.178 10.23C127.698 10.6 128.091 11.1075 128.356 11.7525C128.626 12.3975 128.761 13.1275 128.761 13.9425C128.761 14.7475 128.626 15.475 128.356 16.125C128.091 16.77 127.698 17.2825 127.178 17.6625C126.658 18.0375 126.018 18.225 125.258 18.225ZM125.423 17.0025C125.968 17.0025 126.416 16.8725 126.766 16.6125C127.116 16.3475 127.373 15.985 127.538 15.525C127.708 15.06 127.793 14.5325 127.793 13.9425C127.793 13.3425 127.708 12.815 127.538 12.36C127.373 11.9 127.118 11.5425 126.773 11.2875C126.428 11.0275 125.991 10.8975 125.461 10.8975C124.911 10.8975 124.456 11.0325 124.096 11.3025C123.741 11.5725 123.476 11.9375 123.301 12.3975C123.131 12.8575 123.046 13.3725 123.046 13.9425C123.046 14.5175 123.133 15.0375 123.308 15.5025C123.483 15.9625 123.746 16.3275 124.096 16.5975C124.451 16.8675 124.893 17.0025 125.423 17.0025ZM127.793 18V12.0375H127.643V7.2H128.986V18H127.793ZM134.162 18.21C133.642 18.21 133.195 18.1275 132.82 17.9625C132.45 17.7975 132.142 17.5775 131.897 17.3025C131.652 17.0275 131.46 16.7225 131.32 16.3875C131.18 16.0525 131.08 15.71 131.02 15.36C130.965 15.01 130.937 14.6825 130.937 14.3775V9.9H132.287V13.9575C132.287 14.3375 132.322 14.705 132.392 15.06C132.462 15.415 132.58 15.735 132.745 16.02C132.915 16.305 133.14 16.53 133.42 16.695C133.705 16.86 134.06 16.9425 134.485 16.9425C134.82 16.9425 135.125 16.885 135.4 16.77C135.675 16.655 135.91 16.485 136.105 16.26C136.3 16.03 136.45 15.74 136.555 15.39C136.66 15.04 136.712 14.6325 136.712 14.1675L137.59 14.4375C137.59 15.2175 137.447 15.89 137.162 16.455C136.882 17.02 136.485 17.455 135.97 17.76C135.46 18.06 134.857 18.21 134.162 18.21ZM136.862 18V15.8325H136.712V9.9H138.055V18H136.862ZM143.567 18.225C142.747 18.225 142.049 18.0425 141.474 17.6775C140.904 17.3075 140.469 16.8 140.169 16.155C139.869 15.51 139.714 14.775 139.704 13.95C139.714 13.105 139.872 12.3625 140.177 11.7225C140.487 11.0775 140.929 10.575 141.504 10.215C142.079 9.855 142.772 9.675 143.582 9.675C144.437 9.675 145.172 9.885 145.787 10.305C146.407 10.725 146.822 11.3 147.032 12.03L145.712 12.4275C145.542 11.9575 145.264 11.5925 144.879 11.3325C144.499 11.0725 144.062 10.9425 143.567 10.9425C143.012 10.9425 142.554 11.0725 142.194 11.3325C141.834 11.5875 141.567 11.9425 141.392 12.3975C141.217 12.8475 141.127 13.365 141.122 13.95C141.132 14.85 141.339 15.5775 141.744 16.1325C142.154 16.6825 142.762 16.9575 143.567 16.9575C144.097 16.9575 144.537 16.8375 144.887 16.5975C145.237 16.3525 145.502 16 145.682 15.54L147.032 15.8925C146.752 16.6475 146.314 17.225 145.719 17.625C145.124 18.025 144.407 18.225 143.567 18.225ZM153.085 18C152.605 18.095 152.13 18.1325 151.66 18.1125C151.195 18.0975 150.78 18.005 150.415 17.835C150.05 17.66 149.773 17.39 149.583 17.025C149.423 16.705 149.335 16.3825 149.32 16.0575C149.31 15.7275 149.305 15.355 149.305 14.94V7.65H150.64V14.88C150.64 15.21 150.643 15.4925 150.648 15.7275C150.658 15.9625 150.71 16.165 150.805 16.335C150.985 16.655 151.27 16.8425 151.66 16.8975C152.055 16.9525 152.53 16.9375 153.085 16.8525V18ZM147.663 11.0025V9.9H153.085V11.0025H147.663ZM157.79 18.2175C156.825 18.2175 156.032 18.0075 155.412 17.5875C154.797 17.1625 154.42 16.57 154.28 15.81L155.645 15.5925C155.755 16.0325 156.007 16.3825 156.402 16.6425C156.797 16.8975 157.287 17.025 157.872 17.025C158.427 17.025 158.862 16.91 159.177 16.68C159.492 16.45 159.65 16.1375 159.65 15.7425C159.65 15.5125 159.597 15.3275 159.492 15.1875C159.387 15.0425 159.17 14.9075 158.84 14.7825C158.515 14.6575 158.022 14.5075 157.362 14.3325C156.647 14.1425 156.085 13.945 155.675 13.74C155.265 13.535 154.972 13.2975 154.797 13.0275C154.622 12.7575 154.535 12.43 154.535 12.045C154.535 11.57 154.665 11.155 154.925 10.8C155.185 10.44 155.547 10.1625 156.012 9.9675C156.482 9.7725 157.027 9.675 157.647 9.675C158.262 9.675 158.812 9.7725 159.297 9.9675C159.782 10.1625 160.172 10.44 160.467 10.8C160.767 11.155 160.945 11.57 161 12.045L159.635 12.2925C159.57 11.8575 159.36 11.515 159.005 11.265C158.655 11.015 158.202 10.8825 157.647 10.8675C157.122 10.8475 156.695 10.94 156.365 11.145C156.04 11.35 155.877 11.6275 155.877 11.9775C155.877 12.1725 155.937 12.34 156.057 12.48C156.182 12.62 156.41 12.7525 156.74 12.8775C157.075 13.0025 157.56 13.145 158.195 13.305C158.91 13.485 159.472 13.6825 159.882 13.8975C160.297 14.1075 160.592 14.3575 160.767 14.6475C160.942 14.9325 161.03 15.285 161.03 15.705C161.03 16.485 160.742 17.1 160.167 17.55C159.592 17.995 158.8 18.2175 157.79 18.2175Z" fill="white"/>
<path d="M10.3187 9.76801L11.6813 11.232L4.55393 17.8661L0.318665 13.924L1.68132 12.46L4.55299 15.134L10.3187 9.76801Z" fill="#3EE9E5"/>
</g>
<g clip-path="url(#clip1_0_4052)">
<path d="M28.05 55V44.2H32.2575C32.9025 44.2 33.4525 44.3325 33.9075 44.5975C34.3675 44.8625 34.7175 45.2125 34.9575 45.6475C35.2025 46.0775 35.325 46.5425 35.325 47.0425C35.325 47.6275 35.175 48.14 34.875 48.58C34.575 49.02 34.17 49.3225 33.66 49.4875L33.645 49.12C34.34 49.305 34.88 49.645 35.265 50.14C35.65 50.635 35.8425 51.225 35.8425 51.91C35.8425 52.54 35.7125 53.085 35.4525 53.545C35.1975 54.005 34.8275 54.3625 34.3425 54.6175C33.8625 54.8725 33.2925 55 32.6325 55H28.05ZM29.4 53.725H32.3775C32.7775 53.725 33.135 53.6525 33.45 53.5075C33.765 53.3575 34.0125 53.1475 34.1925 52.8775C34.3775 52.6075 34.47 52.2825 34.47 51.9025C34.47 51.5375 34.3875 51.21 34.2225 50.92C34.0625 50.63 33.835 50.4 33.54 50.23C33.25 50.055 32.9125 49.9675 32.5275 49.9675H29.4V53.725ZM29.4 48.7075H32.2425C32.5625 48.7075 32.85 48.64 33.105 48.505C33.365 48.365 33.57 48.17 33.72 47.92C33.875 47.67 33.9525 47.3775 33.9525 47.0425C33.9525 46.5775 33.795 46.1975 33.48 45.9025C33.165 45.6075 32.7525 45.46 32.2425 45.46H29.4V48.7075ZM39.6396 55.225C39.0346 55.225 38.5271 55.115 38.1171 54.895C37.7121 54.67 37.4046 54.375 37.1946 54.01C36.9896 53.645 36.8871 53.245 36.8871 52.81C36.8871 52.385 36.9671 52.0175 37.1271 51.7075C37.2921 51.3925 37.5221 51.1325 37.8171 50.9275C38.1121 50.7175 38.4646 50.5525 38.8746 50.4325C39.2596 50.3275 39.6896 50.2375 40.1646 50.1625C40.6446 50.0825 41.1296 50.01 41.6196 49.945C42.1096 49.88 42.5671 49.8175 42.9921 49.7575L42.5121 50.035C42.5271 49.315 42.3821 48.7825 42.0771 48.4375C41.7771 48.0925 41.2571 47.92 40.5171 47.92C40.0271 47.92 39.5971 48.0325 39.2271 48.2575C38.8621 48.4775 38.6046 48.8375 38.4546 49.3375L37.1871 48.955C37.3821 48.245 37.7596 47.6875 38.3196 47.2825C38.8796 46.8775 39.6171 46.675 40.5321 46.675C41.2671 46.675 41.8971 46.8075 42.4221 47.0725C42.9521 47.3325 43.3321 47.7275 43.5621 48.2575C43.6771 48.5075 43.7496 48.78 43.7796 49.075C43.8096 49.365 43.8246 49.67 43.8246 49.99V55H42.6396V53.0575L42.9171 53.2375C42.6121 53.8925 42.1846 54.3875 41.6346 54.7225C41.0896 55.0575 40.4246 55.225 39.6396 55.225ZM39.8421 54.1075C40.3221 54.1075 40.7371 54.0225 41.0871 53.8525C41.4421 53.6775 41.7271 53.45 41.9421 53.17C42.1571 52.885 42.2971 52.575 42.3621 52.24C42.4371 51.99 42.4771 51.7125 42.4821 51.4075C42.4921 51.0975 42.4971 50.86 42.4971 50.695L42.9621 50.8975C42.5271 50.9575 42.0996 51.015 41.6796 51.07C41.2596 51.125 40.8621 51.185 40.4871 51.25C40.1121 51.31 39.7746 51.3825 39.4746 51.4675C39.2546 51.5375 39.0471 51.6275 38.8521 51.7375C38.6621 51.8475 38.5071 51.99 38.3871 52.165C38.2721 52.335 38.2146 52.5475 38.2146 52.8025C38.2146 53.0225 38.2696 53.2325 38.3796 53.4325C38.4946 53.6325 38.6696 53.795 38.9046 53.92C39.1446 54.045 39.4571 54.1075 39.8421 54.1075ZM48.8346 55.2175C47.8696 55.2175 47.0771 55.0075 46.4571 54.5875C45.8421 54.1625 45.4646 53.57 45.3246 52.81L46.6896 52.5925C46.7996 53.0325 47.0521 53.3825 47.4471 53.6425C47.8421 53.8975 48.3321 54.025 48.9171 54.025C49.4721 54.025 49.9071 53.91 50.2221 53.68C50.5371 53.45 50.6946 53.1375 50.6946 52.7425C50.6946 52.5125 50.6421 52.3275 50.5371 52.1875C50.4321 52.0425 50.2146 51.9075 49.8846 51.7825C49.5596 51.6575 49.0671 51.5075 48.4071 51.3325C47.6921 51.1425 47.1296 50.945 46.7196 50.74C46.3096 50.535 46.0171 50.2975 45.8421 50.0275C45.6671 49.7575 45.5796 49.43 45.5796 49.045C45.5796 48.57 45.7096 48.155 45.9696 47.8C46.2296 47.44 46.5921 47.1625 47.0571 46.9675C47.5271 46.7725 48.0721 46.675 48.6921 46.675C49.3071 46.675 49.8571 46.7725 50.3421 46.9675C50.8271 47.1625 51.2171 47.44 51.5121 47.8C51.8121 48.155 51.9896 48.57 52.0446 49.045L50.6796 49.2925C50.6146 48.8575 50.4046 48.515 50.0496 48.265C49.6996 48.015 49.2471 47.8825 48.6921 47.8675C48.1671 47.8475 47.7396 47.94 47.4096 48.145C47.0846 48.35 46.9221 48.6275 46.9221 48.9775C46.9221 49.1725 46.9821 49.34 47.1021 49.48C47.2271 49.62 47.4546 49.7525 47.7846 49.8775C48.1196 50.0025 48.6046 50.145 49.2396 50.305C49.9546 50.485 50.5171 50.6825 50.9271 50.8975C51.3421 51.1075 51.6371 51.3575 51.8121 51.6475C51.9871 51.9325 52.0746 52.285 52.0746 52.705C52.0746 53.485 51.7871 54.1 51.2121 54.55C50.6371 54.995 49.8446 55.2175 48.8346 55.2175ZM53.8787 45.4675V44.0875H55.2137V45.4675H53.8787ZM53.8787 55V46.9H55.2137V55H53.8787ZM60.8766 55.225C60.0566 55.225 59.3591 55.0425 58.7841 54.6775C58.2141 54.3075 57.7791 53.8 57.4791 53.155C57.1791 52.51 57.0241 51.775 57.0141 50.95C57.0241 50.105 57.1816 49.3625 57.4866 48.7225C57.7966 48.0775 58.2391 47.575 58.8141 47.215C59.3891 46.855 60.0816 46.675 60.8916 46.675C61.7466 46.675 62.4816 46.885 63.0966 47.305C63.7166 47.725 64.1316 48.3 64.3416 49.03L63.0216 49.4275C62.8516 48.9575 62.5741 48.5925 62.1891 48.3325C61.8091 48.0725 61.3716 47.9425 60.8766 47.9425C60.3216 47.9425 59.8641 48.0725 59.5041 48.3325C59.1441 48.5875 58.8766 48.9425 58.7016 49.3975C58.5266 49.8475 58.4366 50.365 58.4316 50.95C58.4416 51.85 58.6491 52.5775 59.0541 53.1325C59.4641 53.6825 60.0716 53.9575 60.8766 53.9575C61.4066 53.9575 61.8466 53.8375 62.1966 53.5975C62.5466 53.3525 62.8116 53 62.9916 52.54L64.3416 52.8925C64.0616 53.6475 63.6241 54.225 63.0291 54.625C62.4341 55.025 61.7166 55.225 60.8766 55.225ZM71.1777 55.225C70.5727 55.225 70.0652 55.115 69.6552 54.895C69.2502 54.67 68.9427 54.375 68.7327 54.01C68.5277 53.645 68.4252 53.245 68.4252 52.81C68.4252 52.385 68.5052 52.0175 68.6652 51.7075C68.8302 51.3925 69.0602 51.1325 69.3552 50.9275C69.6502 50.7175 70.0027 50.5525 70.4127 50.4325C70.7977 50.3275 71.2277 50.2375 71.7027 50.1625C72.1827 50.0825 72.6677 50.01 73.1577 49.945C73.6477 49.88 74.1052 49.8175 74.5302 49.7575L74.0502 50.035C74.0652 49.315 73.9202 48.7825 73.6152 48.4375C73.3152 48.0925 72.7952 47.92 72.0552 47.92C71.5652 47.92 71.1352 48.0325 70.7652 48.2575C70.4002 48.4775 70.1427 48.8375 69.9927 49.3375L68.7252 48.955C68.9202 48.245 69.2977 47.6875 69.8577 47.2825C70.4177 46.8775 71.1552 46.675 72.0702 46.675C72.8052 46.675 73.4352 46.8075 73.9602 47.0725C74.4902 47.3325 74.8702 47.7275 75.1002 48.2575C75.2152 48.5075 75.2877 48.78 75.3177 49.075C75.3477 49.365 75.3627 49.67 75.3627 49.99V55H74.1777V53.0575L74.4552 53.2375C74.1502 53.8925 73.7227 54.3875 73.1727 54.7225C72.6277 55.0575 71.9627 55.225 71.1777 55.225ZM71.3802 54.1075C71.8602 54.1075 72.2752 54.0225 72.6252 53.8525C72.9802 53.6775 73.2652 53.45 73.4802 53.17C73.6952 52.885 73.8352 52.575 73.9002 52.24C73.9752 51.99 74.0152 51.7125 74.0202 51.4075C74.0302 51.0975 74.0352 50.86 74.0352 50.695L74.5002 50.8975C74.0652 50.9575 73.6377 51.015 73.2177 51.07C72.7977 51.125 72.4002 51.185 72.0252 51.25C71.6502 51.31 71.3127 51.3825 71.0127 51.4675C70.7927 51.5375 70.5852 51.6275 70.3902 51.7375C70.2002 51.8475 70.0452 51.99 69.9252 52.165C69.8102 52.335 69.7527 52.5475 69.7527 52.8025C69.7527 53.0225 69.8077 53.2325 69.9177 53.4325C70.0327 53.6325 70.2077 53.795 70.4427 53.92C70.6827 54.045 70.9952 54.1075 71.3802 54.1075ZM83.0802 55V50.9425C83.0802 50.5575 83.0452 50.1875 82.9752 49.8325C82.9102 49.4775 82.7927 49.16 82.6227 48.88C82.4577 48.595 82.2327 48.37 81.9477 48.205C81.6677 48.04 81.3127 47.9575 80.8827 47.9575C80.5477 47.9575 80.2427 48.015 79.9677 48.13C79.6977 48.24 79.4652 48.41 79.2702 48.64C79.0752 48.87 78.9227 49.16 78.8127 49.51C78.7077 49.855 78.6552 50.2625 78.6552 50.7325L77.7777 50.4625C77.7777 49.6775 77.9177 49.005 78.1977 48.445C78.4827 47.88 78.8802 47.4475 79.3902 47.1475C79.9052 46.8425 80.5102 46.69 81.2052 46.69C81.7302 46.69 82.1777 46.7725 82.5477 46.9375C82.9177 47.1025 83.2252 47.3225 83.4702 47.5975C83.7152 47.8675 83.9077 48.1725 84.0477 48.5125C84.1877 48.8475 84.2852 49.19 84.3402 49.54C84.4002 49.885 84.4302 50.2125 84.4302 50.5225V55H83.0802ZM77.3052 55V46.9H78.5052V49.0675H78.6552V55H77.3052ZM88.6826 55.225C88.0776 55.225 87.5701 55.115 87.1601 54.895C86.7551 54.67 86.4476 54.375 86.2376 54.01C86.0326 53.645 85.9301 53.245 85.9301 52.81C85.9301 52.385 86.0101 52.0175 86.1701 51.7075C86.3351 51.3925 86.5651 51.1325 86.8601 50.9275C87.1551 50.7175 87.5076 50.5525 87.9176 50.4325C88.3026 50.3275 88.7326 50.2375 89.2076 50.1625C89.6876 50.0825 90.1726 50.01 90.6626 49.945C91.1526 49.88 91.6101 49.8175 92.0351 49.7575L91.5551 50.035C91.5701 49.315 91.4251 48.7825 91.1201 48.4375C90.8201 48.0925 90.3001 47.92 89.5601 47.92C89.0701 47.92 88.6401 48.0325 88.2701 48.2575C87.9051 48.4775 87.6476 48.8375 87.4976 49.3375L86.2301 48.955C86.4251 48.245 86.8026 47.6875 87.3626 47.2825C87.9226 46.8775 88.6601 46.675 89.5751 46.675C90.3101 46.675 90.9401 46.8075 91.4651 47.0725C91.9951 47.3325 92.3751 47.7275 92.6051 48.2575C92.7201 48.5075 92.7926 48.78 92.8226 49.075C92.8526 49.365 92.8676 49.67 92.8676 49.99V55H91.6826V53.0575L91.9601 53.2375C91.6551 53.8925 91.2276 54.3875 90.6776 54.7225C90.1326 55.0575 89.4676 55.225 88.6826 55.225ZM88.8851 54.1075C89.3651 54.1075 89.7801 54.0225 90.1301 53.8525C90.4851 53.6775 90.7701 53.45 90.9851 53.17C91.2001 52.885 91.3401 52.575 91.4051 52.24C91.4801 51.99 91.5201 51.7125 91.5251 51.4075C91.5351 51.0975 91.5401 50.86 91.5401 50.695L92.0051 50.8975C91.5701 50.9575 91.1426 51.015 90.7226 51.07C90.3026 51.125 89.9051 51.185 89.5301 51.25C89.1551 51.31 88.8176 51.3825 88.5176 51.4675C88.2976 51.5375 88.0901 51.6275 87.8951 51.7375C87.7051 51.8475 87.5501 51.99 87.4301 52.165C87.3151 52.335 87.2576 52.5475 87.2576 52.8025C87.2576 53.0225 87.3126 53.2325 87.4226 53.4325C87.5376 53.6325 87.7126 53.795 87.9476 53.92C88.1876 54.045 88.5001 54.1075 88.8851 54.1075ZM94.9676 55V43.975H96.3026V55H94.9676ZM99.6779 58.6L101.245 54.34L101.268 55.6L97.7279 46.9H99.1304L101.905 53.8975H101.425L104.028 46.9H105.385L100.975 58.6H99.6779ZM111.747 55C111.267 55.095 110.792 55.1325 110.322 55.1125C109.857 55.0975 109.442 55.005 109.077 54.835C108.712 54.66 108.435 54.39 108.245 54.025C108.085 53.705 107.997 53.3825 107.982 53.0575C107.972 52.7275 107.967 52.355 107.967 51.94V44.65H109.302V51.88C109.302 52.21 109.305 52.4925 109.31 52.7275C109.32 52.9625 109.372 53.165 109.467 53.335C109.647 53.655 109.932 53.8425 110.322 53.8975C110.717 53.9525 111.192 53.9375 111.747 53.8525V55ZM106.325 48.0025V46.9H111.747V48.0025H106.325ZM113.542 45.4675V44.0875H114.877V45.4675H113.542ZM113.542 55V46.9H114.877V55H113.542ZM120.54 55.225C119.72 55.225 119.022 55.0425 118.447 54.6775C117.877 54.3075 117.442 53.8 117.142 53.155C116.842 52.51 116.687 51.775 116.677 50.95C116.687 50.105 116.845 49.3625 117.15 48.7225C117.46 48.0775 117.902 47.575 118.477 47.215C119.052 46.855 119.745 46.675 120.555 46.675C121.41 46.675 122.145 46.885 122.76 47.305C123.38 47.725 123.795 48.3 124.005 49.03L122.685 49.4275C122.515 48.9575 122.237 48.5925 121.852 48.3325C121.472 48.0725 121.035 47.9425 120.54 47.9425C119.985 47.9425 119.527 48.0725 119.167 48.3325C118.807 48.5875 118.54 48.9425 118.365 49.3975C118.19 49.8475 118.1 50.365 118.095 50.95C118.105 51.85 118.312 52.5775 118.717 53.1325C119.127 53.6825 119.735 53.9575 120.54 53.9575C121.07 53.9575 121.51 53.8375 121.86 53.5975C122.21 53.3525 122.475 53 122.655 52.54L124.005 52.8925C123.725 53.6475 123.287 54.225 122.692 54.625C122.097 55.025 121.38 55.225 120.54 55.225ZM128.595 55.2175C127.63 55.2175 126.838 55.0075 126.218 54.5875C125.603 54.1625 125.225 53.57 125.085 52.81L126.45 52.5925C126.56 53.0325 126.813 53.3825 127.208 53.6425C127.603 53.8975 128.093 54.025 128.678 54.025C129.233 54.025 129.668 53.91 129.983 53.68C130.298 53.45 130.455 53.1375 130.455 52.7425C130.455 52.5125 130.403 52.3275 130.298 52.1875C130.193 52.0425 129.975 51.9075 129.645 51.7825C129.32 51.6575 128.828 51.5075 128.168 51.3325C127.453 51.1425 126.89 50.945 126.48 50.74C126.07 50.535 125.778 50.2975 125.603 50.0275C125.428 49.7575 125.34 49.43 125.34 49.045C125.34 48.57 125.47 48.155 125.73 47.8C125.99 47.44 126.353 47.1625 126.818 46.9675C127.288 46.7725 127.833 46.675 128.453 46.675C129.068 46.675 129.618 46.7725 130.103 46.9675C130.588 47.1625 130.978 47.44 131.273 47.8C131.573 48.155 131.75 48.57 131.805 49.045L130.44 49.2925C130.375 48.8575 130.165 48.515 129.81 48.265C129.46 48.015 129.008 47.8825 128.453 47.8675C127.928 47.8475 127.5 47.94 127.17 48.145C126.845 48.35 126.683 48.6275 126.683 48.9775C126.683 49.1725 126.743 49.34 126.863 49.48C126.988 49.62 127.215 49.7525 127.545 49.8775C127.88 50.0025 128.365 50.145 129 50.305C129.715 50.485 130.278 50.6825 130.688 50.8975C131.103 51.1075 131.398 51.3575 131.573 51.6475C131.748 51.9325 131.835 52.285 131.835 52.705C131.835 53.485 131.548 54.1 130.973 54.55C130.398 54.995 129.605 55.2175 128.595 55.2175Z" fill="white"/>
<path d="M10.3187 46.768L11.6813 48.232L4.55393 54.8661L0.318665 50.924L1.68132 49.46L4.55299 52.134L10.3187 46.768Z" fill="#3EE9E5"/>
</g>
<g clip-path="url(#clip2_0_4052)">
<path d="M28.2 92V81.2H29.535V90.7325H34.545V92H28.2ZM35.9637 82.4675V81.0875H37.2987V82.4675H35.9637ZM35.9637 92V83.9H37.2987V92H35.9637ZM49.2315 92L49.239 86.8175C49.239 86.2125 49.0765 85.74 48.7515 85.4C48.4315 85.055 48.014 84.8825 47.499 84.8825C47.199 84.8825 46.914 84.9525 46.644 85.0925C46.374 85.2275 46.154 85.4425 45.984 85.7375C45.814 86.0275 45.729 86.4 45.729 86.855L45.024 86.57C45.014 85.995 45.1315 85.4925 45.3765 85.0625C45.6265 84.6275 45.9665 84.29 46.3965 84.05C46.8265 83.81 47.3115 83.69 47.8515 83.69C48.6965 83.69 49.3615 83.9475 49.8465 84.4625C50.3315 84.9725 50.574 85.66 50.574 86.525L50.5665 92H49.2315ZM39.5415 92V83.9H40.734V86.0675H40.884V92H39.5415ZM44.394 92L44.4015 86.87C44.4015 86.25 44.2415 85.765 43.9215 85.415C43.6015 85.06 43.1765 84.8825 42.6465 84.8825C42.1215 84.8825 41.6965 85.0625 41.3715 85.4225C41.0465 85.7825 40.884 86.26 40.884 86.855L40.179 86.435C40.179 85.91 40.304 85.44 40.554 85.025C40.804 84.61 41.144 84.285 41.574 84.05C42.004 83.81 42.4915 83.69 43.0365 83.69C43.5815 83.69 44.0565 83.805 44.4615 84.035C44.8665 84.265 45.179 84.595 45.399 85.025C45.619 85.45 45.729 85.9575 45.729 86.5475L45.7215 92H44.394ZM52.6775 82.4675V81.0875H54.0125V82.4675H52.6775ZM52.6775 92V83.9H54.0125V92H52.6775ZM60.7854 92C60.3054 92.095 59.8304 92.1325 59.3604 92.1125C58.8954 92.0975 58.4804 92.005 58.1154 91.835C57.7504 91.66 57.4729 91.39 57.2829 91.025C57.1229 90.705 57.0354 90.3825 57.0204 90.0575C57.0104 89.7275 57.0054 89.355 57.0054 88.94V81.65H58.3404V88.88C58.3404 89.21 58.3429 89.4925 58.3479 89.7275C58.3579 89.9625 58.4104 90.165 58.5054 90.335C58.6854 90.655 58.9704 90.8425 59.3604 90.8975C59.7554 90.9525 60.2304 90.9375 60.7854 90.8525V92ZM55.3629 85.0025V83.9H60.7854V85.0025H55.3629ZM65.603 92.225C64.808 92.225 64.113 92.05 63.518 91.7C62.928 91.345 62.468 90.8525 62.138 90.2225C61.808 89.5875 61.643 88.8475 61.643 88.0025C61.643 87.1175 61.8055 86.3525 62.1305 85.7075C62.4555 85.0575 62.908 84.5575 63.488 84.2075C64.073 83.8525 64.758 83.675 65.543 83.675C66.358 83.675 67.0505 83.8625 67.6205 84.2375C68.1955 84.6125 68.6255 85.1475 68.9105 85.8425C69.2005 86.5375 69.3255 87.365 69.2855 88.325H67.9355V87.845C67.9205 86.85 67.718 86.1075 67.328 85.6175C66.938 85.1225 66.358 84.875 65.588 84.875C64.763 84.875 64.1355 85.14 63.7055 85.67C63.2755 86.2 63.0605 86.96 63.0605 87.95C63.0605 88.905 63.2755 89.645 63.7055 90.17C64.1355 90.695 64.748 90.9575 65.543 90.9575C66.078 90.9575 66.543 90.835 66.938 90.59C67.333 90.345 67.643 89.9925 67.868 89.5325L69.1505 89.975C68.8355 90.69 68.3605 91.245 67.7255 91.64C67.0955 92.03 66.388 92.225 65.603 92.225ZM62.6105 88.325V87.2525H68.5955V88.325H62.6105ZM74.1353 92.225C73.3803 92.225 72.7328 92.0375 72.1928 91.6625C71.6528 91.2825 71.2353 90.77 70.9403 90.125C70.6503 89.48 70.5053 88.7525 70.5053 87.9425C70.5053 87.1325 70.6503 86.405 70.9403 85.76C71.2353 85.115 71.6528 84.6075 72.1928 84.2375C72.7328 83.8625 73.3778 83.675 74.1278 83.675C74.8928 83.675 75.5353 83.86 76.0553 84.23C76.5753 84.6 76.9678 85.1075 77.2328 85.7525C77.5028 86.3975 77.6378 87.1275 77.6378 87.9425C77.6378 88.7475 77.5028 89.475 77.2328 90.125C76.9678 90.77 76.5753 91.2825 76.0553 91.6625C75.5353 92.0375 74.8953 92.225 74.1353 92.225ZM74.3003 91.0025C74.8453 91.0025 75.2928 90.8725 75.6428 90.6125C75.9928 90.3475 76.2503 89.985 76.4153 89.525C76.5853 89.06 76.6703 88.5325 76.6703 87.9425C76.6703 87.3425 76.5853 86.815 76.4153 86.36C76.2503 85.9 75.9953 85.5425 75.6503 85.2875C75.3053 85.0275 74.8678 84.8975 74.3378 84.8975C73.7878 84.8975 73.3328 85.0325 72.9728 85.3025C72.6178 85.5725 72.3528 85.9375 72.1778 86.3975C72.0078 86.8575 71.9228 87.3725 71.9228 87.9425C71.9228 88.5175 72.0103 89.0375 72.1853 89.5025C72.3603 89.9625 72.6228 90.3275 72.9728 90.5975C73.3278 90.8675 73.7703 91.0025 74.3003 91.0025ZM76.6703 92V86.0375H76.5203V81.2H77.8628V92H76.6703ZM92.6495 92L92.657 86.8175C92.657 86.2125 92.4945 85.74 92.1695 85.4C91.8495 85.055 91.432 84.8825 90.917 84.8825C90.617 84.8825 90.332 84.9525 90.062 85.0925C89.792 85.2275 89.572 85.4425 89.402 85.7375C89.232 86.0275 89.147 86.4 89.147 86.855L88.442 86.57C88.432 85.995 88.5495 85.4925 88.7945 85.0625C89.0445 84.6275 89.3845 84.29 89.8145 84.05C90.2445 83.81 90.7295 83.69 91.2695 83.69C92.1145 83.69 92.7795 83.9475 93.2645 84.4625C93.7495 84.9725 93.992 85.66 93.992 86.525L93.9845 92H92.6495ZM82.9595 92V83.9H84.152V86.0675H84.302V92H82.9595ZM87.812 92L87.8195 86.87C87.8195 86.25 87.6595 85.765 87.3395 85.415C87.0195 85.06 86.5945 84.8825 86.0645 84.8825C85.5395 84.8825 85.1145 85.0625 84.7895 85.4225C84.4645 85.7825 84.302 86.26 84.302 86.855L83.597 86.435C83.597 85.91 83.722 85.44 83.972 85.025C84.222 84.61 84.562 84.285 84.992 84.05C85.422 83.81 85.9095 83.69 86.4545 83.69C86.9995 83.69 87.4745 83.805 87.8795 84.035C88.2845 84.265 88.597 84.595 88.817 85.025C89.037 85.45 89.147 85.9575 89.147 86.5475L89.1395 92H87.812ZM98.248 92.225C97.643 92.225 97.1355 92.115 96.7255 91.895C96.3205 91.67 96.013 91.375 95.803 91.01C95.598 90.645 95.4955 90.245 95.4955 89.81C95.4955 89.385 95.5755 89.0175 95.7355 88.7075C95.9005 88.3925 96.1305 88.1325 96.4255 87.9275C96.7205 87.7175 97.073 87.5525 97.483 87.4325C97.868 87.3275 98.298 87.2375 98.773 87.1625C99.253 87.0825 99.738 87.01 100.228 86.945C100.718 86.88 101.176 86.8175 101.601 86.7575L101.121 87.035C101.136 86.315 100.991 85.7825 100.686 85.4375C100.386 85.0925 99.8655 84.92 99.1255 84.92C98.6355 84.92 98.2055 85.0325 97.8355 85.2575C97.4705 85.4775 97.213 85.8375 97.063 86.3375L95.7955 85.955C95.9905 85.245 96.368 84.6875 96.928 84.2825C97.488 83.8775 98.2255 83.675 99.1405 83.675C99.8755 83.675 100.506 83.8075 101.031 84.0725C101.561 84.3325 101.941 84.7275 102.171 85.2575C102.286 85.5075 102.358 85.78 102.388 86.075C102.418 86.365 102.433 86.67 102.433 86.99V92H101.248V90.0575L101.526 90.2375C101.221 90.8925 100.793 91.3875 100.243 91.7225C99.698 92.0575 99.033 92.225 98.248 92.225ZM98.4505 91.1075C98.9305 91.1075 99.3455 91.0225 99.6955 90.8525C100.051 90.6775 100.336 90.45 100.551 90.17C100.766 89.885 100.906 89.575 100.971 89.24C101.046 88.99 101.086 88.7125 101.091 88.4075C101.101 88.0975 101.106 87.86 101.106 87.695L101.571 87.8975C101.136 87.9575 100.708 88.015 100.288 88.07C99.868 88.125 99.4705 88.185 99.0955 88.25C98.7205 88.31 98.383 88.3825 98.083 88.4675C97.863 88.5375 97.6555 88.6275 97.4605 88.7375C97.2705 88.8475 97.1155 88.99 96.9955 89.165C96.8805 89.335 96.823 89.5475 96.823 89.8025C96.823 90.0225 96.878 90.2325 96.988 90.4325C97.103 90.6325 97.278 90.795 97.513 90.92C97.753 91.045 98.0655 91.1075 98.4505 91.1075ZM104.383 92V83.9H105.576V85.8575L105.381 85.6025C105.476 85.3525 105.598 85.1225 105.748 84.9125C105.903 84.7025 106.076 84.53 106.266 84.395C106.476 84.225 106.713 84.095 106.978 84.005C107.243 83.915 107.513 83.8625 107.788 83.8475C108.063 83.8275 108.321 83.845 108.561 83.9V85.1525C108.281 85.0775 107.973 85.0575 107.638 85.0925C107.303 85.1275 106.993 85.25 106.708 85.46C106.448 85.645 106.246 85.87 106.101 86.135C105.961 86.4 105.863 86.6875 105.808 86.9975C105.753 87.3025 105.726 87.615 105.726 87.935V92H104.383ZM109.971 92L109.979 81.2H111.329V87.8L114.726 83.9H116.459L112.881 87.95L116.879 92H115.011L111.329 88.1V92H109.971ZM120.989 92.225C120.194 92.225 119.499 92.05 118.904 91.7C118.314 91.345 117.854 90.8525 117.524 90.2225C117.194 89.5875 117.029 88.8475 117.029 88.0025C117.029 87.1175 117.191 86.3525 117.516 85.7075C117.841 85.0575 118.294 84.5575 118.874 84.2075C119.459 83.8525 120.144 83.675 120.929 83.675C121.744 83.675 122.436 83.8625 123.006 84.2375C123.581 84.6125 124.011 85.1475 124.296 85.8425C124.586 86.5375 124.711 87.365 124.671 88.325H123.321V87.845C123.306 86.85 123.104 86.1075 122.714 85.6175C122.324 85.1225 121.744 84.875 120.974 84.875C120.149 84.875 119.521 85.14 119.091 85.67C118.661 86.2 118.446 86.96 118.446 87.95C118.446 88.905 118.661 89.645 119.091 90.17C119.521 90.695 120.134 90.9575 120.929 90.9575C121.464 90.9575 121.929 90.835 122.324 90.59C122.719 90.345 123.029 89.9925 123.254 89.5325L124.536 89.975C124.221 90.69 123.746 91.245 123.111 91.64C122.481 92.03 121.774 92.225 120.989 92.225ZM117.996 88.325V87.2525H123.981V88.325H117.996ZM130.864 92C130.384 92.095 129.909 92.1325 129.439 92.1125C128.974 92.0975 128.559 92.005 128.194 91.835C127.829 91.66 127.551 91.39 127.361 91.025C127.201 90.705 127.114 90.3825 127.099 90.0575C127.089 89.7275 127.084 89.355 127.084 88.94V81.65H128.419V88.88C128.419 89.21 128.421 89.4925 128.426 89.7275C128.436 89.9625 128.489 90.165 128.584 90.335C128.764 90.655 129.049 90.8425 129.439 90.8975C129.834 90.9525 130.309 90.9375 130.864 90.8525V92ZM125.441 85.0025V83.9H130.864V85.0025H125.441ZM136.228 92.225C135.468 92.225 134.828 92.0375 134.308 91.6625C133.788 91.2825 133.393 90.77 133.123 90.125C132.858 89.475 132.726 88.7475 132.726 87.9425C132.726 87.1275 132.858 86.3975 133.123 85.7525C133.393 85.1075 133.788 84.6 134.308 84.23C134.833 83.86 135.476 83.675 136.236 83.675C136.986 83.675 137.631 83.8625 138.171 84.2375C138.716 84.6075 139.133 85.115 139.423 85.76C139.713 86.405 139.858 87.1325 139.858 87.9425C139.858 88.7525 139.713 89.48 139.423 90.125C139.133 90.77 138.716 91.2825 138.171 91.6625C137.631 92.0375 136.983 92.225 136.228 92.225ZM132.501 95.6V83.9H133.693V89.8625H133.843V95.6H132.501ZM136.063 91.0025C136.598 91.0025 137.041 90.8675 137.391 90.5975C137.741 90.3275 138.003 89.9625 138.178 89.5025C138.353 89.0375 138.441 88.5175 138.441 87.9425C138.441 87.3725 138.353 86.8575 138.178 86.3975C138.008 85.9375 137.743 85.5725 137.383 85.3025C137.028 85.0325 136.576 84.8975 136.026 84.8975C135.501 84.8975 135.066 85.0275 134.721 85.2875C134.376 85.5425 134.118 85.9 133.948 86.36C133.778 86.815 133.693 87.3425 133.693 87.9425C133.693 88.5325 133.776 89.06 133.941 89.525C134.111 89.985 134.371 90.3475 134.721 90.6125C135.071 90.8725 135.518 91.0025 136.063 91.0025ZM141.652 92V80.975H142.987V92H141.652ZM147.54 92.225C146.935 92.225 146.428 92.115 146.018 91.895C145.613 91.67 145.305 91.375 145.095 91.01C144.89 90.645 144.788 90.245 144.788 89.81C144.788 89.385 144.868 89.0175 145.028 88.7075C145.193 88.3925 145.423 88.1325 145.718 87.9275C146.013 87.7175 146.365 87.5525 146.775 87.4325C147.16 87.3275 147.59 87.2375 148.065 87.1625C148.545 87.0825 149.03 87.01 149.52 86.945C150.01 86.88 150.468 86.8175 150.893 86.7575L150.413 87.035C150.428 86.315 150.283 85.7825 149.978 85.4375C149.678 85.0925 149.158 84.92 148.418 84.92C147.928 84.92 147.498 85.0325 147.128 85.2575C146.763 85.4775 146.505 85.8375 146.355 86.3375L145.088 85.955C145.283 85.245 145.66 84.6875 146.22 84.2825C146.78 83.8775 147.518 83.675 148.433 83.675C149.168 83.675 149.798 83.8075 150.323 84.0725C150.853 84.3325 151.233 84.7275 151.463 85.2575C151.578 85.5075 151.65 85.78 151.68 86.075C151.71 86.365 151.725 86.67 151.725 86.99V92H150.54V90.0575L150.818 90.2375C150.513 90.8925 150.085 91.3875 149.535 91.7225C148.99 92.0575 148.325 92.225 147.54 92.225ZM147.743 91.1075C148.223 91.1075 148.638 91.0225 148.988 90.8525C149.343 90.6775 149.628 90.45 149.843 90.17C150.058 89.885 150.198 89.575 150.263 89.24C150.338 88.99 150.378 88.7125 150.383 88.4075C150.393 88.0975 150.398 87.86 150.398 87.695L150.863 87.8975C150.428 87.9575 150 88.015 149.58 88.07C149.16 88.125 148.763 88.185 148.388 88.25C148.013 88.31 147.675 88.3825 147.375 88.4675C147.155 88.5375 146.948 88.6275 146.753 88.7375C146.563 88.8475 146.408 88.99 146.288 89.165C146.172 89.335 146.115 89.5475 146.115 89.8025C146.115 90.0225 146.17 90.2325 146.28 90.4325C146.395 90.6325 146.57 90.795 146.805 90.92C147.045 91.045 147.358 91.1075 147.743 91.1075ZM157.088 92.225C156.268 92.225 155.57 92.0425 154.995 91.6775C154.425 91.3075 153.99 90.8 153.69 90.155C153.39 89.51 153.235 88.775 153.225 87.95C153.235 87.105 153.393 86.3625 153.698 85.7225C154.008 85.0775 154.45 84.575 155.025 84.215C155.6 83.855 156.293 83.675 157.103 83.675C157.958 83.675 158.693 83.885 159.308 84.305C159.928 84.725 160.343 85.3 160.553 86.03L159.233 86.4275C159.063 85.9575 158.785 85.5925 158.4 85.3325C158.02 85.0725 157.583 84.9425 157.088 84.9425C156.533 84.9425 156.075 85.0725 155.715 85.3325C155.355 85.5875 155.088 85.9425 154.913 86.3975C154.738 86.8475 154.648 87.365 154.643 87.95C154.653 88.85 154.86 89.5775 155.265 90.1325C155.675 90.6825 156.283 90.9575 157.088 90.9575C157.618 90.9575 158.058 90.8375 158.408 90.5975C158.758 90.3525 159.023 90 159.203 89.54L160.553 89.8925C160.273 90.6475 159.835 91.225 159.24 91.625C158.645 92.025 157.928 92.225 157.088 92.225ZM165.373 92.225C164.578 92.225 163.883 92.05 163.288 91.7C162.698 91.345 162.238 90.8525 161.908 90.2225C161.578 89.5875 161.413 88.8475 161.413 88.0025C161.413 87.1175 161.576 86.3525 161.901 85.7075C162.226 85.0575 162.678 84.5575 163.258 84.2075C163.843 83.8525 164.528 83.675 165.313 83.675C166.128 83.675 166.821 83.8625 167.391 84.2375C167.966 84.6125 168.396 85.1475 168.681 85.8425C168.971 86.5375 169.096 87.365 169.056 88.325H167.706V87.845C167.691 86.85 167.488 86.1075 167.098 85.6175C166.708 85.1225 166.128 84.875 165.358 84.875C164.533 84.875 163.906 85.14 163.476 85.67C163.046 86.2 162.831 86.96 162.831 87.95C162.831 88.905 163.046 89.645 163.476 90.17C163.906 90.695 164.518 90.9575 165.313 90.9575C165.848 90.9575 166.313 90.835 166.708 90.59C167.103 90.345 167.413 89.9925 167.638 89.5325L168.921 89.975C168.606 90.69 168.131 91.245 167.496 91.64C166.866 92.03 166.158 92.225 165.373 92.225ZM162.381 88.325V87.2525H168.366V88.325H162.381ZM177.239 92.225C176.444 92.225 175.749 92.05 175.154 91.7C174.564 91.345 174.104 90.8525 173.774 90.2225C173.444 89.5875 173.279 88.8475 173.279 88.0025C173.279 87.1175 173.441 86.3525 173.766 85.7075C174.091 85.0575 174.544 84.5575 175.124 84.2075C175.709 83.8525 176.394 83.675 177.179 83.675C177.994 83.675 178.686 83.8625 179.256 84.2375C179.831 84.6125 180.261 85.1475 180.546 85.8425C180.836 86.5375 180.961 87.365 180.921 88.325H179.571V87.845C179.556 86.85 179.354 86.1075 178.964 85.6175C178.574 85.1225 177.994 84.875 177.224 84.875C176.399 84.875 175.771 85.14 175.341 85.67C174.911 86.2 174.696 86.96 174.696 87.95C174.696 88.905 174.911 89.645 175.341 90.17C175.771 90.695 176.384 90.9575 177.179 90.9575C177.714 90.9575 178.179 90.835 178.574 90.59C178.969 90.345 179.279 89.9925 179.504 89.5325L180.786 89.975C180.471 90.69 179.996 91.245 179.361 91.64C178.731 92.03 178.024 92.225 177.239 92.225ZM174.246 88.325V87.2525H180.231V88.325H174.246ZM181.398 92L184.496 87.905L181.466 83.9H183.056L185.276 86.87L187.473 83.9H189.063L186.033 87.905L189.138 92H187.541L185.276 88.94L182.996 92H181.398ZM194.06 92.225C193.3 92.225 192.66 92.0375 192.14 91.6625C191.62 91.2825 191.225 90.77 190.955 90.125C190.69 89.475 190.558 88.7475 190.558 87.9425C190.558 87.1275 190.69 86.3975 190.955 85.7525C191.225 85.1075 191.62 84.6 192.14 84.23C192.665 83.86 193.308 83.675 194.068 83.675C194.818 83.675 195.463 83.8625 196.003 84.2375C196.548 84.6075 196.965 85.115 197.255 85.76C197.545 86.405 197.69 87.1325 197.69 87.9425C197.69 88.7525 197.545 89.48 197.255 90.125C196.965 90.77 196.548 91.2825 196.003 91.6625C195.463 92.0375 194.815 92.225 194.06 92.225ZM190.333 95.6V83.9H191.525V89.8625H191.675V95.6H190.333ZM193.895 91.0025C194.43 91.0025 194.873 90.8675 195.223 90.5975C195.573 90.3275 195.835 89.9625 196.01 89.5025C196.185 89.0375 196.273 88.5175 196.273 87.9425C196.273 87.3725 196.185 86.8575 196.01 86.3975C195.84 85.9375 195.575 85.5725 195.215 85.3025C194.86 85.0325 194.408 84.8975 193.858 84.8975C193.333 84.8975 192.898 85.0275 192.553 85.2875C192.208 85.5425 191.95 85.9 191.78 86.36C191.61 86.815 191.525 87.3425 191.525 87.9425C191.525 88.5325 191.608 89.06 191.773 89.525C191.943 89.985 192.203 90.3475 192.553 90.6125C192.903 90.8725 193.35 91.0025 193.895 91.0025ZM202.784 92.225C201.979 92.225 201.284 92.0425 200.699 91.6775C200.119 91.3125 199.672 90.8075 199.357 90.1625C199.042 89.5175 198.884 88.7775 198.884 87.9425C198.884 87.0925 199.044 86.3475 199.364 85.7075C199.684 85.0675 200.137 84.57 200.722 84.215C201.307 83.855 201.994 83.675 202.784 83.675C203.594 83.675 204.292 83.8575 204.877 84.2225C205.462 84.5825 205.909 85.085 206.219 85.73C206.534 86.37 206.692 87.1075 206.692 87.9425C206.692 88.7875 206.534 89.5325 206.219 90.1775C205.904 90.8175 205.454 91.32 204.869 91.685C204.284 92.045 203.589 92.225 202.784 92.225ZM202.784 90.9575C203.624 90.9575 204.249 90.6775 204.659 90.1175C205.069 89.5575 205.274 88.8325 205.274 87.9425C205.274 87.0275 205.067 86.3 204.652 85.76C204.237 85.215 203.614 84.9425 202.784 84.9425C202.219 84.9425 201.754 85.07 201.389 85.325C201.024 85.58 200.752 85.9325 200.572 86.3825C200.392 86.8325 200.302 87.3525 200.302 87.9425C200.302 88.8525 200.512 89.5825 200.932 90.1325C201.352 90.6825 201.969 90.9575 202.784 90.9575ZM211.286 92.2175C210.321 92.2175 209.528 92.0075 208.908 91.5875C208.293 91.1625 207.916 90.57 207.776 89.81L209.141 89.5925C209.251 90.0325 209.503 90.3825 209.898 90.6425C210.293 90.8975 210.783 91.025 211.368 91.025C211.923 91.025 212.358 90.91 212.673 90.68C212.988 90.45 213.146 90.1375 213.146 89.7425C213.146 89.5125 213.093 89.3275 212.988 89.1875C212.883 89.0425 212.666 88.9075 212.336 88.7825C212.011 88.6575 211.518 88.5075 210.858 88.3325C210.143 88.1425 209.581 87.945 209.171 87.74C208.761 87.535 208.468 87.2975 208.293 87.0275C208.118 86.7575 208.031 86.43 208.031 86.045C208.031 85.57 208.161 85.155 208.421 84.8C208.681 84.44 209.043 84.1625 209.508 83.9675C209.978 83.7725 210.523 83.675 211.143 83.675C211.758 83.675 212.308 83.7725 212.793 83.9675C213.278 84.1625 213.668 84.44 213.963 84.8C214.263 85.155 214.441 85.57 214.496 86.045L213.131 86.2925C213.066 85.8575 212.856 85.515 212.501 85.265C212.151 85.015 211.698 84.8825 211.143 84.8675C210.618 84.8475 210.191 84.94 209.861 85.145C209.536 85.35 209.373 85.6275 209.373 85.9775C209.373 86.1725 209.433 86.34 209.553 86.48C209.678 86.62 209.906 86.7525 210.236 86.8775C210.571 87.0025 211.056 87.145 211.691 87.305C212.406 87.485 212.968 87.6825 213.378 87.8975C213.793 88.1075 214.088 88.3575 214.263 88.6475C214.438 88.9325 214.526 89.285 214.526 89.705C214.526 90.485 214.238 91.1 213.663 91.55C213.088 91.995 212.296 92.2175 211.286 92.2175ZM219.255 92.21C218.735 92.21 218.287 92.1275 217.912 91.9625C217.542 91.7975 217.235 91.5775 216.99 91.3025C216.745 91.0275 216.552 90.7225 216.412 90.3875C216.272 90.0525 216.172 89.71 216.112 89.36C216.057 89.01 216.03 88.6825 216.03 88.3775V83.9H217.38V87.9575C217.38 88.3375 217.415 88.705 217.485 89.06C217.555 89.415 217.672 89.735 217.837 90.02C218.007 90.305 218.232 90.53 218.512 90.695C218.797 90.86 219.152 90.9425 219.577 90.9425C219.912 90.9425 220.217 90.885 220.492 90.77C220.767 90.655 221.002 90.485 221.197 90.26C221.392 90.03 221.542 89.74 221.647 89.39C221.752 89.04 221.805 88.6325 221.805 88.1675L222.682 88.4375C222.682 89.2175 222.54 89.89 222.255 90.455C221.975 91.02 221.577 91.455 221.062 91.76C220.552 92.06 219.95 92.21 219.255 92.21ZM221.955 92V89.8325H221.805V83.9H223.147V92H221.955ZM225.247 92V83.9H226.44V85.8575L226.245 85.6025C226.34 85.3525 226.462 85.1225 226.612 84.9125C226.767 84.7025 226.94 84.53 227.13 84.395C227.34 84.225 227.577 84.095 227.842 84.005C228.107 83.915 228.377 83.8625 228.652 83.8475C228.927 83.8275 229.185 83.845 229.425 83.9V85.1525C229.145 85.0775 228.837 85.0575 228.502 85.0925C228.167 85.1275 227.857 85.25 227.572 85.46C227.312 85.645 227.11 85.87 226.965 86.135C226.825 86.4 226.727 86.6875 226.672 86.9975C226.617 87.3025 226.59 87.615 226.59 87.935V92H225.247ZM234.206 92.225C233.411 92.225 232.716 92.05 232.121 91.7C231.531 91.345 231.071 90.8525 230.741 90.2225C230.411 89.5875 230.246 88.8475 230.246 88.0025C230.246 87.1175 230.409 86.3525 230.734 85.7075C231.059 85.0575 231.511 84.5575 232.091 84.2075C232.676 83.8525 233.361 83.675 234.146 83.675C234.961 83.675 235.654 83.8625 236.224 84.2375C236.799 84.6125 237.229 85.1475 237.514 85.8425C237.804 86.5375 237.929 87.365 237.889 88.325H236.539V87.845C236.524 86.85 236.321 86.1075 235.931 85.6175C235.541 85.1225 234.961 84.875 234.191 84.875C233.366 84.875 232.739 85.14 232.309 85.67C231.879 86.2 231.664 86.96 231.664 87.95C231.664 88.905 231.879 89.645 232.309 90.17C232.739 90.695 233.351 90.9575 234.146 90.9575C234.681 90.9575 235.146 90.835 235.541 90.59C235.936 90.345 236.246 89.9925 236.471 89.5325L237.754 89.975C237.439 90.69 236.964 91.245 236.329 91.64C235.699 92.03 234.991 92.225 234.206 92.225ZM231.214 88.325V87.2525H237.199V88.325H231.214Z" fill="white"/>
<path d="M10.3187 83.768L11.6813 85.232L4.55393 91.8661L0.318665 87.924L1.68132 86.46L4.55299 89.134L10.3187 83.768Z" fill="#3EE9E5"/>
</g>
<g clip-path="url(#clip3_0_4052)">
<path d="M29.9325 129V119.677L27.9 120.908V119.415L29.9325 118.2H31.29V129H29.9325ZM37.7888 129.225C37.0888 129.225 36.4638 129.068 35.9138 128.753C35.3688 128.432 34.9363 128 34.6163 127.455C34.3013 126.905 34.1438 126.28 34.1438 125.58V121.62C34.1438 120.92 34.3013 120.295 34.6163 119.745C34.9363 119.195 35.3688 118.762 35.9138 118.447C36.4638 118.132 37.0888 117.975 37.7888 117.975C38.4888 117.975 39.1138 118.132 39.6638 118.447C40.2138 118.762 40.6463 119.195 40.9613 119.745C41.2763 120.295 41.4338 120.92 41.4338 121.62V125.58C41.4338 126.28 41.2763 126.905 40.9613 127.455C40.6463 128 40.2138 128.432 39.6638 128.753C39.1138 129.068 38.4888 129.225 37.7888 129.225ZM37.7888 127.942C38.2138 127.942 38.5988 127.84 38.9438 127.635C39.2888 127.43 39.5638 127.155 39.7688 126.81C39.9738 126.46 40.0763 126.075 40.0763 125.655V121.537C40.0763 121.112 39.9738 120.727 39.7688 120.382C39.5638 120.037 39.2888 119.762 38.9438 119.557C38.5988 119.352 38.2138 119.25 37.7888 119.25C37.3688 119.25 36.9838 119.352 36.6338 119.557C36.2888 119.762 36.0138 120.037 35.8088 120.382C35.6038 120.727 35.5013 121.112 35.5013 121.537V125.655C35.5013 126.075 35.6038 126.46 35.8088 126.81C36.0138 127.155 36.2888 127.43 36.6338 127.635C36.9838 127.84 37.3688 127.942 37.7888 127.942ZM44.7334 129L43.8334 128.1L53.7484 118.2L54.6484 119.1L44.7334 129ZM52.3984 129.225C51.9034 129.225 51.4509 129.105 51.0409 128.865C50.6359 128.62 50.3109 128.295 50.0659 127.89C49.8209 127.48 49.6984 127.025 49.6984 126.525C49.6984 126.035 49.8234 125.585 50.0734 125.175C50.3234 124.765 50.6534 124.437 51.0634 124.192C51.4734 123.947 51.9184 123.825 52.3984 123.825C52.8934 123.825 53.3459 123.947 53.7559 124.192C54.1659 124.432 54.4909 124.757 54.7309 125.167C54.9759 125.572 55.0984 126.025 55.0984 126.525C55.0984 127.025 54.9759 127.48 54.7309 127.89C54.4909 128.295 54.1659 128.62 53.7559 128.865C53.3459 129.105 52.8934 129.225 52.3984 129.225ZM52.3984 128.047C52.6734 128.047 52.9259 127.977 53.1559 127.837C53.3909 127.697 53.5759 127.512 53.7109 127.282C53.8509 127.052 53.9209 126.8 53.9209 126.525C53.9209 126.25 53.8509 125.997 53.7109 125.767C53.5759 125.532 53.3909 125.347 53.1559 125.213C52.9259 125.072 52.6734 125.002 52.3984 125.002C52.1234 125.002 51.8709 125.072 51.6409 125.213C51.4109 125.347 51.2259 125.532 51.0859 125.767C50.9459 125.997 50.8759 126.25 50.8759 126.525C50.8759 126.8 50.9459 127.052 51.0859 127.282C51.2259 127.512 51.4109 127.697 51.6409 127.837C51.8709 127.977 52.1234 128.047 52.3984 128.047ZM46.0834 123.375C45.5884 123.375 45.1359 123.255 44.7259 123.015C44.3159 122.77 43.9884 122.445 43.7434 122.04C43.5034 121.63 43.3834 121.175 43.3834 120.675C43.3834 120.185 43.5084 119.735 43.7584 119.325C44.0084 118.915 44.3384 118.587 44.7484 118.342C45.1584 118.097 45.6034 117.975 46.0834 117.975C46.5784 117.975 47.0284 118.097 47.4334 118.342C47.8434 118.582 48.1709 118.907 48.4159 119.317C48.6609 119.722 48.7834 120.175 48.7834 120.675C48.7834 121.175 48.6609 121.63 48.4159 122.04C48.1709 122.445 47.8434 122.77 47.4334 123.015C47.0284 123.255 46.5784 123.375 46.0834 123.375ZM46.0834 122.197C46.3584 122.197 46.6109 122.127 46.8409 121.987C47.0759 121.847 47.2609 121.662 47.3959 121.432C47.5359 121.202 47.6059 120.95 47.6059 120.675C47.6059 120.4 47.5359 120.147 47.3959 119.917C47.2609 119.682 47.0759 119.497 46.8409 119.362C46.6109 119.222 46.3584 119.152 46.0834 119.152C45.8084 119.152 45.5559 119.222 45.3259 119.362C45.0959 119.497 44.9109 119.682 44.7709 119.917C44.6309 120.147 44.5609 120.4 44.5609 120.675C44.5609 120.95 44.6309 121.202 44.7709 121.432C44.9109 121.662 45.0959 121.847 45.3259 121.987C45.5559 122.127 45.8084 122.197 46.0834 122.197ZM60.8293 129V120.457C60.8293 120.247 60.8393 120.035 60.8593 119.82C60.8793 119.6 60.9243 119.387 60.9943 119.182C61.0643 118.972 61.1793 118.78 61.3393 118.605C61.5243 118.4 61.7268 118.255 61.9468 118.17C62.1668 118.08 62.3893 118.025 62.6143 118.005C62.8443 117.985 63.0618 117.975 63.2668 117.975H64.2943V119.085H63.3418C62.9468 119.085 62.6518 119.182 62.4568 119.377C62.2618 119.567 62.1643 119.857 62.1643 120.247V129H60.8293ZM59.4568 122.002V120.9H64.2943V122.002H59.4568ZM68.7084 129.225C67.9134 129.225 67.2184 129.05 66.6234 128.7C66.0334 128.345 65.5734 127.852 65.2434 127.222C64.9134 126.587 64.7484 125.847 64.7484 125.002C64.7484 124.117 64.9109 123.352 65.2359 122.707C65.5609 122.057 66.0134 121.557 66.5934 121.207C67.1784 120.852 67.8634 120.675 68.6484 120.675C69.4634 120.675 70.1559 120.862 70.7259 121.237C71.3009 121.612 71.7309 122.147 72.0159 122.842C72.3059 123.537 72.4309 124.365 72.3909 125.325H71.0409V124.845C71.0259 123.85 70.8234 123.107 70.4334 122.617C70.0434 122.122 69.4634 121.875 68.6934 121.875C67.8684 121.875 67.2409 122.14 66.8109 122.67C66.3809 123.2 66.1659 123.96 66.1659 124.95C66.1659 125.905 66.3809 126.645 66.8109 127.17C67.2409 127.695 67.8534 127.957 68.6484 127.957C69.1834 127.957 69.6484 127.835 70.0434 127.59C70.4384 127.345 70.7484 126.992 70.9734 126.532L72.2559 126.975C71.9409 127.69 71.4659 128.245 70.8309 128.64C70.2009 129.03 69.4934 129.225 68.7084 129.225ZM65.7159 125.325V124.252H71.7009V125.325H65.7159ZM77.5707 129.225C76.7757 129.225 76.0807 129.05 75.4857 128.7C74.8957 128.345 74.4357 127.852 74.1057 127.222C73.7757 126.587 73.6107 125.847 73.6107 125.002C73.6107 124.117 73.7732 123.352 74.0982 122.707C74.4232 122.057 74.8757 121.557 75.4557 121.207C76.0407 120.852 76.7257 120.675 77.5107 120.675C78.3257 120.675 79.0182 120.862 79.5882 121.237C80.1632 121.612 80.5932 122.147 80.8782 122.842C81.1682 123.537 81.2932 124.365 81.2532 125.325H79.9032V124.845C79.8882 123.85 79.6857 123.107 79.2957 122.617C78.9057 122.122 78.3257 121.875 77.5557 121.875C76.7307 121.875 76.1032 122.14 75.6732 122.67C75.2432 123.2 75.0282 123.96 75.0282 124.95C75.0282 125.905 75.2432 126.645 75.6732 127.17C76.1032 127.695 76.7157 127.957 77.5107 127.957C78.0457 127.957 78.5107 127.835 78.9057 127.59C79.3007 127.345 79.6107 126.992 79.8357 126.532L81.1182 126.975C80.8032 127.69 80.3282 128.245 79.6932 128.64C79.0632 129.03 78.3557 129.225 77.5707 129.225ZM74.5782 125.325V124.252H80.5632V125.325H74.5782ZM89.646 129.225C88.886 129.225 88.246 129.038 87.726 128.662C87.206 128.282 86.811 127.77 86.541 127.125C86.276 126.475 86.1435 125.747 86.1435 124.942C86.1435 124.127 86.276 123.397 86.541 122.752C86.811 122.107 87.206 121.6 87.726 121.23C88.251 120.86 88.8935 120.675 89.6535 120.675C90.4035 120.675 91.0485 120.862 91.5885 121.237C92.1335 121.607 92.551 122.115 92.841 122.76C93.131 123.405 93.276 124.132 93.276 124.942C93.276 125.752 93.131 126.48 92.841 127.125C92.551 127.77 92.1335 128.282 91.5885 128.662C91.0485 129.038 90.401 129.225 89.646 129.225ZM85.9185 132.6V120.9H87.111V126.862H87.261V132.6H85.9185ZM89.481 128.002C90.016 128.002 90.4585 127.867 90.8085 127.597C91.1585 127.327 91.421 126.962 91.596 126.502C91.771 126.037 91.8585 125.517 91.8585 124.942C91.8585 124.372 91.771 123.857 91.596 123.397C91.426 122.937 91.161 122.572 90.801 122.302C90.446 122.032 89.9935 121.897 89.4435 121.897C88.9185 121.897 88.4835 122.027 88.1385 122.287C87.7935 122.542 87.536 122.9 87.366 123.36C87.196 123.815 87.111 124.342 87.111 124.942C87.111 125.532 87.1935 126.06 87.3585 126.525C87.5285 126.985 87.7885 127.347 88.1385 127.612C88.4885 127.872 88.936 128.002 89.481 128.002ZM98.4301 129.225C97.6351 129.225 96.9401 129.05 96.3451 128.7C95.7551 128.345 95.2951 127.852 94.9651 127.222C94.6351 126.587 94.4701 125.847 94.4701 125.002C94.4701 124.117 94.6326 123.352 94.9576 122.707C95.2826 122.057 95.7351 121.557 96.3151 121.207C96.9001 120.852 97.5851 120.675 98.3701 120.675C99.1851 120.675 99.8776 120.862 100.448 121.237C101.023 121.612 101.453 122.147 101.738 122.842C102.028 123.537 102.153 124.365 102.113 125.325H100.763V124.845C100.748 123.85 100.545 123.107 100.155 122.617C99.7651 122.122 99.1851 121.875 98.4151 121.875C97.5901 121.875 96.9626 122.14 96.5326 122.67C96.1026 123.2 95.8876 123.96 95.8876 124.95C95.8876 125.905 96.1026 126.645 96.5326 127.17C96.9626 127.695 97.5751 127.957 98.3701 127.957C98.9051 127.957 99.3701 127.835 99.7651 127.59C100.16 127.345 100.47 126.992 100.695 126.532L101.978 126.975C101.663 127.69 101.188 128.245 100.553 128.64C99.9226 129.03 99.2151 129.225 98.4301 129.225ZM95.4376 125.325V124.252H101.423V125.325H95.4376ZM103.782 129V120.9H104.975V122.857L104.78 122.602C104.875 122.352 104.997 122.122 105.147 121.912C105.302 121.702 105.475 121.53 105.665 121.395C105.875 121.225 106.112 121.095 106.377 121.005C106.642 120.915 106.912 120.862 107.187 120.847C107.462 120.827 107.72 120.845 107.96 120.9V122.152C107.68 122.077 107.372 122.057 107.037 122.092C106.702 122.127 106.392 122.25 106.107 122.46C105.847 122.645 105.645 122.87 105.5 123.135C105.36 123.4 105.262 123.687 105.207 123.997C105.152 124.302 105.125 124.615 105.125 124.935V129H103.782ZM116.904 129C116.424 129.095 115.949 129.133 115.479 129.113C115.014 129.098 114.599 129.005 114.234 128.835C113.869 128.66 113.591 128.39 113.401 128.025C113.241 127.705 113.154 127.382 113.139 127.057C113.129 126.727 113.124 126.355 113.124 125.94V118.65H114.459V125.88C114.459 126.21 114.461 126.492 114.466 126.727C114.476 126.962 114.529 127.165 114.624 127.335C114.804 127.655 115.089 127.842 115.479 127.898C115.874 127.952 116.349 127.937 116.904 127.852V129ZM111.481 122.002V120.9H116.904V122.002H111.481ZM118.548 129V120.9H119.741V122.857L119.546 122.602C119.641 122.352 119.763 122.122 119.913 121.912C120.068 121.702 120.241 121.53 120.431 121.395C120.641 121.225 120.878 121.095 121.143 121.005C121.408 120.915 121.678 120.862 121.953 120.847C122.228 120.827 122.486 120.845 122.726 120.9V122.152C122.446 122.077 122.138 122.057 121.803 122.092C121.468 122.127 121.158 122.25 120.873 122.46C120.613 122.645 120.411 122.87 120.266 123.135C120.126 123.4 120.028 123.687 119.973 123.997C119.918 124.302 119.891 124.615 119.891 124.935V129H118.548ZM126.183 129.225C125.578 129.225 125.07 129.115 124.66 128.895C124.255 128.67 123.948 128.375 123.738 128.01C123.533 127.645 123.43 127.245 123.43 126.81C123.43 126.385 123.51 126.017 123.67 125.707C123.835 125.392 124.065 125.132 124.36 124.927C124.655 124.717 125.008 124.552 125.418 124.432C125.803 124.327 126.233 124.237 126.708 124.162C127.188 124.082 127.673 124.01 128.163 123.945C128.653 123.88 129.11 123.817 129.535 123.757L129.055 124.035C129.07 123.315 128.925 122.782 128.62 122.437C128.32 122.092 127.8 121.92 127.06 121.92C126.57 121.92 126.14 122.032 125.77 122.257C125.405 122.477 125.148 122.837 124.998 123.337L123.73 122.955C123.925 122.245 124.303 121.687 124.863 121.282C125.423 120.877 126.16 120.675 127.075 120.675C127.81 120.675 128.44 120.807 128.965 121.072C129.495 121.332 129.875 121.727 130.105 122.257C130.22 122.507 130.293 122.78 130.323 123.075C130.353 123.365 130.368 123.67 130.368 123.99V129H129.183V127.057L129.46 127.237C129.155 127.892 128.728 128.387 128.178 128.722C127.633 129.058 126.968 129.225 126.183 129.225ZM126.385 128.107C126.865 128.107 127.28 128.022 127.63 127.852C127.985 127.677 128.27 127.45 128.485 127.17C128.7 126.885 128.84 126.575 128.905 126.24C128.98 125.99 129.02 125.712 129.025 125.407C129.035 125.097 129.04 124.86 129.04 124.695L129.505 124.897C129.07 124.957 128.643 125.015 128.223 125.07C127.803 125.125 127.405 125.185 127.03 125.25C126.655 125.31 126.318 125.382 126.018 125.467C125.798 125.537 125.59 125.627 125.395 125.737C125.205 125.847 125.05 125.99 124.93 126.165C124.815 126.335 124.758 126.547 124.758 126.802C124.758 127.022 124.813 127.232 124.923 127.432C125.038 127.632 125.213 127.795 125.448 127.92C125.688 128.045 126 128.107 126.385 128.107ZM138.085 129V124.942C138.085 124.557 138.05 124.187 137.98 123.832C137.915 123.477 137.798 123.16 137.628 122.88C137.463 122.595 137.238 122.37 136.953 122.205C136.673 122.04 136.318 121.957 135.888 121.957C135.553 121.957 135.248 122.015 134.973 122.13C134.703 122.24 134.47 122.41 134.275 122.64C134.08 122.87 133.928 123.16 133.818 123.51C133.713 123.855 133.66 124.262 133.66 124.732L132.783 124.462C132.783 123.677 132.923 123.005 133.203 122.445C133.488 121.88 133.885 121.447 134.395 121.147C134.91 120.842 135.515 120.69 136.21 120.69C136.735 120.69 137.183 120.772 137.553 120.937C137.923 121.102 138.23 121.322 138.475 121.597C138.72 121.867 138.913 122.172 139.053 122.512C139.193 122.847 139.29 123.19 139.345 123.54C139.405 123.885 139.435 124.212 139.435 124.522V129H138.085ZM132.31 129V120.9H133.51V123.067H133.66V129H132.31ZM144.445 129.218C143.48 129.218 142.687 129.007 142.067 128.587C141.452 128.162 141.075 127.57 140.935 126.81L142.3 126.592C142.41 127.032 142.662 127.382 143.057 127.642C143.452 127.897 143.942 128.025 144.527 128.025C145.082 128.025 145.517 127.91 145.832 127.68C146.147 127.45 146.305 127.137 146.305 126.742C146.305 126.512 146.252 126.327 146.147 126.187C146.042 126.042 145.825 125.907 145.495 125.782C145.17 125.657 144.677 125.507 144.017 125.332C143.302 125.142 142.74 124.945 142.33 124.74C141.92 124.535 141.627 124.297 141.452 124.027C141.277 123.757 141.19 123.43 141.19 123.045C141.19 122.57 141.32 122.155 141.58 121.8C141.84 121.44 142.202 121.162 142.667 120.967C143.137 120.772 143.682 120.675 144.302 120.675C144.917 120.675 145.467 120.772 145.952 120.967C146.437 121.162 146.827 121.44 147.122 121.8C147.422 122.155 147.6 122.57 147.655 123.045L146.29 123.292C146.225 122.857 146.015 122.515 145.66 122.265C145.31 122.015 144.857 121.882 144.302 121.867C143.777 121.847 143.35 121.94 143.02 122.145C142.695 122.35 142.532 122.627 142.532 122.977C142.532 123.172 142.592 123.34 142.712 123.48C142.837 123.62 143.065 123.752 143.395 123.877C143.73 124.002 144.215 124.145 144.85 124.305C145.565 124.485 146.127 124.682 146.537 124.897C146.952 125.107 147.247 125.357 147.422 125.647C147.597 125.932 147.685 126.285 147.685 126.705C147.685 127.485 147.397 128.1 146.822 128.55C146.247 128.995 145.455 129.218 144.445 129.218ZM151.642 129.225C151.037 129.225 150.529 129.115 150.119 128.895C149.714 128.67 149.407 128.375 149.197 128.01C148.992 127.645 148.889 127.245 148.889 126.81C148.889 126.385 148.969 126.017 149.129 125.707C149.294 125.392 149.524 125.132 149.819 124.927C150.114 124.717 150.467 124.552 150.877 124.432C151.262 124.327 151.692 124.237 152.167 124.162C152.647 124.082 153.132 124.01 153.622 123.945C154.112 123.88 154.569 123.817 154.994 123.757L154.514 124.035C154.529 123.315 154.384 122.782 154.079 122.437C153.779 122.092 153.259 121.92 152.519 121.92C152.029 121.92 151.599 122.032 151.229 122.257C150.864 122.477 150.607 122.837 150.457 123.337L149.189 122.955C149.384 122.245 149.762 121.687 150.322 121.282C150.882 120.877 151.619 120.675 152.534 120.675C153.269 120.675 153.899 120.807 154.424 121.072C154.954 121.332 155.334 121.727 155.564 122.257C155.679 122.507 155.752 122.78 155.782 123.075C155.812 123.365 155.827 123.67 155.827 123.99V129H154.642V127.057L154.919 127.237C154.614 127.892 154.187 128.387 153.637 128.722C153.092 129.058 152.427 129.225 151.642 129.225ZM151.844 128.107C152.324 128.107 152.739 128.022 153.089 127.852C153.444 127.677 153.729 127.45 153.944 127.17C154.159 126.885 154.299 126.575 154.364 126.24C154.439 125.99 154.479 125.712 154.484 125.407C154.494 125.097 154.499 124.86 154.499 124.695L154.964 124.897C154.529 124.957 154.102 125.015 153.682 125.07C153.262 125.125 152.864 125.185 152.489 125.25C152.114 125.31 151.777 125.382 151.477 125.467C151.257 125.537 151.049 125.627 150.854 125.737C150.664 125.847 150.509 125.99 150.389 126.165C150.274 126.335 150.217 126.547 150.217 126.802C150.217 127.022 150.272 127.232 150.382 127.432C150.497 127.632 150.672 127.795 150.907 127.92C151.147 128.045 151.459 128.107 151.844 128.107ZM161.189 129.225C160.369 129.225 159.672 129.043 159.097 128.677C158.527 128.307 158.092 127.8 157.792 127.155C157.492 126.51 157.337 125.775 157.327 124.95C157.337 124.105 157.494 123.362 157.799 122.722C158.109 122.077 158.552 121.575 159.127 121.215C159.702 120.855 160.394 120.675 161.204 120.675C162.059 120.675 162.794 120.885 163.409 121.305C164.029 121.725 164.444 122.3 164.654 123.03L163.334 123.427C163.164 122.957 162.887 122.592 162.502 122.332C162.122 122.072 161.684 121.942 161.189 121.942C160.634 121.942 160.177 122.072 159.817 122.332C159.457 122.587 159.189 122.942 159.014 123.397C158.839 123.847 158.749 124.365 158.744 124.95C158.754 125.85 158.962 126.577 159.367 127.132C159.777 127.682 160.384 127.957 161.189 127.957C161.719 127.957 162.159 127.837 162.509 127.597C162.859 127.352 163.124 127 163.304 126.54L164.654 126.892C164.374 127.647 163.937 128.225 163.342 128.625C162.747 129.025 162.029 129.225 161.189 129.225ZM170.707 129C170.227 129.095 169.752 129.133 169.282 129.113C168.817 129.098 168.402 129.005 168.037 128.835C167.672 128.66 167.395 128.39 167.205 128.025C167.045 127.705 166.957 127.382 166.942 127.057C166.932 126.727 166.927 126.355 166.927 125.94V118.65H168.262V125.88C168.262 126.21 168.265 126.492 168.27 126.727C168.28 126.962 168.332 127.165 168.427 127.335C168.607 127.655 168.892 127.842 169.282 127.898C169.677 127.952 170.152 127.937 170.707 127.852V129ZM165.285 122.002V120.9H170.707V122.002H165.285ZM172.502 119.467V118.087H173.837V119.467H172.502ZM172.502 129V120.9H173.837V129H172.502ZM179.537 129.225C178.732 129.225 178.037 129.043 177.452 128.677C176.872 128.312 176.425 127.807 176.11 127.162C175.795 126.517 175.637 125.777 175.637 124.942C175.637 124.092 175.797 123.347 176.117 122.707C176.437 122.067 176.89 121.57 177.475 121.215C178.06 120.855 178.747 120.675 179.537 120.675C180.347 120.675 181.045 120.857 181.63 121.222C182.215 121.582 182.662 122.085 182.972 122.73C183.287 123.37 183.445 124.107 183.445 124.942C183.445 125.787 183.287 126.532 182.972 127.177C182.657 127.817 182.207 128.32 181.622 128.685C181.037 129.045 180.342 129.225 179.537 129.225ZM179.537 127.957C180.377 127.957 181.002 127.677 181.412 127.117C181.822 126.557 182.027 125.832 182.027 124.942C182.027 124.027 181.82 123.3 181.405 122.76C180.99 122.215 180.367 121.942 179.537 121.942C178.972 121.942 178.507 122.07 178.142 122.325C177.777 122.58 177.505 122.932 177.325 123.382C177.145 123.832 177.055 124.352 177.055 124.942C177.055 125.852 177.265 126.582 177.685 127.132C178.105 127.682 178.722 127.957 179.537 127.957ZM190.863 129V124.942C190.863 124.557 190.828 124.187 190.758 123.832C190.693 123.477 190.576 123.16 190.406 122.88C190.241 122.595 190.016 122.37 189.731 122.205C189.451 122.04 189.096 121.957 188.666 121.957C188.331 121.957 188.026 122.015 187.751 122.13C187.481 122.24 187.248 122.41 187.053 122.64C186.858 122.87 186.706 123.16 186.596 123.51C186.491 123.855 186.438 124.262 186.438 124.732L185.561 124.462C185.561 123.677 185.701 123.005 185.981 122.445C186.266 121.88 186.663 121.447 187.173 121.147C187.688 120.842 188.293 120.69 188.988 120.69C189.513 120.69 189.961 120.772 190.331 120.937C190.701 121.102 191.008 121.322 191.253 121.597C191.498 121.867 191.691 122.172 191.831 122.512C191.971 122.847 192.068 123.19 192.123 123.54C192.183 123.885 192.213 124.212 192.213 124.522V129H190.863ZM185.088 129V120.9H186.288V123.067H186.438V129H185.088Z" fill="white"/>
<path d="M10.3187 120.768L11.6813 122.232L4.55393 128.866L0.318665 124.924L1.68132 123.46L4.55299 126.134L10.3187 120.768Z" fill="#3EE9E5"/>
</g>
<defs>
<clipPath id="clip0_0_4052">
<rect width="163" height="25" fill="white" transform="translate(0.318665)"/>
</clipPath>
<clipPath id="clip1_0_4052">
<rect width="132" height="25" fill="white" transform="translate(0.318665 37)"/>
</clipPath>
<clipPath id="clip2_0_4052">
<rect width="240" height="25" fill="white" transform="translate(0.318665 74)"/>
</clipPath>
<clipPath id="clip3_0_4052">
<rect width="194" height="25" fill="white" transform="translate(0.318665 111)"/>
</clipPath>
</defs>
</svg>
