<svg width="251" height="136" viewBox="0 0 251 136" fill="none" xmlns="http://www.w3.org/2000/svg">
<g clip-path="url(#clip0_0_4082)">
<path d="M32.49 18.225C31.415 18.225 30.5025 17.9875 29.7525 17.5125C29.0025 17.0375 28.43 16.3775 28.035 15.5325C27.645 14.6875 27.45 13.71 27.45 12.6C27.45 11.49 27.645 10.5125 28.035 9.6675C28.43 8.8225 29.0025 8.1625 29.7525 7.6875C30.5025 7.2125 31.415 6.975 32.49 6.975C33.74 6.975 34.7675 7.2925 35.5725 7.9275C36.3825 8.5625 36.94 9.4175 37.245 10.4925L35.8875 10.8525C35.6675 10.0475 35.275 9.4125 34.71 8.9475C34.145 8.4825 33.405 8.25 32.49 8.25C31.685 8.25 31.015 8.4325 30.48 8.7975C29.945 9.1625 29.5425 9.6725 29.2725 10.3275C29.0025 10.9775 28.865 11.735 28.86 12.6C28.855 13.46 28.9875 14.2175 29.2575 14.8725C29.5275 15.5225 29.9325 16.0325 30.4725 16.4025C31.0125 16.7675 31.685 16.95 32.49 16.95C33.405 16.95 34.145 16.7175 34.71 16.2525C35.275 15.7825 35.6675 15.1475 35.8875 14.3475L37.245 14.7075C36.94 15.7775 36.3825 16.6325 35.5725 17.2725C34.7675 17.9075 33.74 18.225 32.49 18.225ZM41.9648 18.21C41.4448 18.21 40.9973 18.1275 40.6223 17.9625C40.2523 17.7975 39.9448 17.5775 39.6998 17.3025C39.4548 17.0275 39.2623 16.7225 39.1223 16.3875C38.9823 16.0525 38.8823 15.71 38.8223 15.36C38.7673 15.01 38.7398 14.6825 38.7398 14.3775V9.9H40.0898V13.9575C40.0898 14.3375 40.1248 14.705 40.1948 15.06C40.2648 15.415 40.3823 15.735 40.5473 16.02C40.7173 16.305 40.9423 16.53 41.2223 16.695C41.5073 16.86 41.8623 16.9425 42.2873 16.9425C42.6223 16.9425 42.9273 16.885 43.2023 16.77C43.4773 16.655 43.7123 16.485 43.9073 16.26C44.1023 16.03 44.2523 15.74 44.3573 15.39C44.4623 15.04 44.5148 14.6325 44.5148 14.1675L45.3923 14.4375C45.3923 15.2175 45.2498 15.89 44.9648 16.455C44.6848 17.02 44.2873 17.455 43.7723 17.76C43.2623 18.06 42.6598 18.21 41.9648 18.21ZM44.6648 18V15.8325H44.5148V9.9H45.8573V18H44.6648ZM51.0172 18.2175C50.0522 18.2175 49.2597 18.0075 48.6397 17.5875C48.0247 17.1625 47.6472 16.57 47.5072 15.81L48.8722 15.5925C48.9822 16.0325 49.2347 16.3825 49.6297 16.6425C50.0247 16.8975 50.5147 17.025 51.0997 17.025C51.6547 17.025 52.0897 16.91 52.4047 16.68C52.7197 16.45 52.8772 16.1375 52.8772 15.7425C52.8772 15.5125 52.8247 15.3275 52.7197 15.1875C52.6147 15.0425 52.3972 14.9075 52.0672 14.7825C51.7422 14.6575 51.2497 14.5075 50.5897 14.3325C49.8747 14.1425 49.3122 13.945 48.9022 13.74C48.4922 13.535 48.1997 13.2975 48.0247 13.0275C47.8497 12.7575 47.7622 12.43 47.7622 12.045C47.7622 11.57 47.8922 11.155 48.1522 10.8C48.4122 10.44 48.7747 10.1625 49.2397 9.9675C49.7097 9.7725 50.2547 9.675 50.8747 9.675C51.4897 9.675 52.0397 9.7725 52.5247 9.9675C53.0097 10.1625 53.3997 10.44 53.6947 10.8C53.9947 11.155 54.1722 11.57 54.2272 12.045L52.8622 12.2925C52.7972 11.8575 52.5872 11.515 52.2322 11.265C51.8822 11.015 51.4297 10.8825 50.8747 10.8675C50.3497 10.8475 49.9222 10.94 49.5922 11.145C49.2672 11.35 49.1047 11.6275 49.1047 11.9775C49.1047 12.1725 49.1647 12.34 49.2847 12.48C49.4097 12.62 49.6372 12.7525 49.9672 12.8775C50.3022 13.0025 50.7872 13.145 51.4222 13.305C52.1372 13.485 52.6997 13.6825 53.1097 13.8975C53.5247 14.1075 53.8197 14.3575 53.9947 14.6475C54.1697 14.9325 54.2572 15.285 54.2572 15.705C54.2572 16.485 53.9697 17.1 53.3947 17.55C52.8197 17.995 52.0272 18.2175 51.0172 18.2175ZM60.4338 18C59.9538 18.095 59.4788 18.1325 59.0088 18.1125C58.5438 18.0975 58.1288 18.005 57.7638 17.835C57.3988 17.66 57.1213 17.39 56.9313 17.025C56.7713 16.705 56.6838 16.3825 56.6688 16.0575C56.6588 15.7275 56.6538 15.355 56.6538 14.94V7.65H57.9888V14.88C57.9888 15.21 57.9913 15.4925 57.9963 15.7275C58.0063 15.9625 58.0588 16.165 58.1538 16.335C58.3338 16.655 58.6188 16.8425 59.0088 16.8975C59.4038 16.9525 59.8788 16.9375 60.4338 16.8525V18ZM55.0113 11.0025V9.9H60.4338V11.0025H55.0113ZM65.1914 18.225C64.3864 18.225 63.6914 18.0425 63.1064 17.6775C62.5264 17.3125 62.0789 16.8075 61.7639 16.1625C61.4489 15.5175 61.2914 14.7775 61.2914 13.9425C61.2914 13.0925 61.4514 12.3475 61.7714 11.7075C62.0914 11.0675 62.5439 10.57 63.1289 10.215C63.7139 9.855 64.4014 9.675 65.1914 9.675C66.0014 9.675 66.6989 9.8575 67.2839 10.2225C67.8689 10.5825 68.3164 11.085 68.6264 11.73C68.9414 12.37 69.0989 13.1075 69.0989 13.9425C69.0989 14.7875 68.9414 15.5325 68.6264 16.1775C68.3114 16.8175 67.8614 17.32 67.2764 17.685C66.6914 18.045 65.9964 18.225 65.1914 18.225ZM65.1914 16.9575C66.0314 16.9575 66.6564 16.6775 67.0664 16.1175C67.4764 15.5575 67.6814 14.8325 67.6814 13.9425C67.6814 13.0275 67.4739 12.3 67.0589 11.76C66.6439 11.215 66.0214 10.9425 65.1914 10.9425C64.6264 10.9425 64.1614 11.07 63.7964 11.325C63.4314 11.58 63.1589 11.9325 62.9789 12.3825C62.7989 12.8325 62.7089 13.3525 62.7089 13.9425C62.7089 14.8525 62.9189 15.5825 63.3389 16.1325C63.7589 16.6825 64.3764 16.9575 65.1914 16.9575ZM80.4327 18L80.4402 12.8175C80.4402 12.2125 80.2777 11.74 79.9527 11.4C79.6327 11.055 79.2152 10.8825 78.7002 10.8825C78.4002 10.8825 78.1152 10.9525 77.8452 11.0925C77.5752 11.2275 77.3552 11.4425 77.1852 11.7375C77.0152 12.0275 76.9302 12.4 76.9302 12.855L76.2252 12.57C76.2152 11.995 76.3327 11.4925 76.5777 11.0625C76.8277 10.6275 77.1677 10.29 77.5977 10.05C78.0277 9.81 78.5127 9.69 79.0527 9.69C79.8977 9.69 80.5627 9.9475 81.0477 10.4625C81.5327 10.9725 81.7752 11.66 81.7752 12.525L81.7677 18H80.4327ZM70.7427 18V9.9H71.9352V12.0675H72.0852V18H70.7427ZM75.5952 18L75.6027 12.87C75.6027 12.25 75.4427 11.765 75.1227 11.415C74.8027 11.06 74.3777 10.8825 73.8477 10.8825C73.3227 10.8825 72.8977 11.0625 72.5727 11.4225C72.2477 11.7825 72.0852 12.26 72.0852 12.855L71.3802 12.435C71.3802 11.91 71.5052 11.44 71.7552 11.025C72.0052 10.61 72.3452 10.285 72.7752 10.05C73.2052 9.81 73.6927 9.69 74.2377 9.69C74.7827 9.69 75.2577 9.805 75.6627 10.035C76.0677 10.265 76.3802 10.595 76.6002 11.025C76.8202 11.45 76.9302 11.9575 76.9302 12.5475L76.9227 18H75.5952ZM89.9116 18.225C89.1566 18.225 88.5091 18.0375 87.9691 17.6625C87.4291 17.2825 87.0116 16.77 86.7166 16.125C86.4266 15.48 86.2816 14.7525 86.2816 13.9425C86.2816 13.1325 86.4266 12.405 86.7166 11.76C87.0116 11.115 87.4291 10.6075 87.9691 10.2375C88.5091 9.8625 89.1541 9.675 89.9041 9.675C90.6691 9.675 91.3116 9.86 91.8316 10.23C92.3516 10.6 92.7441 11.1075 93.0091 11.7525C93.2791 12.3975 93.4141 13.1275 93.4141 13.9425C93.4141 14.7475 93.2791 15.475 93.0091 16.125C92.7441 16.77 92.3516 17.2825 91.8316 17.6625C91.3116 18.0375 90.6716 18.225 89.9116 18.225ZM90.0766 17.0025C90.6216 17.0025 91.0691 16.8725 91.4191 16.6125C91.7691 16.3475 92.0266 15.985 92.1916 15.525C92.3616 15.06 92.4466 14.5325 92.4466 13.9425C92.4466 13.3425 92.3616 12.815 92.1916 12.36C92.0266 11.9 91.7716 11.5425 91.4266 11.2875C91.0816 11.0275 90.6441 10.8975 90.1141 10.8975C89.5641 10.8975 89.1091 11.0325 88.7491 11.3025C88.3941 11.5725 88.1291 11.9375 87.9541 12.3975C87.7841 12.8575 87.6991 13.3725 87.6991 13.9425C87.6991 14.5175 87.7866 15.0375 87.9616 15.5025C88.1366 15.9625 88.3991 16.3275 88.7491 16.5975C89.1041 16.8675 89.5466 17.0025 90.0766 17.0025ZM92.4466 18V12.0375H92.2966V7.2H93.6391V18H92.4466ZM99.1904 18.225C98.3854 18.225 97.6904 18.0425 97.1054 17.6775C96.5254 17.3125 96.0779 16.8075 95.7629 16.1625C95.4479 15.5175 95.2904 14.7775 95.2904 13.9425C95.2904 13.0925 95.4504 12.3475 95.7704 11.7075C96.0904 11.0675 96.5429 10.57 97.1279 10.215C97.7129 9.855 98.4004 9.675 99.1904 9.675C100 9.675 100.698 9.8575 101.283 10.2225C101.868 10.5825 102.315 11.085 102.625 11.73C102.94 12.37 103.098 13.1075 103.098 13.9425C103.098 14.7875 102.94 15.5325 102.625 16.1775C102.31 16.8175 101.86 17.32 101.275 17.685C100.69 18.045 99.9954 18.225 99.1904 18.225ZM99.1904 16.9575C100.03 16.9575 100.655 16.6775 101.065 16.1175C101.475 15.5575 101.68 14.8325 101.68 13.9425C101.68 13.0275 101.473 12.3 101.058 11.76C100.643 11.215 100.02 10.9425 99.1904 10.9425C98.6254 10.9425 98.1604 11.07 97.7954 11.325C97.4304 11.58 97.1579 11.9325 96.9779 12.3825C96.7979 12.8325 96.7079 13.3525 96.7079 13.9425C96.7079 14.8525 96.9179 15.5825 97.3379 16.1325C97.7579 16.6825 98.3754 16.9575 99.1904 16.9575ZM114.432 18L114.439 12.8175C114.439 12.2125 114.277 11.74 113.952 11.4C113.632 11.055 113.214 10.8825 112.699 10.8825C112.399 10.8825 112.114 10.9525 111.844 11.0925C111.574 11.2275 111.354 11.4425 111.184 11.7375C111.014 12.0275 110.929 12.4 110.929 12.855L110.224 12.57C110.214 11.995 110.332 11.4925 110.577 11.0625C110.827 10.6275 111.167 10.29 111.597 10.05C112.027 9.81 112.512 9.69 113.052 9.69C113.897 9.69 114.562 9.9475 115.047 10.4625C115.532 10.9725 115.774 11.66 115.774 12.525L115.767 18H114.432ZM104.742 18V9.9H105.934V12.0675H106.084V18H104.742ZM109.594 18L109.602 12.87C109.602 12.25 109.442 11.765 109.122 11.415C108.802 11.06 108.377 10.8825 107.847 10.8825C107.322 10.8825 106.897 11.0625 106.572 11.4225C106.247 11.7825 106.084 12.26 106.084 12.855L105.379 12.435C105.379 11.91 105.504 11.44 105.754 11.025C106.004 10.61 106.344 10.285 106.774 10.05C107.204 9.81 107.692 9.69 108.237 9.69C108.782 9.69 109.257 9.805 109.662 10.035C110.067 10.265 110.379 10.595 110.599 11.025C110.819 11.45 110.929 11.9575 110.929 12.5475L110.922 18H109.594ZM120.03 18.225C119.425 18.225 118.918 18.115 118.508 17.895C118.103 17.67 117.795 17.375 117.585 17.01C117.38 16.645 117.278 16.245 117.278 15.81C117.278 15.385 117.358 15.0175 117.518 14.7075C117.683 14.3925 117.913 14.1325 118.208 13.9275C118.503 13.7175 118.855 13.5525 119.265 13.4325C119.65 13.3275 120.08 13.2375 120.555 13.1625C121.035 13.0825 121.52 13.01 122.01 12.945C122.5 12.88 122.958 12.8175 123.383 12.7575L122.903 13.035C122.918 12.315 122.773 11.7825 122.468 11.4375C122.168 11.0925 121.648 10.92 120.908 10.92C120.418 10.92 119.988 11.0325 119.618 11.2575C119.253 11.4775 118.995 11.8375 118.845 12.3375L117.578 11.955C117.773 11.245 118.15 10.6875 118.71 10.2825C119.27 9.8775 120.008 9.675 120.923 9.675C121.658 9.675 122.288 9.8075 122.813 10.0725C123.343 10.3325 123.723 10.7275 123.953 11.2575C124.068 11.5075 124.14 11.78 124.17 12.075C124.2 12.365 124.215 12.67 124.215 12.99V18H123.03V16.0575L123.308 16.2375C123.003 16.8925 122.575 17.3875 122.025 17.7225C121.48 18.0575 120.815 18.225 120.03 18.225ZM120.233 17.1075C120.713 17.1075 121.128 17.0225 121.478 16.8525C121.833 16.6775 122.118 16.45 122.333 16.17C122.548 15.885 122.688 15.575 122.753 15.24C122.828 14.99 122.868 14.7125 122.873 14.4075C122.883 14.0975 122.888 13.86 122.888 13.695L123.353 13.8975C122.918 13.9575 122.49 14.015 122.07 14.07C121.65 14.125 121.253 14.185 120.878 14.25C120.503 14.31 120.165 14.3825 119.865 14.4675C119.645 14.5375 119.438 14.6275 119.243 14.7375C119.053 14.8475 118.898 14.99 118.778 15.165C118.663 15.335 118.605 15.5475 118.605 15.8025C118.605 16.0225 118.66 16.2325 118.77 16.4325C118.885 16.6325 119.06 16.795 119.295 16.92C119.535 17.045 119.848 17.1075 120.233 17.1075ZM126.315 8.4675V7.0875H127.65V8.4675H126.315ZM126.315 18V9.9H127.65V18H126.315ZM135.668 18V13.9425C135.668 13.5575 135.633 13.1875 135.563 12.8325C135.498 12.4775 135.381 12.16 135.211 11.88C135.046 11.595 134.821 11.37 134.536 11.205C134.256 11.04 133.901 10.9575 133.471 10.9575C133.136 10.9575 132.831 11.015 132.556 11.13C132.286 11.24 132.053 11.41 131.858 11.64C131.663 11.87 131.511 12.16 131.401 12.51C131.296 12.855 131.243 13.2625 131.243 13.7325L130.366 13.4625C130.366 12.6775 130.506 12.005 130.786 11.445C131.071 10.88 131.468 10.4475 131.978 10.1475C132.493 9.8425 133.098 9.69 133.793 9.69C134.318 9.69 134.766 9.7725 135.136 9.9375C135.506 10.1025 135.813 10.3225 136.058 10.5975C136.303 10.8675 136.496 11.1725 136.636 11.5125C136.776 11.8475 136.873 12.19 136.928 12.54C136.988 12.885 137.018 13.2125 137.018 13.5225V18H135.668ZM129.893 18V9.9H131.093V12.0675H131.243V18H129.893Z" fill="#080C20"/>
<path d="M10.3187 9.76801L11.6813 11.232L4.55394 17.8661L0.318672 13.924L1.68133 12.46L4.553 15.134L10.3187 9.76801Z" fill="#093F68"/>
</g>
<g clip-path="url(#clip1_0_4082)">
<path d="M27.3 55L30.915 44.2H32.775L36.39 55H35.0025L31.62 44.98H32.04L28.6875 55H27.3ZM29.04 52.4725V51.22H34.65V52.4725H29.04ZM40.9126 55.225C40.1576 55.225 39.5101 55.0375 38.9701 54.6625C38.4301 54.2825 38.0126 53.77 37.7176 53.125C37.4276 52.48 37.2826 51.7525 37.2826 50.9425C37.2826 50.1325 37.4276 49.405 37.7176 48.76C38.0126 48.115 38.4301 47.6075 38.9701 47.2375C39.5101 46.8625 40.1551 46.675 40.9051 46.675C41.6701 46.675 42.3126 46.86 42.8326 47.23C43.3526 47.6 43.7451 48.1075 44.0101 48.7525C44.2801 49.3975 44.4151 50.1275 44.4151 50.9425C44.4151 51.7475 44.2801 52.475 44.0101 53.125C43.7451 53.77 43.3526 54.2825 42.8326 54.6625C42.3126 55.0375 41.6726 55.225 40.9126 55.225ZM41.0776 54.0025C41.6226 54.0025 42.0701 53.8725 42.4201 53.6125C42.7701 53.3475 43.0276 52.985 43.1926 52.525C43.3626 52.06 43.4476 51.5325 43.4476 50.9425C43.4476 50.3425 43.3626 49.815 43.1926 49.36C43.0276 48.9 42.7726 48.5425 42.4276 48.2875C42.0826 48.0275 41.6451 47.8975 41.1151 47.8975C40.5651 47.8975 40.1101 48.0325 39.7501 48.3025C39.3951 48.5725 39.1301 48.9375 38.9551 49.3975C38.7851 49.8575 38.7001 50.3725 38.7001 50.9425C38.7001 51.5175 38.7876 52.0375 38.9626 52.5025C39.1376 52.9625 39.4001 53.3275 39.7501 53.5975C40.1051 53.8675 40.5476 54.0025 41.0776 54.0025ZM43.4476 55V49.0375H43.2976V44.2H44.6401V55H43.4476ZM48.9314 55L45.9914 46.9H47.3414L49.6139 53.2975L51.8789 46.9H53.2364L50.2964 55H48.9314ZM56.4414 55.225C55.8364 55.225 55.3289 55.115 54.9189 54.895C54.5139 54.67 54.2064 54.375 53.9964 54.01C53.7914 53.645 53.6889 53.245 53.6889 52.81C53.6889 52.385 53.7689 52.0175 53.9289 51.7075C54.0939 51.3925 54.3239 51.1325 54.6189 50.9275C54.9139 50.7175 55.2664 50.5525 55.6764 50.4325C56.0614 50.3275 56.4914 50.2375 56.9664 50.1625C57.4464 50.0825 57.9314 50.01 58.4214 49.945C58.9114 49.88 59.3689 49.8175 59.7939 49.7575L59.3139 50.035C59.3289 49.315 59.1839 48.7825 58.8789 48.4375C58.5789 48.0925 58.0589 47.92 57.3189 47.92C56.8289 47.92 56.3989 48.0325 56.0289 48.2575C55.6639 48.4775 55.4064 48.8375 55.2564 49.3375L53.9889 48.955C54.1839 48.245 54.5614 47.6875 55.1214 47.2825C55.6814 46.8775 56.4189 46.675 57.3339 46.675C58.0689 46.675 58.6989 46.8075 59.2239 47.0725C59.7539 47.3325 60.1339 47.7275 60.3639 48.2575C60.4789 48.5075 60.5514 48.78 60.5814 49.075C60.6114 49.365 60.6264 49.67 60.6264 49.99V55H59.4414V53.0575L59.7189 53.2375C59.4139 53.8925 58.9864 54.3875 58.4364 54.7225C57.8914 55.0575 57.2264 55.225 56.4414 55.225ZM56.6439 54.1075C57.1239 54.1075 57.5389 54.0225 57.8889 53.8525C58.2439 53.6775 58.5289 53.45 58.7439 53.17C58.9589 52.885 59.0989 52.575 59.1639 52.24C59.2389 51.99 59.2789 51.7125 59.2839 51.4075C59.2939 51.0975 59.2989 50.86 59.2989 50.695L59.7639 50.8975C59.3289 50.9575 58.9014 51.015 58.4814 51.07C58.0614 51.125 57.6639 51.185 57.2889 51.25C56.9139 51.31 56.5764 51.3825 56.2764 51.4675C56.0564 51.5375 55.8489 51.6275 55.6539 51.7375C55.4639 51.8475 55.3089 51.99 55.1889 52.165C55.0739 52.335 55.0164 52.5475 55.0164 52.8025C55.0164 53.0225 55.0714 53.2325 55.1814 53.4325C55.2964 53.6325 55.4714 53.795 55.7064 53.92C55.9464 54.045 56.2589 54.1075 56.6439 54.1075ZM68.3439 55V50.9425C68.3439 50.5575 68.3089 50.1875 68.2389 49.8325C68.1739 49.4775 68.0564 49.16 67.8864 48.88C67.7214 48.595 67.4964 48.37 67.2114 48.205C66.9314 48.04 66.5764 47.9575 66.1464 47.9575C65.8114 47.9575 65.5064 48.015 65.2314 48.13C64.9614 48.24 64.7289 48.41 64.5339 48.64C64.3389 48.87 64.1864 49.16 64.0764 49.51C63.9714 49.855 63.9189 50.2625 63.9189 50.7325L63.0414 50.4625C63.0414 49.6775 63.1814 49.005 63.4614 48.445C63.7464 47.88 64.1439 47.4475 64.6539 47.1475C65.1689 46.8425 65.7739 46.69 66.4689 46.69C66.9939 46.69 67.4414 46.7725 67.8114 46.9375C68.1814 47.1025 68.4889 47.3225 68.7339 47.5975C68.9789 47.8675 69.1714 48.1725 69.3114 48.5125C69.4514 48.8475 69.5489 49.19 69.6039 49.54C69.6639 49.885 69.6939 50.2125 69.6939 50.5225V55H68.3439ZM62.5689 55V46.9H63.7689V49.0675H63.9189V55H62.5689ZM74.983 55.225C74.163 55.225 73.4655 55.0425 72.8905 54.6775C72.3205 54.3075 71.8855 53.8 71.5855 53.155C71.2855 52.51 71.1305 51.775 71.1205 50.95C71.1305 50.105 71.288 49.3625 71.593 48.7225C71.903 48.0775 72.3455 47.575 72.9205 47.215C73.4955 46.855 74.188 46.675 74.998 46.675C75.853 46.675 76.588 46.885 77.203 47.305C77.823 47.725 78.238 48.3 78.448 49.03L77.128 49.4275C76.958 48.9575 76.6805 48.5925 76.2955 48.3325C75.9155 48.0725 75.478 47.9425 74.983 47.9425C74.428 47.9425 73.9705 48.0725 73.6105 48.3325C73.2505 48.5875 72.983 48.9425 72.808 49.3975C72.633 49.8475 72.543 50.365 72.538 50.95C72.548 51.85 72.7555 52.5775 73.1605 53.1325C73.5705 53.6825 74.178 53.9575 74.983 53.9575C75.513 53.9575 75.953 53.8375 76.303 53.5975C76.653 53.3525 76.918 53 77.098 52.54L78.448 52.8925C78.168 53.6475 77.7305 54.225 77.1355 54.625C76.5405 55.025 75.823 55.225 74.983 55.225ZM83.269 55.225C82.474 55.225 81.779 55.05 81.184 54.7C80.594 54.345 80.134 53.8525 79.804 53.2225C79.474 52.5875 79.309 51.8475 79.309 51.0025C79.309 50.1175 79.4715 49.3525 79.7965 48.7075C80.1215 48.0575 80.574 47.5575 81.154 47.2075C81.739 46.8525 82.424 46.675 83.209 46.675C84.024 46.675 84.7165 46.8625 85.2865 47.2375C85.8615 47.6125 86.2915 48.1475 86.5765 48.8425C86.8665 49.5375 86.9915 50.365 86.9515 51.325H85.6015V50.845C85.5865 49.85 85.384 49.1075 84.994 48.6175C84.604 48.1225 84.024 47.875 83.254 47.875C82.429 47.875 81.8015 48.14 81.3715 48.67C80.9415 49.2 80.7265 49.96 80.7265 50.95C80.7265 51.905 80.9415 52.645 81.3715 53.17C81.8015 53.695 82.414 53.9575 83.209 53.9575C83.744 53.9575 84.209 53.835 84.604 53.59C84.999 53.345 85.309 52.9925 85.534 52.5325L86.8165 52.975C86.5015 53.69 86.0265 54.245 85.3915 54.64C84.7615 55.03 84.054 55.225 83.269 55.225ZM80.2765 51.325V50.2525H86.2615V51.325H80.2765ZM91.8013 55.225C91.0463 55.225 90.3988 55.0375 89.8588 54.6625C89.3188 54.2825 88.9013 53.77 88.6063 53.125C88.3163 52.48 88.1713 51.7525 88.1713 50.9425C88.1713 50.1325 88.3163 49.405 88.6063 48.76C88.9013 48.115 89.3188 47.6075 89.8588 47.2375C90.3988 46.8625 91.0438 46.675 91.7938 46.675C92.5588 46.675 93.2013 46.86 93.7213 47.23C94.2413 47.6 94.6338 48.1075 94.8988 48.7525C95.1688 49.3975 95.3038 50.1275 95.3038 50.9425C95.3038 51.7475 95.1688 52.475 94.8988 53.125C94.6338 53.77 94.2413 54.2825 93.7213 54.6625C93.2013 55.0375 92.5613 55.225 91.8013 55.225ZM91.9663 54.0025C92.5113 54.0025 92.9588 53.8725 93.3088 53.6125C93.6588 53.3475 93.9163 52.985 94.0813 52.525C94.2513 52.06 94.3363 51.5325 94.3363 50.9425C94.3363 50.3425 94.2513 49.815 94.0813 49.36C93.9163 48.9 93.6613 48.5425 93.3163 48.2875C92.9713 48.0275 92.5338 47.8975 92.0038 47.8975C91.4538 47.8975 90.9988 48.0325 90.6388 48.3025C90.2838 48.5725 90.0188 48.9375 89.8438 49.3975C89.6738 49.8575 89.5888 50.3725 89.5888 50.9425C89.5888 51.5175 89.6763 52.0375 89.8513 52.5025C90.0263 52.9625 90.2888 53.3275 90.6388 53.5975C90.9938 53.8675 91.4363 54.0025 91.9663 54.0025ZM94.3363 55V49.0375H94.1863V44.2H95.5288V55H94.3363ZM102.936 55.225C102.331 55.225 101.823 55.115 101.413 54.895C101.008 54.67 100.701 54.375 100.491 54.01C100.286 53.645 100.183 53.245 100.183 52.81C100.183 52.385 100.263 52.0175 100.423 51.7075C100.588 51.3925 100.818 51.1325 101.113 50.9275C101.408 50.7175 101.761 50.5525 102.171 50.4325C102.556 50.3275 102.986 50.2375 103.461 50.1625C103.941 50.0825 104.426 50.01 104.916 49.945C105.406 49.88 105.863 49.8175 106.288 49.7575L105.808 50.035C105.823 49.315 105.678 48.7825 105.373 48.4375C105.073 48.0925 104.553 47.92 103.813 47.92C103.323 47.92 102.893 48.0325 102.523 48.2575C102.158 48.4775 101.901 48.8375 101.751 49.3375L100.483 48.955C100.678 48.245 101.056 47.6875 101.616 47.2825C102.176 46.8775 102.913 46.675 103.828 46.675C104.563 46.675 105.193 46.8075 105.718 47.0725C106.248 47.3325 106.628 47.7275 106.858 48.2575C106.973 48.5075 107.046 48.78 107.076 49.075C107.106 49.365 107.121 49.67 107.121 49.99V55H105.936V53.0575L106.213 53.2375C105.908 53.8925 105.481 54.3875 104.931 54.7225C104.386 55.0575 103.721 55.225 102.936 55.225ZM103.138 54.1075C103.618 54.1075 104.033 54.0225 104.383 53.8525C104.738 53.6775 105.023 53.45 105.238 53.17C105.453 52.885 105.593 52.575 105.658 52.24C105.733 51.99 105.773 51.7125 105.778 51.4075C105.788 51.0975 105.793 50.86 105.793 50.695L106.258 50.8975C105.823 50.9575 105.396 51.015 104.976 51.07C104.556 51.125 104.158 51.185 103.783 51.25C103.408 51.31 103.071 51.3825 102.771 51.4675C102.551 51.5375 102.343 51.6275 102.148 51.7375C101.958 51.8475 101.803 51.99 101.683 52.165C101.568 52.335 101.511 52.5475 101.511 52.8025C101.511 53.0225 101.566 53.2325 101.676 53.4325C101.791 53.6325 101.966 53.795 102.201 53.92C102.441 54.045 102.753 54.1075 103.138 54.1075ZM114.838 55V50.9425C114.838 50.5575 114.803 50.1875 114.733 49.8325C114.668 49.4775 114.551 49.16 114.381 48.88C114.216 48.595 113.991 48.37 113.706 48.205C113.426 48.04 113.071 47.9575 112.641 47.9575C112.306 47.9575 112.001 48.015 111.726 48.13C111.456 48.24 111.223 48.41 111.028 48.64C110.833 48.87 110.681 49.16 110.571 49.51C110.466 49.855 110.413 50.2625 110.413 50.7325L109.536 50.4625C109.536 49.6775 109.676 49.005 109.956 48.445C110.241 47.88 110.638 47.4475 111.148 47.1475C111.663 46.8425 112.268 46.69 112.963 46.69C113.488 46.69 113.936 46.7725 114.306 46.9375C114.676 47.1025 114.983 47.3225 115.228 47.5975C115.473 47.8675 115.666 48.1725 115.806 48.5125C115.946 48.8475 116.043 49.19 116.098 49.54C116.158 49.885 116.188 50.2125 116.188 50.5225V55H114.838ZM109.063 55V46.9H110.263V49.0675H110.413V55H109.063ZM120.44 55.225C119.835 55.225 119.328 55.115 118.918 54.895C118.513 54.67 118.205 54.375 117.995 54.01C117.79 53.645 117.688 53.245 117.688 52.81C117.688 52.385 117.768 52.0175 117.928 51.7075C118.093 51.3925 118.323 51.1325 118.618 50.9275C118.913 50.7175 119.265 50.5525 119.675 50.4325C120.06 50.3275 120.49 50.2375 120.965 50.1625C121.445 50.0825 121.93 50.01 122.42 49.945C122.91 49.88 123.368 49.8175 123.793 49.7575L123.313 50.035C123.328 49.315 123.183 48.7825 122.878 48.4375C122.578 48.0925 122.058 47.92 121.318 47.92C120.828 47.92 120.398 48.0325 120.028 48.2575C119.663 48.4775 119.405 48.8375 119.255 49.3375L117.988 48.955C118.183 48.245 118.56 47.6875 119.12 47.2825C119.68 46.8775 120.418 46.675 121.333 46.675C122.068 46.675 122.698 46.8075 123.223 47.0725C123.753 47.3325 124.133 47.7275 124.363 48.2575C124.478 48.5075 124.55 48.78 124.58 49.075C124.61 49.365 124.625 49.67 124.625 49.99V55H123.44V53.0575L123.718 53.2375C123.413 53.8925 122.985 54.3875 122.435 54.7225C121.89 55.0575 121.225 55.225 120.44 55.225ZM120.643 54.1075C121.123 54.1075 121.538 54.0225 121.888 53.8525C122.243 53.6775 122.528 53.45 122.743 53.17C122.958 52.885 123.098 52.575 123.163 52.24C123.238 51.99 123.278 51.7125 123.283 51.4075C123.293 51.0975 123.298 50.86 123.298 50.695L123.763 50.8975C123.328 50.9575 122.9 51.015 122.48 51.07C122.06 51.125 121.663 51.185 121.288 51.25C120.913 51.31 120.575 51.3825 120.275 51.4675C120.055 51.5375 119.848 51.6275 119.653 51.7375C119.463 51.8475 119.308 51.99 119.188 52.165C119.073 52.335 119.015 52.5475 119.015 52.8025C119.015 53.0225 119.07 53.2325 119.18 53.4325C119.295 53.6325 119.47 53.795 119.705 53.92C119.945 54.045 120.258 54.1075 120.643 54.1075ZM126.725 55V43.975H128.06V55H126.725ZM131.436 58.6L133.003 54.34L133.026 55.6L129.486 46.9H130.888L133.663 53.8975H133.183L135.786 46.9H137.143L132.733 58.6H131.436ZM143.505 55C143.025 55.095 142.55 55.1325 142.08 55.1125C141.615 55.0975 141.2 55.005 140.835 54.835C140.47 54.66 140.193 54.39 140.003 54.025C139.843 53.705 139.755 53.3825 139.74 53.0575C139.73 52.7275 139.725 52.355 139.725 51.94V44.65H141.06V51.88C141.06 52.21 141.063 52.4925 141.068 52.7275C141.078 52.9625 141.13 53.165 141.225 53.335C141.405 53.655 141.69 53.8425 142.08 53.8975C142.475 53.9525 142.95 53.9375 143.505 53.8525V55ZM138.083 48.0025V46.9H143.505V48.0025H138.083ZM145.3 45.4675V44.0875H146.635V45.4675H145.3ZM145.3 55V46.9H146.635V55H145.3ZM152.297 55.225C151.477 55.225 150.78 55.0425 150.205 54.6775C149.635 54.3075 149.2 53.8 148.9 53.155C148.6 52.51 148.445 51.775 148.435 50.95C148.445 50.105 148.602 49.3625 148.907 48.7225C149.217 48.0775 149.66 47.575 150.235 47.215C150.81 46.855 151.502 46.675 152.312 46.675C153.167 46.675 153.902 46.885 154.517 47.305C155.137 47.725 155.552 48.3 155.762 49.03L154.442 49.4275C154.272 48.9575 153.995 48.5925 153.61 48.3325C153.23 48.0725 152.792 47.9425 152.297 47.9425C151.742 47.9425 151.285 48.0725 150.925 48.3325C150.565 48.5875 150.297 48.9425 150.122 49.3975C149.947 49.8475 149.857 50.365 149.852 50.95C149.862 51.85 150.07 52.5775 150.475 53.1325C150.885 53.6825 151.492 53.9575 152.297 53.9575C152.827 53.9575 153.267 53.8375 153.617 53.5975C153.967 53.3525 154.232 53 154.412 52.54L155.762 52.8925C155.482 53.6475 155.045 54.225 154.45 54.625C153.855 55.025 153.137 55.225 152.297 55.225ZM160.353 55.2175C159.388 55.2175 158.596 55.0075 157.976 54.5875C157.361 54.1625 156.983 53.57 156.843 52.81L158.208 52.5925C158.318 53.0325 158.571 53.3825 158.966 53.6425C159.361 53.8975 159.851 54.025 160.436 54.025C160.991 54.025 161.426 53.91 161.741 53.68C162.056 53.45 162.213 53.1375 162.213 52.7425C162.213 52.5125 162.161 52.3275 162.056 52.1875C161.951 52.0425 161.733 51.9075 161.403 51.7825C161.078 51.6575 160.586 51.5075 159.926 51.3325C159.211 51.1425 158.648 50.945 158.238 50.74C157.828 50.535 157.536 50.2975 157.361 50.0275C157.186 49.7575 157.098 49.43 157.098 49.045C157.098 48.57 157.228 48.155 157.488 47.8C157.748 47.44 158.111 47.1625 158.576 46.9675C159.046 46.7725 159.591 46.675 160.211 46.675C160.826 46.675 161.376 46.7725 161.861 46.9675C162.346 47.1625 162.736 47.44 163.031 47.8C163.331 48.155 163.508 48.57 163.563 49.045L162.198 49.2925C162.133 48.8575 161.923 48.515 161.568 48.265C161.218 48.015 160.766 47.8825 160.211 47.8675C159.686 47.8475 159.258 47.94 158.928 48.145C158.603 48.35 158.441 48.6275 158.441 48.9775C158.441 49.1725 158.501 49.34 158.621 49.48C158.746 49.62 158.973 49.7525 159.303 49.8775C159.638 50.0025 160.123 50.145 160.758 50.305C161.473 50.485 162.036 50.6825 162.446 50.8975C162.861 51.1075 163.156 51.3575 163.331 51.6475C163.506 51.9325 163.593 52.285 163.593 52.705C163.593 53.485 163.306 54.1 162.731 54.55C162.156 54.995 161.363 55.2175 160.353 55.2175ZM170.553 55.225C169.948 55.225 169.44 55.115 169.03 54.895C168.625 54.67 168.318 54.375 168.108 54.01C167.903 53.645 167.8 53.245 167.8 52.81C167.8 52.385 167.88 52.0175 168.04 51.7075C168.205 51.3925 168.435 51.1325 168.73 50.9275C169.025 50.7175 169.378 50.5525 169.788 50.4325C170.173 50.3275 170.603 50.2375 171.078 50.1625C171.558 50.0825 172.043 50.01 172.533 49.945C173.023 49.88 173.48 49.8175 173.905 49.7575L173.425 50.035C173.44 49.315 173.295 48.7825 172.99 48.4375C172.69 48.0925 172.17 47.92 171.43 47.92C170.94 47.92 170.51 48.0325 170.14 48.2575C169.775 48.4775 169.518 48.8375 169.368 49.3375L168.1 48.955C168.295 48.245 168.673 47.6875 169.233 47.2825C169.793 46.8775 170.53 46.675 171.445 46.675C172.18 46.675 172.81 46.8075 173.335 47.0725C173.865 47.3325 174.245 47.7275 174.475 48.2575C174.59 48.5075 174.663 48.78 174.693 49.075C174.723 49.365 174.738 49.67 174.738 49.99V55H173.553V53.0575L173.83 53.2375C173.525 53.8925 173.098 54.3875 172.548 54.7225C172.003 55.0575 171.338 55.225 170.553 55.225ZM170.755 54.1075C171.235 54.1075 171.65 54.0225 172 53.8525C172.355 53.6775 172.64 53.45 172.855 53.17C173.07 52.885 173.21 52.575 173.275 52.24C173.35 51.99 173.39 51.7125 173.395 51.4075C173.405 51.0975 173.41 50.86 173.41 50.695L173.875 50.8975C173.44 50.9575 173.013 51.015 172.593 51.07C172.173 51.125 171.775 51.185 171.4 51.25C171.025 51.31 170.688 51.3825 170.388 51.4675C170.168 51.5375 169.96 51.6275 169.765 51.7375C169.575 51.8475 169.42 51.99 169.3 52.165C169.185 52.335 169.128 52.5475 169.128 52.8025C169.128 53.0225 169.183 53.2325 169.293 53.4325C169.408 53.6325 169.583 53.795 169.818 53.92C170.058 54.045 170.37 54.1075 170.755 54.1075ZM182.455 55V50.9425C182.455 50.5575 182.42 50.1875 182.35 49.8325C182.285 49.4775 182.168 49.16 181.998 48.88C181.833 48.595 181.608 48.37 181.323 48.205C181.043 48.04 180.688 47.9575 180.258 47.9575C179.923 47.9575 179.618 48.015 179.343 48.13C179.073 48.24 178.84 48.41 178.645 48.64C178.45 48.87 178.298 49.16 178.188 49.51C178.083 49.855 178.03 50.2625 178.03 50.7325L177.153 50.4625C177.153 49.6775 177.293 49.005 177.573 48.445C177.858 47.88 178.255 47.4475 178.765 47.1475C179.28 46.8425 179.885 46.69 180.58 46.69C181.105 46.69 181.553 46.7725 181.923 46.9375C182.293 47.1025 182.6 47.3225 182.845 47.5975C183.09 47.8675 183.283 48.1725 183.423 48.5125C183.563 48.8475 183.66 49.19 183.715 49.54C183.775 49.885 183.805 50.2125 183.805 50.5225V55H182.455ZM176.68 55V46.9H177.88V49.0675H178.03V55H176.68ZM188.862 55.225C188.107 55.225 187.459 55.0375 186.919 54.6625C186.379 54.2825 185.962 53.77 185.667 53.125C185.377 52.48 185.232 51.7525 185.232 50.9425C185.232 50.1325 185.377 49.405 185.667 48.76C185.962 48.115 186.379 47.6075 186.919 47.2375C187.459 46.8625 188.104 46.675 188.854 46.675C189.619 46.675 190.262 46.86 190.782 47.23C191.302 47.6 191.694 48.1075 191.959 48.7525C192.229 49.3975 192.364 50.1275 192.364 50.9425C192.364 51.7475 192.229 52.475 191.959 53.125C191.694 53.77 191.302 54.2825 190.782 54.6625C190.262 55.0375 189.622 55.225 188.862 55.225ZM189.027 54.0025C189.572 54.0025 190.019 53.8725 190.369 53.6125C190.719 53.3475 190.977 52.985 191.142 52.525C191.312 52.06 191.397 51.5325 191.397 50.9425C191.397 50.3425 191.312 49.815 191.142 49.36C190.977 48.9 190.722 48.5425 190.377 48.2875C190.032 48.0275 189.594 47.8975 189.064 47.8975C188.514 47.8975 188.059 48.0325 187.699 48.3025C187.344 48.5725 187.079 48.9375 186.904 49.3975C186.734 49.8575 186.649 50.3725 186.649 50.9425C186.649 51.5175 186.737 52.0375 186.912 52.5025C187.087 52.9625 187.349 53.3275 187.699 53.5975C188.054 53.8675 188.497 54.0025 189.027 54.0025ZM191.397 55V49.0375H191.247V44.2H192.589V55H191.397ZM197.694 55V46.9H198.886V48.8575L198.691 48.6025C198.786 48.3525 198.909 48.1225 199.059 47.9125C199.214 47.7025 199.386 47.53 199.576 47.395C199.786 47.225 200.024 47.095 200.289 47.005C200.554 46.915 200.824 46.8625 201.099 46.8475C201.374 46.8275 201.631 46.845 201.871 46.9V48.1525C201.591 48.0775 201.284 48.0575 200.949 48.0925C200.614 48.1275 200.304 48.25 200.019 48.46C199.759 48.645 199.556 48.87 199.411 49.135C199.271 49.4 199.174 49.6875 199.119 49.9975C199.064 50.3025 199.036 50.615 199.036 50.935V55H197.694ZM206.653 55.225C205.858 55.225 205.163 55.05 204.568 54.7C203.978 54.345 203.518 53.8525 203.188 53.2225C202.858 52.5875 202.693 51.8475 202.693 51.0025C202.693 50.1175 202.855 49.3525 203.18 48.7075C203.505 48.0575 203.958 47.5575 204.538 47.2075C205.123 46.8525 205.808 46.675 206.593 46.675C207.408 46.675 208.1 46.8625 208.67 47.2375C209.245 47.6125 209.675 48.1475 209.96 48.8425C210.25 49.5375 210.375 50.365 210.335 51.325H208.985V50.845C208.97 49.85 208.768 49.1075 208.378 48.6175C207.988 48.1225 207.408 47.875 206.638 47.875C205.813 47.875 205.185 48.14 204.755 48.67C204.325 49.2 204.11 49.96 204.11 50.95C204.11 51.905 204.325 52.645 204.755 53.17C205.185 53.695 205.798 53.9575 206.593 53.9575C207.128 53.9575 207.593 53.835 207.988 53.59C208.383 53.345 208.693 52.9925 208.918 52.5325L210.2 52.975C209.885 53.69 209.41 54.245 208.775 54.64C208.145 55.03 207.438 55.225 206.653 55.225ZM203.66 51.325V50.2525H209.645V51.325H203.66ZM215.505 55.225C214.745 55.225 214.105 55.0375 213.585 54.6625C213.065 54.2825 212.67 53.77 212.4 53.125C212.135 52.475 212.003 51.7475 212.003 50.9425C212.003 50.1275 212.135 49.3975 212.4 48.7525C212.67 48.1075 213.065 47.6 213.585 47.23C214.11 46.86 214.753 46.675 215.513 46.675C216.263 46.675 216.908 46.8625 217.448 47.2375C217.993 47.6075 218.41 48.115 218.7 48.76C218.99 49.405 219.135 50.1325 219.135 50.9425C219.135 51.7525 218.99 52.48 218.7 53.125C218.41 53.77 217.993 54.2825 217.448 54.6625C216.908 55.0375 216.26 55.225 215.505 55.225ZM211.778 58.6V46.9H212.97V52.8625H213.12V58.6H211.778ZM215.34 54.0025C215.875 54.0025 216.318 53.8675 216.668 53.5975C217.018 53.3275 217.28 52.9625 217.455 52.5025C217.63 52.0375 217.718 51.5175 217.718 50.9425C217.718 50.3725 217.63 49.8575 217.455 49.3975C217.285 48.9375 217.02 48.5725 216.66 48.3025C216.305 48.0325 215.853 47.8975 215.303 47.8975C214.778 47.8975 214.343 48.0275 213.998 48.2875C213.653 48.5425 213.395 48.9 213.225 49.36C213.055 49.815 212.97 50.3425 212.97 50.9425C212.97 51.5325 213.053 52.06 213.218 52.525C213.388 52.985 213.648 53.3475 213.998 53.6125C214.348 53.8725 214.795 54.0025 215.34 54.0025ZM224.229 55.225C223.424 55.225 222.729 55.0425 222.144 54.6775C221.564 54.3125 221.117 53.8075 220.802 53.1625C220.487 52.5175 220.329 51.7775 220.329 50.9425C220.329 50.0925 220.489 49.3475 220.809 48.7075C221.129 48.0675 221.582 47.57 222.167 47.215C222.752 46.855 223.439 46.675 224.229 46.675C225.039 46.675 225.737 46.8575 226.322 47.2225C226.907 47.5825 227.354 48.085 227.664 48.73C227.979 49.37 228.137 50.1075 228.137 50.9425C228.137 51.7875 227.979 52.5325 227.664 53.1775C227.349 53.8175 226.899 54.32 226.314 54.685C225.729 55.045 225.034 55.225 224.229 55.225ZM224.229 53.9575C225.069 53.9575 225.694 53.6775 226.104 53.1175C226.514 52.5575 226.719 51.8325 226.719 50.9425C226.719 50.0275 226.512 49.3 226.097 48.76C225.682 48.215 225.059 47.9425 224.229 47.9425C223.664 47.9425 223.199 48.07 222.834 48.325C222.469 48.58 222.197 48.9325 222.017 49.3825C221.837 49.8325 221.747 50.3525 221.747 50.9425C221.747 51.8525 221.957 52.5825 222.377 53.1325C222.797 53.6825 223.414 53.9575 224.229 53.9575ZM229.788 55V46.9H230.981V48.8575L230.786 48.6025C230.881 48.3525 231.003 48.1225 231.153 47.9125C231.308 47.7025 231.481 47.53 231.671 47.395C231.881 47.225 232.118 47.095 232.383 47.005C232.648 46.915 232.918 46.8625 233.193 46.8475C233.468 46.8275 233.726 46.845 233.966 46.9V48.1525C233.686 48.0775 233.378 48.0575 233.043 48.0925C232.708 48.1275 232.398 48.25 232.113 48.46C231.853 48.645 231.651 48.87 231.506 49.135C231.366 49.4 231.268 49.6875 231.213 49.9975C231.158 50.3025 231.131 50.615 231.131 50.935V55H229.788ZM239.906 55C239.426 55.095 238.951 55.1325 238.481 55.1125C238.016 55.0975 237.601 55.005 237.236 54.835C236.871 54.66 236.594 54.39 236.404 54.025C236.244 53.705 236.156 53.3825 236.141 53.0575C236.131 52.7275 236.126 52.355 236.126 51.94V44.65H237.461V51.88C237.461 52.21 237.464 52.4925 237.469 52.7275C237.479 52.9625 237.531 53.165 237.626 53.335C237.806 53.655 238.091 53.8425 238.481 53.8975C238.876 53.9525 239.351 53.9375 239.906 53.8525V55ZM234.484 48.0025V46.9H239.906V48.0025H234.484ZM244.611 55.2175C243.646 55.2175 242.853 55.0075 242.233 54.5875C241.618 54.1625 241.241 53.57 241.101 52.81L242.466 52.5925C242.576 53.0325 242.828 53.3825 243.223 53.6425C243.618 53.8975 244.108 54.025 244.693 54.025C245.248 54.025 245.683 53.91 245.998 53.68C246.313 53.45 246.471 53.1375 246.471 52.7425C246.471 52.5125 246.418 52.3275 246.313 52.1875C246.208 52.0425 245.991 51.9075 245.661 51.7825C245.336 51.6575 244.843 51.5075 244.183 51.3325C243.468 51.1425 242.906 50.945 242.496 50.74C242.086 50.535 241.793 50.2975 241.618 50.0275C241.443 49.7575 241.356 49.43 241.356 49.045C241.356 48.57 241.486 48.155 241.746 47.8C242.006 47.44 242.368 47.1625 242.833 46.9675C243.303 46.7725 243.848 46.675 244.468 46.675C245.083 46.675 245.633 46.7725 246.118 46.9675C246.603 47.1625 246.993 47.44 247.288 47.8C247.588 48.155 247.766 48.57 247.821 49.045L246.456 49.2925C246.391 48.8575 246.181 48.515 245.826 48.265C245.476 48.015 245.023 47.8825 244.468 47.8675C243.943 47.8475 243.516 47.94 243.186 48.145C242.861 48.35 242.698 48.6275 242.698 48.9775C242.698 49.1725 242.758 49.34 242.878 49.48C243.003 49.62 243.231 49.7525 243.561 49.8775C243.896 50.0025 244.381 50.145 245.016 50.305C245.731 50.485 246.293 50.6825 246.703 50.8975C247.118 51.1075 247.413 51.3575 247.588 51.6475C247.763 51.9325 247.851 52.285 247.851 52.705C247.851 53.485 247.563 54.1 246.988 54.55C246.413 54.995 245.621 55.2175 244.611 55.2175Z" fill="#080C20"/>
<path d="M10.3187 46.768L11.6813 48.232L4.55394 54.8661L0.318672 50.924L1.68133 49.46L4.553 52.134L10.3187 46.768Z" fill="#093F68"/>
</g>
<g clip-path="url(#clip2_0_4082)">
<path d="M28.05 92V81.2H29.385V85.9625H35.07V81.2H36.405V92H35.07V87.23H29.385V92H28.05ZM38.659 82.4675V81.0875H39.994V82.4675H38.659ZM38.659 92V83.9H39.994V92H38.659ZM45.5218 95.825C45.0968 95.825 44.6818 95.76 44.2768 95.63C43.8718 95.5 43.4993 95.3025 43.1593 95.0375C42.8243 94.7775 42.5443 94.4475 42.3193 94.0475L43.5418 93.4025C43.7418 93.7975 44.0243 94.085 44.3893 94.265C44.7593 94.445 45.1393 94.535 45.5293 94.535C46.0443 94.535 46.4718 94.44 46.8118 94.25C47.1518 94.065 47.4018 93.7875 47.5618 93.4175C47.7268 93.0475 47.8068 92.5875 47.8018 92.0375V89.825H47.9593V83.9H49.1443V92.0525C49.1443 92.2725 49.1368 92.485 49.1218 92.69C49.1118 92.895 49.0868 93.0975 49.0468 93.2975C48.9418 93.8725 48.7343 94.345 48.4243 94.715C48.1143 95.09 47.7143 95.3675 47.2243 95.5475C46.7343 95.7325 46.1668 95.825 45.5218 95.825ZM45.4243 92.225C44.6693 92.225 44.0218 92.0375 43.4818 91.6625C42.9418 91.2825 42.5243 90.77 42.2293 90.125C41.9393 89.48 41.7943 88.7525 41.7943 87.9425C41.7943 87.1325 41.9393 86.405 42.2293 85.76C42.5243 85.115 42.9418 84.6075 43.4818 84.2375C44.0218 83.8625 44.6668 83.675 45.4168 83.675C46.1818 83.675 46.8243 83.86 47.3443 84.23C47.8643 84.6 48.2568 85.1075 48.5218 85.7525C48.7918 86.3975 48.9268 87.1275 48.9268 87.9425C48.9268 88.7475 48.7918 89.475 48.5218 90.125C48.2568 90.77 47.8643 91.2825 47.3443 91.6625C46.8243 92.0375 46.1843 92.225 45.4243 92.225ZM45.5893 91.0025C46.1343 91.0025 46.5818 90.8725 46.9318 90.6125C47.2818 90.3475 47.5393 89.985 47.7043 89.525C47.8743 89.06 47.9593 88.5325 47.9593 87.9425C47.9593 87.3425 47.8743 86.815 47.7043 86.36C47.5393 85.9 47.2843 85.5425 46.9393 85.2875C46.5943 85.0275 46.1568 84.8975 45.6268 84.8975C45.0768 84.8975 44.6218 85.0325 44.2618 85.3025C43.9068 85.5725 43.6418 85.9375 43.4668 86.3975C43.2968 86.8575 43.2118 87.3725 43.2118 87.9425C43.2118 88.5175 43.2993 89.0375 43.4743 89.5025C43.6493 89.9625 43.9118 90.3275 44.2618 90.5975C44.6168 90.8675 45.0593 91.0025 45.5893 91.0025ZM57.006 92V87.9425C57.006 87.5575 56.971 87.1875 56.901 86.8325C56.836 86.4775 56.7185 86.16 56.5485 85.88C56.3835 85.595 56.1585 85.37 55.8735 85.205C55.5935 85.04 55.2385 84.9575 54.8085 84.9575C54.4735 84.9575 54.1685 85.015 53.8935 85.13C53.6235 85.24 53.391 85.41 53.196 85.64C53.001 85.87 52.8485 86.16 52.7385 86.51C52.6335 86.855 52.581 87.2625 52.581 87.7325L51.7035 87.4625C51.7035 86.6775 51.8435 86.005 52.1235 85.445C52.4085 84.88 52.806 84.4475 53.316 84.1475C53.831 83.8425 54.436 83.69 55.131 83.69C55.656 83.69 56.1035 83.7725 56.4735 83.9375C56.8435 84.1025 57.151 84.3225 57.396 84.5975C57.641 84.8675 57.8335 85.1725 57.9735 85.5125C58.1135 85.8475 58.211 86.19 58.266 86.54C58.326 86.885 58.356 87.2125 58.356 87.5225V92H57.006ZM51.231 92V81.2H52.431V87.1625H52.581V92H51.231ZM72.9913 92L72.9988 86.8175C72.9988 86.2125 72.8363 85.74 72.5113 85.4C72.1913 85.055 71.7738 84.8825 71.2588 84.8825C70.9588 84.8825 70.6738 84.9525 70.4038 85.0925C70.1338 85.2275 69.9138 85.4425 69.7438 85.7375C69.5738 86.0275 69.4888 86.4 69.4888 86.855L68.7838 86.57C68.7738 85.995 68.8913 85.4925 69.1363 85.0625C69.3863 84.6275 69.7263 84.29 70.1563 84.05C70.5863 83.81 71.0713 83.69 71.6113 83.69C72.4563 83.69 73.1213 83.9475 73.6063 84.4625C74.0913 84.9725 74.3338 85.66 74.3338 86.525L74.3263 92H72.9913ZM63.3013 92V83.9H64.4938V86.0675H64.6438V92H63.3013ZM68.1538 92L68.1613 86.87C68.1613 86.25 68.0013 85.765 67.6813 85.415C67.3613 85.06 66.9363 84.8825 66.4063 84.8825C65.8813 84.8825 65.4563 85.0625 65.1313 85.4225C64.8063 85.7825 64.6438 86.26 64.6438 86.855L63.9388 86.435C63.9388 85.91 64.0638 85.44 64.3138 85.025C64.5638 84.61 64.9038 84.285 65.3338 84.05C65.7638 83.81 66.2513 83.69 66.7963 83.69C67.3413 83.69 67.8163 83.805 68.2213 84.035C68.6263 84.265 68.9388 84.595 69.1588 85.025C69.3788 85.45 69.4888 85.9575 69.4888 86.5475L69.4813 92H68.1538ZM78.5898 92.225C77.9848 92.225 77.4773 92.115 77.0673 91.895C76.6623 91.67 76.3548 91.375 76.1448 91.01C75.9398 90.645 75.8373 90.245 75.8373 89.81C75.8373 89.385 75.9173 89.0175 76.0773 88.7075C76.2423 88.3925 76.4723 88.1325 76.7673 87.9275C77.0623 87.7175 77.4148 87.5525 77.8248 87.4325C78.2098 87.3275 78.6398 87.2375 79.1148 87.1625C79.5948 87.0825 80.0798 87.01 80.5698 86.945C81.0598 86.88 81.5173 86.8175 81.9423 86.7575L81.4623 87.035C81.4773 86.315 81.3323 85.7825 81.0273 85.4375C80.7273 85.0925 80.2073 84.92 79.4673 84.92C78.9773 84.92 78.5473 85.0325 78.1773 85.2575C77.8123 85.4775 77.5548 85.8375 77.4048 86.3375L76.1373 85.955C76.3323 85.245 76.7098 84.6875 77.2698 84.2825C77.8298 83.8775 78.5673 83.675 79.4823 83.675C80.2173 83.675 80.8473 83.8075 81.3723 84.0725C81.9023 84.3325 82.2823 84.7275 82.5123 85.2575C82.6273 85.5075 82.6998 85.78 82.7298 86.075C82.7598 86.365 82.7748 86.67 82.7748 86.99V92H81.5898V90.0575L81.8673 90.2375C81.5623 90.8925 81.1348 91.3875 80.5848 91.7225C80.0398 92.0575 79.3748 92.225 78.5898 92.225ZM78.7923 91.1075C79.2723 91.1075 79.6873 91.0225 80.0373 90.8525C80.3923 90.6775 80.6773 90.45 80.8923 90.17C81.1073 89.885 81.2473 89.575 81.3123 89.24C81.3873 88.99 81.4273 88.7125 81.4323 88.4075C81.4423 88.0975 81.4473 87.86 81.4473 87.695L81.9123 87.8975C81.4773 87.9575 81.0498 88.015 80.6298 88.07C80.2098 88.125 79.8123 88.185 79.4373 88.25C79.0623 88.31 78.7248 88.3825 78.4248 88.4675C78.2048 88.5375 77.9973 88.6275 77.8023 88.7375C77.6123 88.8475 77.4573 88.99 77.3373 89.165C77.2223 89.335 77.1648 89.5475 77.1648 89.8025C77.1648 90.0225 77.2198 90.2325 77.3298 90.4325C77.4448 90.6325 77.6198 90.795 77.8548 90.92C78.0948 91.045 78.4073 91.1075 78.7923 91.1075ZM84.7248 92V83.9H85.9173V85.8575L85.7223 85.6025C85.8173 85.3525 85.9398 85.1225 86.0898 84.9125C86.2448 84.7025 86.4173 84.53 86.6073 84.395C86.8173 84.225 87.0548 84.095 87.3198 84.005C87.5848 83.915 87.8548 83.8625 88.1298 83.8475C88.4048 83.8275 88.6623 83.845 88.9023 83.9V85.1525C88.6223 85.0775 88.3148 85.0575 87.9798 85.0925C87.6448 85.1275 87.3348 85.25 87.0498 85.46C86.7898 85.645 86.5873 85.87 86.4423 86.135C86.3023 86.4 86.2048 86.6875 86.1498 86.9975C86.0948 87.3025 86.0673 87.615 86.0673 87.935V92H84.7248ZM90.313 92L90.3205 81.2H91.6705V87.8L95.068 83.9H96.8005L93.223 87.95L97.2205 92H95.353L91.6705 88.1V92H90.313ZM101.331 92.225C100.536 92.225 99.8405 92.05 99.2455 91.7C98.6555 91.345 98.1955 90.8525 97.8655 90.2225C97.5355 89.5875 97.3705 88.8475 97.3705 88.0025C97.3705 87.1175 97.533 86.3525 97.858 85.7075C98.183 85.0575 98.6355 84.5575 99.2155 84.2075C99.8005 83.8525 100.486 83.675 101.271 83.675C102.086 83.675 102.778 83.8625 103.348 84.2375C103.923 84.6125 104.353 85.1475 104.638 85.8425C104.928 86.5375 105.053 87.365 105.013 88.325H103.663V87.845C103.648 86.85 103.446 86.1075 103.056 85.6175C102.666 85.1225 102.086 84.875 101.316 84.875C100.491 84.875 99.863 85.14 99.433 85.67C99.003 86.2 98.788 86.96 98.788 87.95C98.788 88.905 99.003 89.645 99.433 90.17C99.863 90.695 100.476 90.9575 101.271 90.9575C101.806 90.9575 102.271 90.835 102.666 90.59C103.061 90.345 103.371 89.9925 103.596 89.5325L104.878 89.975C104.563 90.69 104.088 91.245 103.453 91.64C102.823 92.03 102.116 92.225 101.331 92.225ZM98.338 88.325V87.2525H104.323V88.325H98.338ZM111.205 92C110.725 92.095 110.25 92.1325 109.78 92.1125C109.315 92.0975 108.9 92.005 108.535 91.835C108.17 91.66 107.893 91.39 107.703 91.025C107.543 90.705 107.455 90.3825 107.44 90.0575C107.43 89.7275 107.425 89.355 107.425 88.94V81.65H108.76V88.88C108.76 89.21 108.763 89.4925 108.768 89.7275C108.778 89.9625 108.83 90.165 108.925 90.335C109.105 90.655 109.39 90.8425 109.78 90.8975C110.175 90.9525 110.65 90.9375 111.205 90.8525V92ZM105.783 85.0025V83.9H111.205V85.0025H105.783ZM116.57 92.225C115.81 92.225 115.17 92.0375 114.65 91.6625C114.13 91.2825 113.735 90.77 113.465 90.125C113.2 89.475 113.067 88.7475 113.067 87.9425C113.067 87.1275 113.2 86.3975 113.465 85.7525C113.735 85.1075 114.13 84.6 114.65 84.23C115.175 83.86 115.817 83.675 116.577 83.675C117.327 83.675 117.972 83.8625 118.512 84.2375C119.057 84.6075 119.475 85.115 119.765 85.76C120.055 86.405 120.2 87.1325 120.2 87.9425C120.2 88.7525 120.055 89.48 119.765 90.125C119.475 90.77 119.057 91.2825 118.512 91.6625C117.972 92.0375 117.325 92.225 116.57 92.225ZM112.842 95.6V83.9H114.035V89.8625H114.185V95.6H112.842ZM116.405 91.0025C116.94 91.0025 117.382 90.8675 117.732 90.5975C118.082 90.3275 118.345 89.9625 118.52 89.5025C118.695 89.0375 118.782 88.5175 118.782 87.9425C118.782 87.3725 118.695 86.8575 118.52 86.3975C118.35 85.9375 118.085 85.5725 117.725 85.3025C117.37 85.0325 116.917 84.8975 116.367 84.8975C115.842 84.8975 115.407 85.0275 115.062 85.2875C114.717 85.5425 114.46 85.9 114.29 86.36C114.12 86.815 114.035 87.3425 114.035 87.9425C114.035 88.5325 114.117 89.06 114.282 89.525C114.452 89.985 114.712 90.3475 115.062 90.6125C115.412 90.8725 115.86 91.0025 116.405 91.0025ZM121.994 92V80.975H123.329V92H121.994ZM127.882 92.225C127.277 92.225 126.769 92.115 126.359 91.895C125.954 91.67 125.647 91.375 125.437 91.01C125.232 90.645 125.129 90.245 125.129 89.81C125.129 89.385 125.209 89.0175 125.369 88.7075C125.534 88.3925 125.764 88.1325 126.059 87.9275C126.354 87.7175 126.707 87.5525 127.117 87.4325C127.502 87.3275 127.932 87.2375 128.407 87.1625C128.887 87.0825 129.372 87.01 129.862 86.945C130.352 86.88 130.809 86.8175 131.234 86.7575L130.754 87.035C130.769 86.315 130.624 85.7825 130.319 85.4375C130.019 85.0925 129.499 84.92 128.759 84.92C128.269 84.92 127.839 85.0325 127.469 85.2575C127.104 85.4775 126.847 85.8375 126.697 86.3375L125.429 85.955C125.624 85.245 126.002 84.6875 126.562 84.2825C127.122 83.8775 127.859 83.675 128.774 83.675C129.509 83.675 130.139 83.8075 130.664 84.0725C131.194 84.3325 131.574 84.7275 131.804 85.2575C131.919 85.5075 131.992 85.78 132.022 86.075C132.052 86.365 132.067 86.67 132.067 86.99V92H130.882V90.0575L131.159 90.2375C130.854 90.8925 130.427 91.3875 129.877 91.7225C129.332 92.0575 128.667 92.225 127.882 92.225ZM128.084 91.1075C128.564 91.1075 128.979 91.0225 129.329 90.8525C129.684 90.6775 129.969 90.45 130.184 90.17C130.399 89.885 130.539 89.575 130.604 89.24C130.679 88.99 130.719 88.7125 130.724 88.4075C130.734 88.0975 130.739 87.86 130.739 87.695L131.204 87.8975C130.769 87.9575 130.342 88.015 129.922 88.07C129.502 88.125 129.104 88.185 128.729 88.25C128.354 88.31 128.017 88.3825 127.717 88.4675C127.497 88.5375 127.289 88.6275 127.094 88.7375C126.904 88.8475 126.749 88.99 126.629 89.165C126.514 89.335 126.457 89.5475 126.457 89.8025C126.457 90.0225 126.512 90.2325 126.622 90.4325C126.737 90.6325 126.912 90.795 127.147 90.92C127.387 91.045 127.699 91.1075 128.084 91.1075ZM137.429 92.225C136.609 92.225 135.912 92.0425 135.337 91.6775C134.767 91.3075 134.332 90.8 134.032 90.155C133.732 89.51 133.577 88.775 133.567 87.95C133.577 87.105 133.734 86.3625 134.039 85.7225C134.349 85.0775 134.792 84.575 135.367 84.215C135.942 83.855 136.634 83.675 137.444 83.675C138.299 83.675 139.034 83.885 139.649 84.305C140.269 84.725 140.684 85.3 140.894 86.03L139.574 86.4275C139.404 85.9575 139.127 85.5925 138.742 85.3325C138.362 85.0725 137.924 84.9425 137.429 84.9425C136.874 84.9425 136.417 85.0725 136.057 85.3325C135.697 85.5875 135.429 85.9425 135.254 86.3975C135.079 86.8475 134.989 87.365 134.984 87.95C134.994 88.85 135.202 89.5775 135.607 90.1325C136.017 90.6825 136.624 90.9575 137.429 90.9575C137.959 90.9575 138.399 90.8375 138.749 90.5975C139.099 90.3525 139.364 90 139.544 89.54L140.894 89.8925C140.614 90.6475 140.177 91.225 139.582 91.625C138.987 92.025 138.269 92.225 137.429 92.225ZM145.715 92.225C144.92 92.225 144.225 92.05 143.63 91.7C143.04 91.345 142.58 90.8525 142.25 90.2225C141.92 89.5875 141.755 88.8475 141.755 88.0025C141.755 87.1175 141.918 86.3525 142.243 85.7075C142.568 85.0575 143.02 84.5575 143.6 84.2075C144.185 83.8525 144.87 83.675 145.655 83.675C146.47 83.675 147.163 83.8625 147.733 84.2375C148.308 84.6125 148.738 85.1475 149.023 85.8425C149.313 86.5375 149.438 87.365 149.398 88.325H148.048V87.845C148.033 86.85 147.83 86.1075 147.44 85.6175C147.05 85.1225 146.47 84.875 145.7 84.875C144.875 84.875 144.248 85.14 143.818 85.67C143.388 86.2 143.173 86.96 143.173 87.95C143.173 88.905 143.388 89.645 143.818 90.17C144.248 90.695 144.86 90.9575 145.655 90.9575C146.19 90.9575 146.655 90.835 147.05 90.59C147.445 90.345 147.755 89.9925 147.98 89.5325L149.263 89.975C148.948 90.69 148.473 91.245 147.838 91.64C147.208 92.03 146.5 92.225 145.715 92.225ZM142.723 88.325V87.2525H148.708V88.325H142.723ZM156.261 92L153.321 83.9H154.671L156.943 90.2975L159.208 83.9H160.566L157.626 92H156.261ZM162.072 82.4675V81.0875H163.407V82.4675H162.072ZM162.072 92V83.9H163.407V92H162.072ZM168.717 92.2175C167.752 92.2175 166.96 92.0075 166.34 91.5875C165.725 91.1625 165.347 90.57 165.207 89.81L166.572 89.5925C166.682 90.0325 166.935 90.3825 167.33 90.6425C167.725 90.8975 168.215 91.025 168.8 91.025C169.355 91.025 169.79 90.91 170.105 90.68C170.42 90.45 170.577 90.1375 170.577 89.7425C170.577 89.5125 170.525 89.3275 170.42 89.1875C170.315 89.0425 170.097 88.9075 169.767 88.7825C169.442 88.6575 168.95 88.5075 168.29 88.3325C167.575 88.1425 167.012 87.945 166.602 87.74C166.192 87.535 165.9 87.2975 165.725 87.0275C165.55 86.7575 165.462 86.43 165.462 86.045C165.462 85.57 165.592 85.155 165.852 84.8C166.112 84.44 166.475 84.1625 166.94 83.9675C167.41 83.7725 167.955 83.675 168.575 83.675C169.19 83.675 169.74 83.7725 170.225 83.9675C170.71 84.1625 171.1 84.44 171.395 84.8C171.695 85.155 171.872 85.57 171.927 86.045L170.562 86.2925C170.497 85.8575 170.287 85.515 169.932 85.265C169.582 85.015 169.13 84.8825 168.575 84.8675C168.05 84.8475 167.622 84.94 167.292 85.145C166.967 85.35 166.805 85.6275 166.805 85.9775C166.805 86.1725 166.865 86.34 166.985 86.48C167.11 86.62 167.337 86.7525 167.667 86.8775C168.002 87.0025 168.487 87.145 169.122 87.305C169.837 87.485 170.4 87.6825 170.81 87.8975C171.225 88.1075 171.52 88.3575 171.695 88.6475C171.87 88.9325 171.957 89.285 171.957 89.705C171.957 90.485 171.67 91.1 171.095 91.55C170.52 91.995 169.727 92.2175 168.717 92.2175ZM173.762 82.4675V81.0875H175.097V82.4675H173.762ZM173.762 92V83.9H175.097V92H173.762ZM181.067 92.225C180.307 92.225 179.667 92.0375 179.147 91.6625C178.627 91.2825 178.232 90.77 177.962 90.125C177.697 89.475 177.564 88.7475 177.564 87.9425C177.564 87.1275 177.697 86.3975 177.962 85.7525C178.232 85.1075 178.627 84.6 179.147 84.23C179.672 83.86 180.314 83.675 181.074 83.675C181.824 83.675 182.469 83.8625 183.009 84.2375C183.554 84.6075 183.972 85.115 184.262 85.76C184.552 86.405 184.697 87.1325 184.697 87.9425C184.697 88.7525 184.552 89.48 184.262 90.125C183.972 90.77 183.554 91.2825 183.009 91.6625C182.469 92.0375 181.822 92.225 181.067 92.225ZM177.339 92V81.2H178.682V86.0375H178.532V92H177.339ZM180.902 91.0025C181.437 91.0025 181.879 90.8675 182.229 90.5975C182.579 90.3275 182.842 89.9625 183.017 89.5025C183.192 89.0375 183.279 88.5175 183.279 87.9425C183.279 87.3725 183.192 86.8575 183.017 86.3975C182.847 85.9375 182.582 85.5725 182.222 85.3025C181.867 85.0325 181.414 84.8975 180.864 84.8975C180.339 84.8975 179.904 85.0275 179.559 85.2875C179.214 85.5425 178.957 85.9 178.787 86.36C178.617 86.815 178.532 87.3425 178.532 87.9425C178.532 88.5325 178.614 89.06 178.779 89.525C178.949 89.985 179.209 90.3475 179.559 90.6125C179.909 90.8725 180.357 91.0025 180.902 91.0025ZM186.491 82.4675V81.0875H187.826V82.4675H186.491ZM186.491 92V83.9H187.826V92H186.491ZM190.226 92V80.975H191.561V92H190.226ZM193.962 82.4675V81.0875H195.297V82.4675H193.962ZM193.962 92V83.9H195.297V92H193.962ZM202.07 92C201.59 92.095 201.115 92.1325 200.645 92.1125C200.18 92.0975 199.765 92.005 199.4 91.835C199.035 91.66 198.757 91.39 198.567 91.025C198.407 90.705 198.32 90.3825 198.305 90.0575C198.295 89.7275 198.29 89.355 198.29 88.94V81.65H199.625V88.88C199.625 89.21 199.627 89.4925 199.632 89.7275C199.642 89.9625 199.695 90.165 199.79 90.335C199.97 90.655 200.255 90.8425 200.645 90.8975C201.04 90.9525 201.515 90.9375 202.07 90.8525V92ZM196.647 85.0025V83.9H202.07V85.0025H196.647ZM204.619 95.6L206.187 91.34L206.209 92.6L202.669 83.9H204.072L206.847 90.8975H206.367L208.969 83.9H210.327L205.917 95.6H204.619Z" fill="#080C20"/>
<path d="M10.3187 83.768L11.6813 85.232L4.55394 91.8661L0.318672 87.924L1.68133 86.46L4.553 89.134L10.3187 83.768Z" fill="#093F68"/>
</g>
<g clip-path="url(#clip3_0_4082)">
<path d="M31.245 129.225C30.69 129.225 30.1725 129.11 29.6925 128.88C29.2175 128.65 28.81 128.335 28.47 127.935C28.135 127.53 27.895 127.065 27.75 126.54L29.0325 126.195C29.1225 126.55 29.2825 126.857 29.5125 127.117C29.7425 127.372 30.01 127.572 30.315 127.717C30.625 127.857 30.9475 127.927 31.2825 127.927C31.7225 127.927 32.1175 127.822 32.4675 127.612C32.8225 127.397 33.1025 127.115 33.3075 126.765C33.5125 126.41 33.615 126.022 33.615 125.602C33.615 125.167 33.5075 124.775 33.2925 124.425C33.0825 124.07 32.8 123.79 32.445 123.585C32.09 123.38 31.7025 123.277 31.2825 123.277C30.8075 123.277 30.4 123.377 30.06 123.577C29.725 123.772 29.46 124.012 29.265 124.297L28.08 123.847L28.41 118.2H34.2075V119.467H29.055L29.6475 118.912L29.37 123.435L29.0775 123.052C29.3775 122.732 29.735 122.485 30.15 122.31C30.57 122.135 30.9975 122.047 31.4325 122.047C32.1025 122.047 32.7025 122.205 33.2325 122.52C33.7625 122.83 34.1825 123.255 34.4925 123.795C34.8025 124.33 34.9575 124.932 34.9575 125.602C34.9575 126.267 34.7875 126.875 34.4475 127.425C34.1075 127.97 33.655 128.407 33.09 128.737C32.53 129.063 31.915 129.225 31.245 129.225ZM37.9512 129L37.0512 128.1L46.9662 118.2L47.8662 119.1L37.9512 129ZM45.6162 129.225C45.1212 129.225 44.6687 129.105 44.2587 128.865C43.8537 128.62 43.5287 128.295 43.2837 127.89C43.0387 127.48 42.9162 127.025 42.9162 126.525C42.9162 126.035 43.0412 125.585 43.2912 125.175C43.5412 124.765 43.8712 124.437 44.2812 124.192C44.6912 123.947 45.1362 123.825 45.6162 123.825C46.1112 123.825 46.5637 123.947 46.9737 124.192C47.3837 124.432 47.7087 124.757 47.9487 125.167C48.1937 125.572 48.3162 126.025 48.3162 126.525C48.3162 127.025 48.1937 127.48 47.9487 127.89C47.7087 128.295 47.3837 128.62 46.9737 128.865C46.5637 129.105 46.1112 129.225 45.6162 129.225ZM45.6162 128.047C45.8912 128.047 46.1437 127.977 46.3737 127.837C46.6087 127.697 46.7937 127.512 46.9287 127.282C47.0687 127.052 47.1387 126.8 47.1387 126.525C47.1387 126.25 47.0687 125.997 46.9287 125.767C46.7937 125.532 46.6087 125.347 46.3737 125.213C46.1437 125.072 45.8912 125.002 45.6162 125.002C45.3412 125.002 45.0887 125.072 44.8587 125.213C44.6287 125.347 44.4437 125.532 44.3037 125.767C44.1637 125.997 44.0937 126.25 44.0937 126.525C44.0937 126.8 44.1637 127.052 44.3037 127.282C44.4437 127.512 44.6287 127.697 44.8587 127.837C45.0887 127.977 45.3412 128.047 45.6162 128.047ZM39.3012 123.375C38.8062 123.375 38.3537 123.255 37.9437 123.015C37.5337 122.77 37.2062 122.445 36.9612 122.04C36.7212 121.63 36.6012 121.175 36.6012 120.675C36.6012 120.185 36.7262 119.735 36.9762 119.325C37.2262 118.915 37.5562 118.587 37.9662 118.342C38.3762 118.097 38.8212 117.975 39.3012 117.975C39.7962 117.975 40.2462 118.097 40.6512 118.342C41.0612 118.582 41.3887 118.907 41.6337 119.317C41.8787 119.722 42.0012 120.175 42.0012 120.675C42.0012 121.175 41.8787 121.63 41.6337 122.04C41.3887 122.445 41.0612 122.77 40.6512 123.015C40.2462 123.255 39.7962 123.375 39.3012 123.375ZM39.3012 122.197C39.5762 122.197 39.8287 122.127 40.0587 121.987C40.2937 121.847 40.4787 121.662 40.6137 121.432C40.7537 121.202 40.8237 120.95 40.8237 120.675C40.8237 120.4 40.7537 120.147 40.6137 119.917C40.4787 119.682 40.2937 119.497 40.0587 119.362C39.8287 119.222 39.5762 119.152 39.3012 119.152C39.0262 119.152 38.7737 119.222 38.5437 119.362C38.3137 119.497 38.1287 119.682 37.9887 119.917C37.8487 120.147 37.7787 120.4 37.7787 120.675C37.7787 120.95 37.8487 121.202 37.9887 121.432C38.1287 121.662 38.3137 121.847 38.5437 121.987C38.7737 122.127 39.0262 122.197 39.3012 122.197ZM54.0471 129V120.457C54.0471 120.247 54.0571 120.035 54.0771 119.82C54.0971 119.6 54.1421 119.387 54.2121 119.182C54.2821 118.972 54.3971 118.78 54.5571 118.605C54.7421 118.4 54.9446 118.255 55.1646 118.17C55.3846 118.08 55.6071 118.025 55.8321 118.005C56.0621 117.985 56.2796 117.975 56.4846 117.975H57.5121V119.085H56.5596C56.1646 119.085 55.8696 119.182 55.6746 119.377C55.4796 119.567 55.3821 119.857 55.3821 120.247V129H54.0471ZM52.6746 122.002V120.9H57.5121V122.002H52.6746ZM61.9262 129.225C61.1312 129.225 60.4362 129.05 59.8412 128.7C59.2512 128.345 58.7912 127.852 58.4612 127.222C58.1312 126.587 57.9662 125.847 57.9662 125.002C57.9662 124.117 58.1287 123.352 58.4537 122.707C58.7787 122.057 59.2312 121.557 59.8112 121.207C60.3962 120.852 61.0812 120.675 61.8662 120.675C62.6812 120.675 63.3737 120.862 63.9437 121.237C64.5187 121.612 64.9487 122.147 65.2337 122.842C65.5237 123.537 65.6487 124.365 65.6087 125.325H64.2587V124.845C64.2437 123.85 64.0412 123.107 63.6512 122.617C63.2612 122.122 62.6812 121.875 61.9112 121.875C61.0862 121.875 60.4587 122.14 60.0287 122.67C59.5987 123.2 59.3837 123.96 59.3837 124.95C59.3837 125.905 59.5987 126.645 60.0287 127.17C60.4587 127.695 61.0712 127.957 61.8662 127.957C62.4012 127.957 62.8662 127.835 63.2612 127.59C63.6562 127.345 63.9662 126.992 64.1912 126.532L65.4737 126.975C65.1587 127.69 64.6837 128.245 64.0487 128.64C63.4187 129.03 62.7112 129.225 61.9262 129.225ZM58.9337 125.325V124.252H64.9187V125.325H58.9337ZM70.7885 129.225C69.9935 129.225 69.2985 129.05 68.7035 128.7C68.1135 128.345 67.6535 127.852 67.3235 127.222C66.9935 126.587 66.8285 125.847 66.8285 125.002C66.8285 124.117 66.991 123.352 67.316 122.707C67.641 122.057 68.0935 121.557 68.6735 121.207C69.2585 120.852 69.9435 120.675 70.7285 120.675C71.5435 120.675 72.236 120.862 72.806 121.237C73.381 121.612 73.811 122.147 74.096 122.842C74.386 123.537 74.511 124.365 74.471 125.325H73.121V124.845C73.106 123.85 72.9035 123.107 72.5135 122.617C72.1235 122.122 71.5435 121.875 70.7735 121.875C69.9485 121.875 69.321 122.14 68.891 122.67C68.461 123.2 68.246 123.96 68.246 124.95C68.246 125.905 68.461 126.645 68.891 127.17C69.321 127.695 69.9335 127.957 70.7285 127.957C71.2635 127.957 71.7285 127.835 72.1235 127.59C72.5185 127.345 72.8285 126.992 73.0535 126.532L74.336 126.975C74.021 127.69 73.546 128.245 72.911 128.64C72.281 129.03 71.5735 129.225 70.7885 129.225ZM67.796 125.325V124.252H73.781V125.325H67.796ZM82.8638 129.225C82.1038 129.225 81.4638 129.038 80.9438 128.662C80.4238 128.282 80.0288 127.77 79.7588 127.125C79.4938 126.475 79.3613 125.747 79.3613 124.942C79.3613 124.127 79.4938 123.397 79.7588 122.752C80.0288 122.107 80.4238 121.6 80.9438 121.23C81.4688 120.86 82.1113 120.675 82.8713 120.675C83.6213 120.675 84.2663 120.862 84.8063 121.237C85.3513 121.607 85.7688 122.115 86.0588 122.76C86.3488 123.405 86.4938 124.132 86.4938 124.942C86.4938 125.752 86.3488 126.48 86.0588 127.125C85.7688 127.77 85.3513 128.282 84.8063 128.662C84.2663 129.038 83.6188 129.225 82.8638 129.225ZM79.1363 132.6V120.9H80.3288V126.862H80.4788V132.6H79.1363ZM82.6988 128.002C83.2338 128.002 83.6763 127.867 84.0263 127.597C84.3763 127.327 84.6388 126.962 84.8138 126.502C84.9888 126.037 85.0763 125.517 85.0763 124.942C85.0763 124.372 84.9888 123.857 84.8138 123.397C84.6438 122.937 84.3788 122.572 84.0188 122.302C83.6638 122.032 83.2113 121.897 82.6613 121.897C82.1363 121.897 81.7013 122.027 81.3563 122.287C81.0113 122.542 80.7538 122.9 80.5838 123.36C80.4138 123.815 80.3288 124.342 80.3288 124.942C80.3288 125.532 80.4113 126.06 80.5763 126.525C80.7463 126.985 81.0063 127.347 81.3563 127.612C81.7063 127.872 82.1538 128.002 82.6988 128.002ZM91.6479 129.225C90.8529 129.225 90.1579 129.05 89.5629 128.7C88.9729 128.345 88.5129 127.852 88.1829 127.222C87.8529 126.587 87.6879 125.847 87.6879 125.002C87.6879 124.117 87.8504 123.352 88.1754 122.707C88.5004 122.057 88.9529 121.557 89.5329 121.207C90.1179 120.852 90.8029 120.675 91.5879 120.675C92.4029 120.675 93.0954 120.862 93.6654 121.237C94.2404 121.612 94.6704 122.147 94.9554 122.842C95.2454 123.537 95.3704 124.365 95.3304 125.325H93.9804V124.845C93.9654 123.85 93.7629 123.107 93.3729 122.617C92.9829 122.122 92.4029 121.875 91.6329 121.875C90.8079 121.875 90.1804 122.14 89.7504 122.67C89.3204 123.2 89.1054 123.96 89.1054 124.95C89.1054 125.905 89.3204 126.645 89.7504 127.17C90.1804 127.695 90.7929 127.957 91.5879 127.957C92.1229 127.957 92.5879 127.835 92.9829 127.59C93.3779 127.345 93.6879 126.992 93.9129 126.532L95.1954 126.975C94.8804 127.69 94.4054 128.245 93.7704 128.64C93.1404 129.03 92.4329 129.225 91.6479 129.225ZM88.6554 125.325V124.252H94.6404V125.325H88.6554ZM97.0002 129V120.9H98.1927V122.857L97.9977 122.602C98.0927 122.352 98.2152 122.122 98.3652 121.912C98.5202 121.702 98.6927 121.53 98.8827 121.395C99.0927 121.225 99.3302 121.095 99.5952 121.005C99.8602 120.915 100.13 120.862 100.405 120.847C100.68 120.827 100.938 120.845 101.178 120.9V122.152C100.898 122.077 100.59 122.057 100.255 122.092C99.9202 122.127 99.6102 122.25 99.3252 122.46C99.0652 122.645 98.8627 122.87 98.7177 123.135C98.5777 123.4 98.4802 123.687 98.4252 123.997C98.3702 124.302 98.3427 124.615 98.3427 124.935V129H97.0002ZM110.121 129C109.641 129.095 109.166 129.133 108.696 129.113C108.231 129.098 107.816 129.005 107.451 128.835C107.086 128.66 106.809 128.39 106.619 128.025C106.459 127.705 106.371 127.382 106.356 127.057C106.346 126.727 106.341 126.355 106.341 125.94V118.65H107.676V125.88C107.676 126.21 107.679 126.492 107.684 126.727C107.694 126.962 107.746 127.165 107.841 127.335C108.021 127.655 108.306 127.842 108.696 127.898C109.091 127.952 109.566 127.937 110.121 127.852V129ZM104.699 122.002V120.9H110.121V122.002H104.699ZM111.766 129V120.9H112.958V122.857L112.763 122.602C112.858 122.352 112.981 122.122 113.131 121.912C113.286 121.702 113.458 121.53 113.648 121.395C113.858 121.225 114.096 121.095 114.361 121.005C114.626 120.915 114.896 120.862 115.171 120.847C115.446 120.827 115.703 120.845 115.943 120.9V122.152C115.663 122.077 115.356 122.057 115.021 122.092C114.686 122.127 114.376 122.25 114.091 122.46C113.831 122.645 113.628 122.87 113.483 123.135C113.343 123.4 113.246 123.687 113.191 123.997C113.136 124.302 113.108 124.615 113.108 124.935V129H111.766ZM119.4 129.225C118.795 129.225 118.288 129.115 117.878 128.895C117.473 128.67 117.165 128.375 116.955 128.01C116.75 127.645 116.648 127.245 116.648 126.81C116.648 126.385 116.728 126.017 116.888 125.707C117.053 125.392 117.283 125.132 117.578 124.927C117.873 124.717 118.225 124.552 118.635 124.432C119.02 124.327 119.45 124.237 119.925 124.162C120.405 124.082 120.89 124.01 121.38 123.945C121.87 123.88 122.328 123.817 122.753 123.757L122.273 124.035C122.288 123.315 122.143 122.782 121.838 122.437C121.538 122.092 121.018 121.92 120.278 121.92C119.788 121.92 119.358 122.032 118.988 122.257C118.623 122.477 118.365 122.837 118.215 123.337L116.948 122.955C117.143 122.245 117.52 121.687 118.08 121.282C118.64 120.877 119.378 120.675 120.293 120.675C121.028 120.675 121.658 120.807 122.183 121.072C122.713 121.332 123.093 121.727 123.323 122.257C123.438 122.507 123.51 122.78 123.54 123.075C123.57 123.365 123.585 123.67 123.585 123.99V129H122.4V127.057L122.678 127.237C122.373 127.892 121.945 128.387 121.395 128.722C120.85 129.058 120.185 129.225 119.4 129.225ZM119.603 128.107C120.083 128.107 120.498 128.022 120.848 127.852C121.203 127.677 121.488 127.45 121.703 127.17C121.918 126.885 122.058 126.575 122.123 126.24C122.198 125.99 122.238 125.712 122.243 125.407C122.253 125.097 122.258 124.86 122.258 124.695L122.723 124.897C122.288 124.957 121.86 125.015 121.44 125.07C121.02 125.125 120.623 125.185 120.248 125.25C119.873 125.31 119.535 125.382 119.235 125.467C119.015 125.537 118.808 125.627 118.613 125.737C118.423 125.847 118.268 125.99 118.148 126.165C118.033 126.335 117.975 126.547 117.975 126.802C117.975 127.022 118.03 127.232 118.14 127.432C118.255 127.632 118.43 127.795 118.665 127.92C118.905 128.045 119.218 128.107 119.603 128.107ZM131.303 129V124.942C131.303 124.557 131.268 124.187 131.198 123.832C131.133 123.477 131.015 123.16 130.845 122.88C130.68 122.595 130.455 122.37 130.17 122.205C129.89 122.04 129.535 121.957 129.105 121.957C128.77 121.957 128.465 122.015 128.19 122.13C127.92 122.24 127.688 122.41 127.493 122.64C127.298 122.87 127.145 123.16 127.035 123.51C126.93 123.855 126.878 124.262 126.878 124.732L126 124.462C126 123.677 126.14 123.005 126.42 122.445C126.705 121.88 127.103 121.447 127.613 121.147C128.128 120.842 128.733 120.69 129.428 120.69C129.953 120.69 130.4 120.772 130.77 120.937C131.14 121.102 131.448 121.322 131.693 121.597C131.938 121.867 132.13 122.172 132.27 122.512C132.41 122.847 132.508 123.19 132.563 123.54C132.623 123.885 132.653 124.212 132.653 124.522V129H131.303ZM125.528 129V120.9H126.728V123.067H126.878V129H125.528ZM137.663 129.218C136.698 129.218 135.905 129.007 135.285 128.587C134.67 128.162 134.293 127.57 134.153 126.81L135.518 126.592C135.628 127.032 135.88 127.382 136.275 127.642C136.67 127.897 137.16 128.025 137.745 128.025C138.3 128.025 138.735 127.91 139.05 127.68C139.365 127.45 139.523 127.137 139.523 126.742C139.523 126.512 139.47 126.327 139.365 126.187C139.26 126.042 139.043 125.907 138.713 125.782C138.388 125.657 137.895 125.507 137.235 125.332C136.52 125.142 135.958 124.945 135.548 124.74C135.138 124.535 134.845 124.297 134.67 124.027C134.495 123.757 134.408 123.43 134.408 123.045C134.408 122.57 134.538 122.155 134.798 121.8C135.058 121.44 135.42 121.162 135.885 120.967C136.355 120.772 136.9 120.675 137.52 120.675C138.135 120.675 138.685 120.772 139.17 120.967C139.655 121.162 140.045 121.44 140.34 121.8C140.64 122.155 140.818 122.57 140.873 123.045L139.508 123.292C139.443 122.857 139.233 122.515 138.878 122.265C138.528 122.015 138.075 121.882 137.52 121.867C136.995 121.847 136.568 121.94 136.238 122.145C135.913 122.35 135.75 122.627 135.75 122.977C135.75 123.172 135.81 123.34 135.93 123.48C136.055 123.62 136.283 123.752 136.613 123.877C136.948 124.002 137.433 124.145 138.068 124.305C138.783 124.485 139.345 124.682 139.755 124.897C140.17 125.107 140.465 125.357 140.64 125.647C140.815 125.932 140.903 126.285 140.903 126.705C140.903 127.485 140.615 128.1 140.04 128.55C139.465 128.995 138.673 129.218 137.663 129.218ZM144.859 129.225C144.254 129.225 143.747 129.115 143.337 128.895C142.932 128.67 142.624 128.375 142.414 128.01C142.209 127.645 142.107 127.245 142.107 126.81C142.107 126.385 142.187 126.017 142.347 125.707C142.512 125.392 142.742 125.132 143.037 124.927C143.332 124.717 143.684 124.552 144.094 124.432C144.479 124.327 144.909 124.237 145.384 124.162C145.864 124.082 146.349 124.01 146.839 123.945C147.329 123.88 147.787 123.817 148.212 123.757L147.732 124.035C147.747 123.315 147.602 122.782 147.297 122.437C146.997 122.092 146.477 121.92 145.737 121.92C145.247 121.92 144.817 122.032 144.447 122.257C144.082 122.477 143.824 122.837 143.674 123.337L142.407 122.955C142.602 122.245 142.979 121.687 143.539 121.282C144.099 120.877 144.837 120.675 145.752 120.675C146.487 120.675 147.117 120.807 147.642 121.072C148.172 121.332 148.552 121.727 148.782 122.257C148.897 122.507 148.969 122.78 148.999 123.075C149.029 123.365 149.044 123.67 149.044 123.99V129H147.859V127.057L148.137 127.237C147.832 127.892 147.404 128.387 146.854 128.722C146.309 129.058 145.644 129.225 144.859 129.225ZM145.062 128.107C145.542 128.107 145.957 128.022 146.307 127.852C146.662 127.677 146.947 127.45 147.162 127.17C147.377 126.885 147.517 126.575 147.582 126.24C147.657 125.99 147.697 125.712 147.702 125.407C147.712 125.097 147.717 124.86 147.717 124.695L148.182 124.897C147.747 124.957 147.319 125.015 146.899 125.07C146.479 125.125 146.082 125.185 145.707 125.25C145.332 125.31 144.994 125.382 144.694 125.467C144.474 125.537 144.267 125.627 144.072 125.737C143.882 125.847 143.727 125.99 143.607 126.165C143.492 126.335 143.434 126.547 143.434 126.802C143.434 127.022 143.489 127.232 143.599 127.432C143.714 127.632 143.889 127.795 144.124 127.92C144.364 128.045 144.677 128.107 145.062 128.107ZM154.407 129.225C153.587 129.225 152.889 129.043 152.314 128.677C151.744 128.307 151.309 127.8 151.009 127.155C150.709 126.51 150.554 125.775 150.544 124.95C150.554 124.105 150.712 123.362 151.017 122.722C151.327 122.077 151.769 121.575 152.344 121.215C152.919 120.855 153.612 120.675 154.422 120.675C155.277 120.675 156.012 120.885 156.627 121.305C157.247 121.725 157.662 122.3 157.872 123.03L156.552 123.427C156.382 122.957 156.104 122.592 155.719 122.332C155.339 122.072 154.902 121.942 154.407 121.942C153.852 121.942 153.394 122.072 153.034 122.332C152.674 122.587 152.407 122.942 152.232 123.397C152.057 123.847 151.967 124.365 151.962 124.95C151.972 125.85 152.179 126.577 152.584 127.132C152.994 127.682 153.602 127.957 154.407 127.957C154.937 127.957 155.377 127.837 155.727 127.597C156.077 127.352 156.342 127 156.522 126.54L157.872 126.892C157.592 127.647 157.154 128.225 156.559 128.625C155.964 129.025 155.247 129.225 154.407 129.225ZM163.925 129C163.445 129.095 162.97 129.133 162.5 129.113C162.035 129.098 161.62 129.005 161.255 128.835C160.89 128.66 160.613 128.39 160.423 128.025C160.263 127.705 160.175 127.382 160.16 127.057C160.15 126.727 160.145 126.355 160.145 125.94V118.65H161.48V125.88C161.48 126.21 161.483 126.492 161.488 126.727C161.498 126.962 161.55 127.165 161.645 127.335C161.825 127.655 162.11 127.842 162.5 127.898C162.895 127.952 163.37 127.937 163.925 127.852V129ZM158.503 122.002V120.9H163.925V122.002H158.503ZM165.72 119.467V118.087H167.055V119.467H165.72ZM165.72 129V120.9H167.055V129H165.72ZM172.755 129.225C171.95 129.225 171.255 129.043 170.67 128.677C170.09 128.312 169.642 127.807 169.327 127.162C169.012 126.517 168.855 125.777 168.855 124.942C168.855 124.092 169.015 123.347 169.335 122.707C169.655 122.067 170.107 121.57 170.692 121.215C171.277 120.855 171.965 120.675 172.755 120.675C173.565 120.675 174.262 120.857 174.847 121.222C175.432 121.582 175.88 122.085 176.19 122.73C176.505 123.37 176.662 124.107 176.662 124.942C176.662 125.787 176.505 126.532 176.19 127.177C175.875 127.817 175.425 128.32 174.84 128.685C174.255 129.045 173.56 129.225 172.755 129.225ZM172.755 127.957C173.595 127.957 174.22 127.677 174.63 127.117C175.04 126.557 175.245 125.832 175.245 124.942C175.245 124.027 175.037 123.3 174.622 122.76C174.207 122.215 173.585 121.942 172.755 121.942C172.19 121.942 171.725 122.07 171.36 122.325C170.995 122.58 170.722 122.932 170.542 123.382C170.362 123.832 170.272 124.352 170.272 124.942C170.272 125.852 170.482 126.582 170.902 127.132C171.322 127.682 171.94 127.957 172.755 127.957ZM184.081 129V124.942C184.081 124.557 184.046 124.187 183.976 123.832C183.911 123.477 183.794 123.16 183.624 122.88C183.459 122.595 183.234 122.37 182.949 122.205C182.669 122.04 182.314 121.957 181.884 121.957C181.549 121.957 181.244 122.015 180.969 122.13C180.699 122.24 180.466 122.41 180.271 122.64C180.076 122.87 179.924 123.16 179.814 123.51C179.709 123.855 179.656 124.262 179.656 124.732L178.779 124.462C178.779 123.677 178.919 123.005 179.199 122.445C179.484 121.88 179.881 121.447 180.391 121.147C180.906 120.842 181.511 120.69 182.206 120.69C182.731 120.69 183.179 120.772 183.549 120.937C183.919 121.102 184.226 121.322 184.471 121.597C184.716 121.867 184.909 122.172 185.049 122.512C185.189 122.847 185.286 123.19 185.341 123.54C185.401 123.885 185.431 124.212 185.431 124.522V129H184.081ZM178.306 129V120.9H179.506V123.067H179.656V129H178.306Z" fill="#080C20"/>
<path d="M10.3187 120.768L11.6813 122.232L4.55394 128.866L0.318672 124.924L1.68133 123.46L4.553 126.134L10.3187 120.768Z" fill="#093F68"/>
</g>
<defs>
<clipPath id="clip0_0_4082">
<rect width="139" height="25" fill="white" transform="translate(0.318672)"/>
</clipPath>
<clipPath id="clip1_0_4082">
<rect width="250" height="25" fill="white" transform="translate(0.318672 37)"/>
</clipPath>
<clipPath id="clip2_0_4082">
<rect width="212" height="25" fill="white" transform="translate(0.318672 74)"/>
</clipPath>
<clipPath id="clip3_0_4082">
<rect width="187" height="25" fill="white" transform="translate(0.318672 111)"/>
</clipPath>
</defs>
</svg>
