<svg width="1440" height="228" viewBox="0 0 1440 228" fill="none" xmlns="http://www.w3.org/2000/svg">
<path opacity="0.25" d="M699.933 0.00510161C700.523 -0.00539478 701.013 -0.00124772 701.42 0.0241305C701.811 0.048531 702.139 0.0882022 702.523 0.185757C703.111 0.335492 703.634 0.554468 704.177 1.03999C705.376 2.11307 705.462 3.70643 704.479 4.85921C702.973 6.6254 700.147 8.04147 696.15 9.23375L695.231 9.50002L694 9.85093L692.574 10.2543L690.328 10.8819L687.105 11.767L682.776 12.9298L677.898 14.214L669.043 16.505L651.431 21.0258L645.815 22.4878L640.947 23.7757L637.028 24.835L633.743 25.7428C632.226 26.167 630.743 26.5883 629.24 27.0217L626.1 27.9336L622.346 29.0307L615.457 31.0634L609.193 32.9348L604.105 34.4708L596.19 36.8868L589.913 38.8228L577.713 42.6236L561.828 47.6208L523.362 59.7918L504.128 65.9016L492.105 69.7386L478.821 73.9986L469.788 76.9107L459.412 80.2747L449.5 83.5099L444.705 85.0837L438.468 87.1407L430.903 89.6515L427.945 90.6387L422.135 92.5868L416.458 94.5033L410.9 96.3924L405.45 98.2585L400.094 100.106L394.821 101.939L388.327 104.216L383.195 106.032L378.104 107.847L373.044 109.666L368.932 111.154L364.14 112.9L358.536 114.96L355.023 116.262L351.547 117.558L348.108 118.85L344.706 120.138L341.341 121.42C340.783 121.633 340.227 121.847 339.673 122.06L336.363 123.335L333.091 124.606C332.548 124.817 332.008 125.029 331.468 125.24L328.251 126.504L325.07 127.763L321.927 129.019L318.819 130.27L315.749 131.517L312.714 132.759L309.717 133.998L306.755 135.232L303.831 136.463C303.346 136.668 302.863 136.872 302.382 137.077L299.511 138.301L296.677 139.522L293.879 140.74C293.416 140.942 292.954 141.145 292.493 141.347L289.749 142.559L287.042 143.767L284.37 144.971L281.734 146.173L279.134 147.37C278.703 147.57 278.274 147.769 277.847 147.968L275.301 149.161L272.79 150.351L270.315 151.537C269.087 152.13 267.871 152.721 266.67 153.311L264.284 154.49C263.889 154.686 263.496 154.883 263.104 155.079L260.771 156.253C260.385 156.449 260.001 156.644 259.618 156.839L257.339 158.01C255.454 158.984 253.606 159.955 251.794 160.924L249.638 162.085C249.281 162.279 248.927 162.472 248.573 162.665L246.47 163.822C244.384 164.979 242.35 166.131 240.369 167.281L238.406 168.429C238.082 168.62 237.759 168.811 237.437 169.002L235.526 170.147C233.317 171.482 231.178 172.812 229.11 174.139C219.931 180.03 214.964 186.476 213.082 193.876C212.023 198.042 211.895 202.089 212.56 207.441L212.699 208.494C212.724 208.672 212.749 208.852 212.776 209.033L212.944 210.139L213.131 211.283L213.337 212.468C213.373 212.669 213.41 212.872 213.447 213.077L213.681 214.327C213.939 215.673 215.121 217.056 217.654 218.52L218.434 218.967L218.931 219.244L219.412 219.505L219.882 219.751L220.344 219.982C220.421 220.019 220.497 220.056 220.573 220.092L221.029 220.301C221.105 220.335 221.181 220.368 221.257 220.4L221.715 220.588L222.177 220.762C223.578 221.265 225.097 221.589 227.148 221.782L227.852 221.842L228.599 221.892L229.391 221.933L230.234 221.966C230.379 221.971 230.526 221.975 230.675 221.979L231.598 221.999L232.579 222.012L233.622 222.017L234.894 222.015L235.912 222.008L238.111 221.98L240.541 221.936L247.507 221.773L255.146 221.563L260.496 221.389L264.114 221.252L266.356 221.157L268.984 221.032L271.904 220.872L274.601 220.7L276.29 220.577L278.295 220.414L279.826 220.275L281.302 220.128L282.733 219.972L283.782 219.849L285.155 219.676L286.171 219.54L287.499 219.352L288.17 219.251L289.806 218.981L293.146 218.396L305.218 216.199L318.922 213.698L322.435 213.076L335.505 210.802L343.98 209.31L353.078 207.687L359.546 206.517L367.773 205.005L374.668 203.714L380.404 202.621L386.022 201.533L397.041 199.374L404.305 197.943L424.037 194.025L442.111 190.398L462.756 186.219L498.096 179.009L544.172 169.555L628.931 152.047L789.502 118.761L852.103 105.857L882.22 99.6868L905.973 94.8414L908.444 94.3428L912.555 93.5206L921.527 91.7584L931.867 89.7757L940.018 88.2398L954.131 85.6147L1100.5 58.6488L1134.07 52.5125L1156.8 48.3925L1176.68 44.8196L1194.61 41.6267L1206.82 39.4708L1221.81 36.8389C1222.82 36.6615 1223.84 36.4835 1224.86 36.3049C1227.24 35.8893 1229.61 35.4828 1231.98 35.0836L1235.03 34.5741L1237.96 34.0917L1240.66 33.6546L1243.37 33.2218L1247.93 32.5085L1252.56 31.8028L1258.24 30.9623L1262.11 30.4037L1266.06 29.8448L1271.13 29.1437L1276.35 28.4374L1280.65 27.8668L1285.08 27.2897L1290.8 26.5572L1295.54 25.9606L1301.68 25.1994L1309.4 24.2597L1316.13 23.4515L1326.07 22.2764L1339.79 20.6798L1362.28 18.0921L1376.5 16.3925L1382.91 15.6528L1387.33 15.1647L1389.69 14.9147L1392.51 14.6274L1394.16 14.4668L1396.87 14.2153L1399.56 13.9804L1402.83 13.7137L1405.71 13.4947L1407.54 13.3635L1409.86 13.2105L1411.51 13.1126L1413.07 13.0296L1414.07 12.9827L1415.03 12.9427L1416.42 12.8958L1417.3 12.8734L1418.15 12.8582L1418.97 12.8505L1419.76 12.8502L1420.52 12.8574L1421.25 12.8724C1421.37 12.8755 1421.49 12.879 1421.6 12.8827L1422.29 12.9094C1422.4 12.9145 1422.51 12.9199 1422.62 12.9257L1423.26 12.9643C1423.37 12.9714 1423.47 12.9789 1423.58 12.9866L1424.18 13.0375L1424.75 13.0965L1425.3 13.164C1425.66 13.2118 1426 13.2652 1426.32 13.3244L1426.8 13.4176C1426.95 13.4502 1427.1 13.4842 1427.25 13.5197L1427.67 13.6306C1427.81 13.6691 1427.95 13.709 1428.08 13.7505L1428.46 13.8796C1428.52 13.9019 1428.58 13.9245 1428.64 13.9476L1428.99 14.0905C1430.68 14.8286 1431.59 15.9189 1432.02 17.4215L1432.1 17.7276C1432.11 17.7795 1432.12 17.8319 1432.13 17.8848L1432.2 18.2075L1432.3 18.9257L1432.32 19.0039L1432.36 19.1554L1432.45 19.4265L1432.88 20.6519L1432.92 20.7461C1433.71 23.1446 1433.51 25.1447 1431.51 27.06C1426.31 32.0621 1421.33 35.4974 1413.7 38.7197L1412.64 39.1624L1411.6 39.5807L1410.92 39.856L1409.53 40.4009L1408.11 40.9423L1407.02 41.3492L1405.9 41.759L1404.75 42.174L1403.14 42.7388L1401.88 43.1739L1399.66 43.9272L1397.25 44.724L1394.64 45.5742L1389.96 47.07L1383.84 48.9961L1374.45 51.9396L1369.87 53.3997L1367.13 54.2923L1365.34 54.8908L1363.97 55.3516L1363.31 55.5776C1362.43 55.8789 1361.57 56.1811 1360.68 56.4936L1354.38 58.7243L1348.05 60.9823L1343.27 62.6978L1336.85 65.0195L1330.34 67.3868L1323.73 69.8062L1317.01 72.2844L1311.87 74.1855L1304.89 76.7824L1295.93 80.1375L1288.11 83.0772L1286.78 83.5659L1285.38 84.0681L1283.91 84.587L1281.8 85.3102L1280.11 85.88L1277.68 86.6821L1273.49 88.0388L1256.2 93.5254L1253.72 94.3263L1250.56 95.3587L1248.3 96.1078L1246.13 96.8368L1243.38 97.7797L1241.41 98.4666L1240.15 98.9157L1238.92 99.358L1237.72 99.7941L1236.56 100.224L1235.44 100.649L1233.81 101.276L1232.25 101.892L1231.25 102.298L1230.28 102.701L1229.34 103.099L1228.42 103.495L1227.53 103.889L1226.67 104.28C1226.53 104.345 1226.39 104.41 1226.25 104.475L1225.42 104.863L1224.62 105.25L1223.81 105.654L1223.01 106.069L1222.24 106.478L1221.52 106.879C1221.4 106.946 1221.28 107.012 1221.17 107.078L1220.5 107.469C1220.18 107.662 1219.87 107.853 1219.58 108.041L1219.02 108.411C1218.84 108.534 1218.66 108.654 1218.49 108.774L1218.01 109.127C1216.16 110.52 1215.26 111.684 1215.31 112.509C1215.34 113.106 1215.89 113.803 1217.03 114.562L1217.39 114.792C1217.58 114.908 1217.78 115.025 1217.99 115.143L1218.44 115.381L1218.93 115.622L1219.45 115.866C1219.64 115.948 1219.82 116.03 1220.02 116.112L1220.62 116.361C1220.72 116.403 1220.82 116.444 1220.93 116.486L1221.59 116.738C1221.81 116.822 1222.04 116.907 1222.28 116.991L1223.02 117.246C1223.14 117.289 1223.27 117.331 1223.4 117.374L1224.2 117.631L1225.03 117.889C1225.32 117.975 1225.61 118.061 1225.91 118.147L1226.83 118.406L1227.79 118.665C1227.95 118.709 1228.12 118.752 1228.28 118.795L1228.44 118.833L1228.78 118.905C1228.84 118.917 1228.91 118.929 1228.97 118.94L1229.39 119.006L1229.86 119.068C1229.94 119.078 1230.02 119.088 1230.11 119.098L1230.65 119.154L1231.24 119.207L1231.89 119.256L1232.94 119.323L1234.12 119.382L1234.96 119.418L1236.33 119.465L1240.44 119.569L1241.7 119.596L1244.24 119.642C1245.09 119.655 1245.95 119.666 1246.82 119.675L1249.43 119.697C1249.87 119.699 1250.31 119.702 1250.75 119.703L1253.4 119.707L1256.08 119.699L1258.77 119.68L1261.48 119.649L1264.19 119.607L1266.92 119.555L1269.64 119.492C1270.1 119.48 1270.55 119.468 1271 119.456L1273.73 119.377C1274.63 119.349 1275.54 119.319 1276.44 119.287L1279.14 119.188C1279.59 119.17 1280.04 119.152 1280.49 119.134L1283.17 119.019L1285.83 118.895L1288.46 118.761L1291.06 118.618L1293.63 118.465L1296.16 118.303C1296.58 118.275 1297 118.247 1297.41 118.219L1299.88 118.044C1301.92 117.895 1303.91 117.736 1305.84 117.569L1308.13 117.364C1308.51 117.33 1308.88 117.294 1309.25 117.259L1311.45 117.042C1312.53 116.932 1313.58 116.819 1314.61 116.703L1316.7 116.46L1320.17 116.039L1324.74 115.462L1329.09 114.897L1335.5 114.043L1343.53 112.947L1350.4 111.994L1362.46 110.291L1380.17 107.748L1397.56 105.215L1427.3 100.825L1458.28 96.198L1477.85 93.252L1529.29 85.4539L1606.72 73.6606L1611.33 72.9882L1617.56 72.0925L1623.87 71.2007L1628.64 70.5362L1635.04 69.6586L1641.46 68.7932L1647.89 67.9432L1652.7 67.3175L1657.49 66.7035L1662.26 66.1024L1666.99 65.5155L1670.12 65.1328L1674.78 64.5724L1679.38 64.0297L1682.41 63.6783L1685.41 63.3357L1689.84 62.8392L1694.19 62.3645L1698.45 61.9131L1701.24 61.6257L1703.97 61.3496L1707.98 60.9573L1711.87 60.5926L1714.39 60.3654L1716.85 60.1513L1719.11 59.9617L1723.16 59.6298L1726.98 59.3273L1730.6 59.0537L1734.02 58.8087L1737.28 58.5918L1738.85 58.4938L1741.14 58.3597L1742.63 58.2788L1744.09 58.2046L1745.53 58.1372L1746.95 58.0763L1749.03 57.9975L1751.08 57.9333L1752.43 57.8985L1754.43 57.8584L1755.76 57.8395L1757.75 57.8229L1759.07 57.8195L1760.4 57.8223L1761.74 57.8312L1763.75 57.8557L1765.8 57.8937L1767.18 57.9263C1769.44 57.9841 1771.41 58.7581 1771.86 60.7153L1771.93 61.0538L1771.97 61.1984L1772.03 61.3728L1772.12 61.5867L1772.32 62.0022L1772.66 62.7112C1774.29 66.0821 1774.13 68.6735 1770.57 71.0341L1770.27 71.2339L1769.66 71.6294L1769.03 72.0205C1768.92 72.0854 1768.82 72.1502 1768.71 72.2148L1768.06 72.6019C1767.95 72.6663 1767.84 72.7306 1767.73 72.7949L1767.05 73.1809L1766.35 73.5678L1765.62 73.957C1765.5 74.0222 1765.38 74.0874 1765.25 74.1529L1764.49 74.5481L1763.69 74.9488L1762.86 75.3566L1762 75.7726L1761.09 76.1983L1760.15 76.6349L1758.66 77.3133L1757.07 78.0239L1755.36 78.7711L1747.68 82.0726L1746.1 82.7568L1744.68 83.3836L1743.3 84.0067L1742.34 84.4503C1742.18 84.5234 1742.03 84.5961 1741.88 84.6684L1740.98 85.0972L1740.12 85.5164L1739.3 85.9261C1739.17 85.9936 1739.04 86.0607 1738.91 86.1275L1738.15 86.5234L1737.44 86.9104L1736.76 87.2886C1736.65 87.3509 1736.54 87.4129 1736.44 87.4745L1735.82 87.84C1735.72 87.9002 1735.62 87.9601 1735.52 88.0196L1734.96 88.3728C1734.87 88.431 1734.78 88.4888 1734.69 88.5464L1734.19 88.8876C1732.25 90.2373 1731.2 91.403 1730.94 92.4413L1730.92 92.5228L1735.27 92.5747L1741.72 92.6699L1744.92 92.7029L1746.66 92.7123L1748.81 92.712L1750.79 92.696L1752.2 92.6731L1753.56 92.6406L1754.88 92.598L1756.18 92.5449L1757.43 92.483L1758.58 92.4099L1759.33 92.3528L1760.08 92.2879L1760.83 92.214L1761.6 92.1302L1762.39 92.0353L1763.23 91.9285L1764.57 91.7434L1765.55 91.602L1770.32 90.8815L1771.71 90.6834L1773.28 90.4822L1774.32 96.4189L1773.12 96.5722L1771.67 96.7762L1767.28 97.44L1765.69 97.6711L1764.72 97.8061L1763.8 97.9271L1762.92 98.0351L1762.08 98.1312L1761.25 98.2163C1761.11 98.2297 1760.98 98.2426 1760.84 98.2552L1760.03 98.3259L1759.2 98.3884C1759.06 98.3982 1758.92 98.4076 1758.78 98.4168L1757.92 98.4688L1757.03 98.515L1756.12 98.5559L1754.75 98.608L1753.37 98.6491L1751.94 98.6799L1750.96 98.6948L1748.91 98.7119L1747.27 98.7139L1744.91 98.7032L1742.32 98.678L1731.94 98.5327L1730.42 98.5198C1730.17 98.518 1729.92 98.5141 1729.67 98.5078L1728.94 98.4822C1728.83 98.4767 1728.71 98.4707 1728.61 98.464C1728.22 98.4401 1727.89 98.4088 1727.58 98.3614C1727.31 98.3199 1727.06 98.2671 1726.78 98.183C1726.53 98.1046 1726.27 98.0058 1726.01 97.8638C1725.49 97.5843 1725.03 97.2043 1724.7 96.6363C1722.48 92.8596 1723.72 89.15 1727.56 85.8349C1729.37 84.279 1731.71 82.7888 1734.81 81.1783L1735.81 80.6655C1736.5 80.3207 1737.22 79.9696 1737.98 79.6107L1739.14 79.066L1740.36 78.5082L1741.28 78.0965L1742.24 77.6708L1744.35 76.7485L1751.38 73.7329L1753.57 72.7783L1754.59 72.3259L1756.03 71.6751L1756.94 71.2581L1758.22 70.6551L1759.03 70.2663L1759.81 69.8867L1760.55 69.5152L1761.26 69.1506L1761.95 68.7917L1762.6 68.4374L1763.23 68.0865C1763.33 68.0282 1763.44 67.97 1763.54 67.9119L1764.13 67.5639C1764.23 67.506 1764.33 67.4481 1764.43 67.3902L1764.99 67.0425C1765.09 66.9845 1765.18 66.9264 1765.27 66.8683L1765.82 66.5183L1766.31 66.1908C1766.45 66.0845 1766.46 65.9987 1766.34 65.7158L1766.25 65.5206L1765.56 64.0951L1765.47 63.8878L1764.28 63.8657L1762.31 63.8376L1760.36 63.8227L1758.42 63.8211L1757.12 63.8276L1755.18 63.8488L1753.23 63.8838L1751.25 63.9329L1749.92 63.9735L1748.57 64.0205L1746.52 64.1031L1744.41 64.2004L1742.25 64.3124L1740.02 64.4396L1738.49 64.5328L1735.33 64.7396L1732 64.9742L1729.39 65.1685L1725.72 65.4526L1720.84 65.8483L1717.64 66.1153L1715.33 66.3162L1711.75 66.6397L1709.31 66.8697L1706.81 67.1107L1704.27 67.3625L1701.69 67.6247L1697.73 68.0368L1693.68 68.4705L1689.55 68.9247L1685.35 69.3982L1681.08 69.8901L1678.2 70.2276L1673.83 70.7476L1670.89 71.1028L1666.45 71.6477L1660.47 72.3951L1655.96 72.9698L1651.42 73.5555L1645.36 74.3516L1639.29 75.1626L1634.58 75.8017C1627.55 76.7619 1620.57 77.7429 1613.76 78.7264L1606.82 79.7457L1526.74 91.9407L1467.82 100.861L1437.75 105.365L1409.83 109.504L1393.35 111.922L1375.54 114.507L1361.91 116.456L1349.65 118.181L1340.66 119.421L1334.33 120.277L1329.38 120.933L1326.31 121.331L1323.75 121.658L1319.6 122.174L1316.63 122.528C1315.6 122.648 1314.54 122.766 1313.46 122.88L1311.25 123.105L1308.98 123.322L1306.65 123.531C1305.47 123.633 1304.27 123.732 1303.05 123.828L1300.59 124.015L1298.08 124.193C1297.66 124.222 1297.23 124.251 1296.81 124.279L1294.23 124.444C1293.8 124.471 1293.37 124.497 1292.93 124.523L1290.3 124.674C1289.86 124.698 1289.42 124.722 1288.98 124.745L1286.31 124.882C1285.41 124.926 1284.51 124.968 1283.61 125.008L1280.89 125.125L1278.15 125.231L1275.4 125.328L1272.64 125.413C1272.18 125.427 1271.72 125.44 1271.26 125.452L1268.49 125.522L1265.73 125.581C1265.27 125.59 1264.81 125.598 1264.35 125.606L1261.59 125.648C1260.67 125.661 1259.76 125.671 1258.84 125.679L1256.11 125.699L1253.4 125.707L1250.71 125.703L1248.04 125.687L1245.4 125.659L1242.8 125.619C1242.37 125.611 1241.94 125.603 1241.52 125.594L1236.56 125.476L1235.5 125.443L1234.5 125.407L1233.55 125.367L1232.65 125.323L1231.81 125.273L1231.01 125.219C1230.76 125.199 1230.51 125.179 1230.26 125.158L1229.56 125.091L1228.9 125.017C1228.68 124.991 1228.48 124.964 1228.28 124.935L1227.69 124.846C1227.5 124.815 1227.32 124.782 1227.14 124.748L1226.63 124.641C1226.46 124.604 1226.3 124.565 1226.14 124.525L1225.57 124.375L1224.46 124.073C1222.82 123.617 1221.29 123.146 1219.89 122.657L1218.98 122.329C1211.96 119.738 1208.3 116.664 1208.11 112.759C1207.89 108.441 1211.98 104.681 1219.61 100.762L1220.54 100.291L1221.38 99.8797L1222.24 99.468L1223.13 99.0557L1224.03 98.6426L1224.97 98.2282L1225.93 97.812L1226.91 97.3937L1227.93 96.9728L1229.5 96.3357L1230.59 95.9065L1231.7 95.4733L1232.85 95.0356L1234.64 94.3697L1236.5 93.6915L1237.78 93.2317L1239.78 92.5295L1241.15 92.0525L1243.29 91.3225L1244.76 90.8257L1247.83 89.8055L1250.24 89.0155L1252.76 88.2027L1260.56 85.7197L1271.05 82.3921L1274.39 81.3129L1276.81 80.5149L1278.5 79.9499L1280.6 79.2359L1282.06 78.726L1283.44 78.2349L1284.74 77.7598L1285.57 77.4503L1291.14 75.3537L1298.39 72.6337L1303.72 70.6468L1310.67 68.0628L1317.48 65.5475L1325.81 62.4897L1332.36 60.1045L1338.82 57.7665L1343.62 56.0398L1349.97 53.7682L1354.72 52.0838L1358.88 50.6131L1361.23 49.8026L1363.3 49.1056L1366.27 48.1288L1370.56 46.7508L1377.02 44.7188L1385.41 42.0894L1390.27 40.5478L1393.49 39.5094L1395.93 38.7079L1398.17 37.9545L1399.85 37.38L1401.44 36.8253L1403.67 36.02L1404.74 35.6248L1405.78 35.232L1407.47 34.5769L1408.8 34.047L1409.79 33.643C1416.67 30.8052 1421.01 27.9083 1425.62 23.555L1426.07 23.1292C1426.13 23.0686 1426.16 23.0357 1426.14 22.9153L1426.11 22.788L1426.02 22.4815L1425.8 21.8606L1425.54 21.1269L1425.43 20.8062L1425.34 20.514L1425.26 20.2159L1425.2 19.9545L1425.16 19.6968L1425.09 19.2508L1424.93 19.2147L1424.68 19.1671L1424.51 19.1384L1424.14 19.085C1424.08 19.0766 1424.01 19.0684 1423.95 19.0604L1423.53 19.0153L1423.08 18.9758L1422.6 18.9421L1422.08 18.914L1421.53 18.8919L1420.94 18.8756L1420.32 18.8652L1419.31 18.861C1419.2 18.8613 1419.08 18.8619 1418.96 18.8627L1418.23 18.8706L1417.46 18.8848L1416.23 18.9179L1414.91 18.9654L1413.5 19.0275L1412.01 19.1044L1410.42 19.1965L1408.16 19.3431L1406.96 19.4268L1405.16 19.5596L1401.88 19.8168L1398.69 20.0873L1396.04 20.3285L1392.78 20.6437L1388.8 21.0568L1385.12 21.4588L1379.7 22.0777L1371.81 23.0107L1358.81 24.557L1342.84 26.3858L1332.66 27.5647L1321.52 28.8726L1315.48 29.5908L1306.84 30.6329L1302.7 31.1398L1297.35 31.8026L1290.91 32.6127L1284.75 33.4055L1279.99 34.0297L1274.23 34.8002L1270.88 35.2587L1265.43 36.0188L1262.24 36.4737L1258.06 37.0804L1254.99 37.5365L1250.94 38.1476L1248.94 38.4548L1245.97 38.9185L1241.06 39.7007L1237.17 40.3367L1232.32 41.1477L1230.39 41.4778L1227.36 42.0007L1214.25 44.2948L1202.4 46.3836L1185.85 49.3197L1173.72 51.4858L1154.88 54.8784L1124.73 60.3574L1090 66.7208L984.289 86.2089L950.725 92.3924L937.451 94.8728L926.096 97.0346L917.536 98.7017L913.139 99.5734L907.675 100.672L875.333 107.274L826.079 117.391L757.63 131.541L586.169 167.079L546.912 175.172L482.152 188.446L444.151 196.16L427.877 199.428L413.233 202.344L402.829 204.4L393.776 206.179L384.859 207.921L378.205 209.197L372.348 210.301L367.327 211.234L360.039 212.569L353.505 213.748L345.493 215.176L335.742 216.892L321.893 219.304L313.904 220.75L296.563 223.92L293.393 224.486L290.848 224.927L289.261 225.185L288.062 225.36L286.34 225.595L284.591 225.814L282.799 226.018L281.323 226.171L280.185 226.28L278.619 226.418L276.991 226.549L275.29 226.673L273.509 226.79L270.667 226.956L268.646 227.059L265.401 227.206L261.876 227.345L258.04 227.477L251.639 227.667L243.776 227.866L240.78 227.929L238.574 227.966L236.039 227.994L234.629 228L233.298 227.997L232.042 227.985L231.244 227.971L230.475 227.953L229.736 227.93L229.024 227.902L228.339 227.869L227.358 227.81L226.733 227.763L226.13 227.711L225.549 227.654L224.987 227.59L224.444 227.52L223.918 227.444L223.407 227.361L222.912 227.272L222.431 227.176L221.961 227.073L221.503 226.963L221.055 226.846L220.616 226.721L220.184 226.589L219.759 226.449L219.339 226.301L218.922 226.145L218.508 225.981L218.096 225.809L217.477 225.534L216.855 225.239L216.437 225.031L215.799 224.702L215.367 224.471L214.477 223.98L213.784 223.586L213.547 223.449C209.506 221.114 207.16 218.37 206.567 215.271L206.439 214.593L206.197 213.272L205.976 211.994L205.775 210.757C205.743 210.554 205.712 210.353 205.682 210.153L205.512 208.973C204.638 202.581 204.73 197.765 206.035 192.633C208.277 183.818 214.196 176.136 224.714 169.386C227.423 167.648 230.248 165.905 233.19 164.156L235.168 162.989C237.496 161.626 239.895 160.26 242.366 158.89L244.5 157.714C247.729 155.949 251.075 154.177 254.54 152.396L256.868 151.208C258.04 150.613 259.226 150.017 260.425 149.42L262.841 148.226L265.292 147.028L267.779 145.828L270.301 144.624C270.725 144.424 271.15 144.223 271.576 144.022L274.152 142.814L276.763 141.603L279.41 140.39L282.093 139.173L284.812 137.952L287.567 136.729C288.491 136.32 289.421 135.911 290.358 135.502L293.184 134.271C293.659 134.066 294.134 133.86 294.611 133.655L297.492 132.419C297.976 132.213 298.46 132.006 298.946 131.8L301.882 130.558L304.854 129.313L307.862 128.064L310.906 126.812L313.987 125.555L317.105 124.294L320.259 123.029L323.449 121.76L326.677 120.486L329.941 119.209L333.243 117.926L336.581 116.64L339.956 115.348L343.368 114.053L346.817 112.752L350.303 111.447L353.827 110.136L357.388 108.821L360.556 107.658L364.636 106.169L368.634 104.719L372.641 103.274L378.007 101.353L383.413 99.4335L387.503 97.9922L391.629 96.547L395.799 95.0956L401.436 93.1472L405.73 91.6734L411.555 89.6874L416.007 88.1796L422.065 86.1405L428.277 84.0643L433.044 82.4797L439.559 80.3262L446.266 78.1217L454.944 75.2867L463.976 72.3543L473.389 69.3146L485.229 65.5117L499.854 60.8393L517.735 55.1558L564.495 40.3637L576.842 36.4865L587.785 33.0805L595.653 30.6575L601.76 28.7965L607.029 27.2065L611.31 25.9258L615.583 24.6581L619.554 23.4886L623.585 22.3099L626.675 21.4119L630.162 20.4167L632.629 19.7266L635.615 18.9067L639.748 17.7953L645.483 16.2856L653.635 14.1766L671.651 9.55193L678.287 7.82082L591.838 17.8346L569.829 20.4058L548.887 22.8777L530.073 25.1308L513.891 27.1026L500.691 28.7398L492.069 29.8243L486.959 30.4727L477.729 31.6547L463.853 33.4526L448.817 35.4162L437.674 36.8815L423.609 38.7438L404.737 41.2655L385.21 43.9007L362.849 46.9465L324.841 52.1756L283.189 57.9547L165.695 74.3299L133.622 78.6578L121.485 80.3306L115.042 81.2408L108.505 82.1885L103.674 82.9097L98.5891 83.6938L94.3169 84.3764L90.2197 85.0548L87.228 85.5661L86.1946 85.746C84.4762 86.0465 82.7756 86.3509 81.0717 86.6625L79.0241 87.0401L72.8974 88.1816L63.8565 89.8742L57.902 90.9948L51.9844 92.1133L39.1425 94.5578L25.4241 97.1957L8.49836 100.487L-6.25581 103.385L-20.2373 106.153L-41.95 110.483L-71.7932 116.482L-191.881 140.765L-211.312 144.65L-221.965 146.768L-223.634 140.931L-207.746 137.769L-171.547 130.498L-80.5222 112.069L-50.0665 105.939L-31.1024 102.146L-15.4256 99.0305L-0.642576 96.1144L9.98344 94.0337L22.0103 91.6963L32.1022 89.7505L43.7464 87.5237L53.7166 85.6327L67.1543 83.1058L79.5247 80.8025L81.5907 80.4278L85.743 79.6948L89.4406 79.0645L92.144 78.6166L94.3562 78.2578L98.3596 77.6245L101.342 77.1648L106.372 76.4095L111.078 75.7216L117.62 74.7885L126.49 73.5537L134.575 72.4487L168.363 67.8831L287.991 51.2036L333.844 44.8506L358.861 41.4118L383.683 38.0288L405.351 35.1056L423.068 32.7397L432.622 31.4735L443.755 30.0065L456.954 28.2785L470.396 26.5303L477.316 25.6366L485.869 24.5418L498.532 22.9427L508.373 21.7178L524.284 19.7687L533.871 18.6107L551.852 16.4653L576.371 13.5803L610.134 9.6527L677.392 1.86781L678.946 1.69463L680.54 1.52636L682.186 1.36165L684.484 1.14522L686.929 0.929501L689.55 0.711279L694.653 0.313711L697.074 0.133706L697.83 0.0854966C697.966 0.0778983 698.106 0.0705839 698.248 0.0636516L699.109 0.0274309C699.395 0.0174104 699.674 0.00970517 699.933 0.00510161Z" fill="#093F68"/>
</svg>
